{
  "accessors": [
    {
      "bufferView": 2,
      "componentType": 5126,
      "count": 410,
      "max": [
        1.419013500213623,
        1.2337979078292847,
        1.0061744451522827
      ],
      "min": [
        -0.808800995349884,
        -1.1835004091262817,
        -1.499048113822937
      ],
      "type": "VEC3"
    },
    {
      "bufferView": 2,
      "byteOffset": 4920,
      "componentType": 5126,
      "count": 410,
      "max": [
        1.0,
        1.0,
        1.0
      ],
      "min": [
        -1.0,
        -1.0,
        -1.0
      ],
      "type": "VEC3"
    },
    {
      "bufferView": 3,
      "componentType": 5126,
      "count": 410,
      "max": [
        1.0,
        1.0,
        1.0,
        1.0
      ],
      "min": [
        -1.0,
        -0.9992133975028992,
        -0.9975934028625488,
        1.0
      ],
      "type": "VEC4"
    },
    {
      "bufferView": 1,
      "componentType": 5126,
      "count": 410,
      "max": [
        0.9985483288764954,
        0.9916036128997803
      ],
      "min": [
        0.0014517003437504172,
        0.011128412559628487
      ],
      "type": "VEC2"
    },
    {
      "bufferView": 1,
      "byteOffset": 3280,
      "componentType": 5126,
      "count": 410,
      "max": [
        0.9985483288764954,
        0.9916036128997803
      ],
      "min": [
        0.0014517003437504172,
        0.011128412559628487
      ],
      "type": "VEC2"
    },
    {
      "bufferView": 1,
      "byteOffset": 6560,
      "componentType": 5126,
      "count": 410,
      "max": [
        0.9985483288764954,
        0.9916036128997803
      ],
      "min": [
        0.0014517003437504172,
        0.011128412559628487
      ],
      "type": "VEC2"
    },
    {
      "bufferView": 0,
      "componentType": 5125,
      "count": 972,
      "type": "SCALAR"
    },
    {
      "bufferView": 2,
      "byteOffset": 9840,
      "componentType": 5126,
      "count": 220,
      "max": [
        0.49205178022384644,
        1.5105139017105103,
        0.41622307896614075
      ],
      "min": [
        -1.6643381118774414,
        -0.905739426612854,
        -0.8811461925506592
      ],
      "type": "VEC3"
    },
    {
      "bufferView": 2,
      "byteOffset": 12480,
      "componentType": 5126,
      "count": 220,
      "max": [
        1.0,
        1.0,
        1.0
      ],
      "min": [
        -1.0,
        -1.0,
        -1.0
      ],
      "type": "VEC3"
    },
    {
      "bufferView": 3,
      "byteOffset": 6560,
      "componentType": 5126,
      "count": 220,
      "max": [
        1.0,
        1.0,
        1.0,
        1.0
      ],
      "min": [
        -1.0,
        -1.0,
        -0.9981510043144226,
        1.0
      ],
      "type": "VEC4"
    },
    {
      "bufferView": 1,
      "byteOffset": 9840,
      "componentType": 5126,
      "count": 220,
      "max": [
        0.9980878829956055,
        0.9898573756217957
      ],
      "min": [
        0.0014490096364170313,
        0.0014478424564003944
      ],
      "type": "VEC2"
    },
    {
      "bufferView": 1,
      "byteOffset": 11600,
      "componentType": 5126,
      "count": 220,
      "max": [
        0.9980878829956055,
        0.9898573756217957
      ],
      "min": [
        0.0014490096364170313,
        0.0014478424564003944
      ],
      "type": "VEC2"
    },
    {
      "bufferView": 1,
      "byteOffset": 13360,
      "componentType": 5126,
      "count": 220,
      "max": [
        0.9980878829956055,
        0.9898573756217957
      ],
      "min": [
        0.0014490096364170313,
        0.0014478424564003944
      ],
      "type": "VEC2"
    },
    {
      "bufferView": 0,
      "byteOffset": 3888,
      "componentType": 5125,
      "count": 492,
      "type": "SCALAR"
    },
    {
      "bufferView": 2,
      "byteOffset": 15120,
      "componentType": 5126,
      "count": 56,
      "max": [
        1.0718672275543213,
        0.051002077758312225,
        0.05100202560424805
      ],
      "min": [
        -1.0718672275543213,
        -0.05100208520889282,
        -0.05100202560424805
      ],
      "type": "VEC3"
    },
    {
      "bufferView": 2,
      "byteOffset": 15792,
      "componentType": 5126,
      "count": 56,
      "max": [
        1.0,
        1.0,
        1.0
      ],
      "min": [
        -1.0,
        -1.0,
        -1.0
      ],
      "type": "VEC3"
    },
    {
      "bufferView": 3,
      "byteOffset": 10080,
      "componentType": 5126,
      "count": 56,
      "max": [
        1.0,
        0.8084863424301147,
        8.019587403396145e-05,
        1.0
      ],
      "min": [
        -1.0,
        -1.0,
        -1.0,
        1.0
      ],
      "type": "VEC4"
    },
    {
      "bufferView": 1,
      "byteOffset": 15120,
      "componentType": 5126,
      "count": 56,
      "max": [
        0.9636949896812439,
        0.9740649461746216
      ],
      "min": [
        0.23153533041477203,
        0.0014563099248334765
      ],
      "type": "VEC2"
    },
    {
      "bufferView": 1,
      "byteOffset": 15568,
      "componentType": 5126,
      "count": 56,
      "max": [
        0.9636949896812439,
        0.9740649461746216
      ],
      "min": [
        0.23153533041477203,
        0.0014563099248334765
      ],
      "type": "VEC2"
    },
    {
      "bufferView": 1,
      "byteOffset": 16016,
      "componentType": 5126,
      "count": 56,
      "max": [
        0.9636949896812439,
        0.9740649461746216
      ],
      "min": [
        0.23153533041477203,
        0.0014563099248334765
      ],
      "type": "VEC2"
    },
    {
      "bufferView": 0,
      "byteOffset": 5856,
      "componentType": 5125,
      "count": 84,
      "type": "SCALAR"
    },
    {
      "bufferView": 2,
      "byteOffset": 16464,
      "componentType": 5126,
      "count": 56,
      "max": [
        0.05100204050540924,
        1.3524209260940552,
        0.05100202560424805
      ],
      "min": [
        -0.05100202560424805,
        -1.3524208068847656,
        -0.05100202560424805
      ],
      "type": "VEC3"
    },
    {
      "bufferView": 2,
      "byteOffset": 17136,
      "componentType": 5126,
      "count": 56,
      "max": [
        1.0,
        1.0,
        1.0
      ],
      "min": [
        -1.0,
        -1.0,
        -1.0
      ],
      "type": "VEC3"
    },
    {
      "bufferView": 3,
      "byteOffset": 10976,
      "componentType": 5126,
      "count": 56,
      "max": [
        1.0,
        1.0,
        1.0,
        1.0
      ],
      "min": [
        -1.0,
        0.0,
        -0.7364993691444397,
        1.0
      ],
      "type": "VEC4"
    },
    {
      "bufferView": 1,
      "byteOffset": 16464,
      "componentType": 5126,
      "count": 56,
      "max": [
        0.9611756205558777,
        0.9756545424461365
      ],
      "min": [
        0.43660682439804077,
        0.24168561398983002
      ],
      "type": "VEC2"
    },
    {
      "bufferView": 1,
      "byteOffset": 16912,
      "componentType": 5126,
      "count": 56,
      "max": [
        0.9611756205558777,
        0.9756545424461365
      ],
      "min": [
        0.43660682439804077,
        0.24168561398983002
      ],
      "type": "VEC2"
    },
    {
      "bufferView": 1,
      "byteOffset": 17360,
      "componentType": 5126,
      "count": 56,
      "max": [
        0.9611756205558777,
        0.9756545424461365
      ],
      "min": [
        0.43660682439804077,
        0.24168561398983002
      ],
      "type": "VEC2"
    },
    {
      "bufferView": 0,
      "byteOffset": 6192,
      "componentType": 5125,
      "count": 84,
      "type": "SCALAR"
    },
    {
      "bufferView": 2,
      "byteOffset": 17808,
      "componentType": 5126,
      "count": 56,
      "max": [
        0.05100202560424805,
        1.3524209260940552,
        0.05100202560424805
      ],
      "min": [
        -0.05100202560424805,
        -1.3524208068847656,
        -0.05100202560424805
      ],
      "type": "VEC3"
    },
    {
      "bufferView": 2,
      "byteOffset": 18480,
      "componentType": 5126,
      "count": 56,
      "max": [
        1.0,
        1.0,
        1.0
      ],
      "min": [
        -1.0,
        -1.0,
        -1.0
      ],
      "type": "VEC3"
    },
    {
      "bufferView": 3,
      "byteOffset": 11872,
      "componentType": 5126,
      "count": 56,
      "max": [
        1.0,
        1.0,
        0.7365046143531799,
        1.0
      ],
      "min": [
        -1.0,
        0.0,
        -0.7365013957023621,
        1.0
      ],
      "type": "VEC4"
    },
    {
      "bufferView": 1,
      "byteOffset": 17808,
      "componentType": 5126,
      "count": 56,
      "max": [
        0.9346125721931458,
        0.9756555557250977
      ],
      "min": [
        0.27935418486595154,
        0.3481283485889435
      ],
      "type": "VEC2"
    },
    {
      "bufferView": 1,
      "byteOffset": 18256,
      "componentType": 5126,
      "count": 56,
      "max": [
        0.9346125721931458,
        0.9756555557250977
      ],
      "min": [
        0.27935418486595154,
        0.3481283485889435
      ],
      "type": "VEC2"
    },
    {
      "bufferView": 1,
      "byteOffset": 18704,
      "componentType": 5126,
      "count": 56,
      "max": [
        0.9346125721931458,
        0.9756555557250977
      ],
      "min": [
        0.27935418486595154,
        0.3481283485889435
      ],
      "type": "VEC2"
    },
    {
      "bufferView": 0,
      "byteOffset": 6528,
      "componentType": 5125,
      "count": 84,
      "type": "SCALAR"
    },
    {
      "bufferView": 2,
      "byteOffset": 19152,
      "componentType": 5126,
      "count": 222,
      "max": [
        1.0401771068572998,
        1.6357392072677612,
        0.08689144253730774
      ],
      "min": [
        -1.2147181034088135,
        -0.849955677986145,
        -0.0896388590335846
      ],
      "type": "VEC3"
    },
    {
      "bufferView": 2,
      "byteOffset": 21816,
      "componentType": 5126,
      "count": 222,
      "max": [
        1.0,
        1.0,
        1.0
      ],
      "min": [
        -1.0,
        -1.0,
        -1.0
      ],
      "type": "VEC3"
    },
    {
      "bufferView": 3,
      "byteOffset": 12768,
      "componentType": 5126,
      "count": 222,
      "max": [
        1.0,
        1.0,
        1.0,
        1.0
      ],
      "min": [
        -0.7071011662483215,
        -1.0,
        -1.0,
        1.0
      ],
      "type": "VEC4"
    },
    {
      "bufferView": 1,
      "byteOffset": 19152,
      "componentType": 5126,
      "count": 222,
      "max": [
        0.9746446013450623,
        0.9749242663383484
      ],
      "min": [
        0.22001683712005615,
        0.0014518401585519314
      ],
      "type": "VEC2"
    },
    {
      "bufferView": 1,
      "byteOffset": 20928,
      "componentType": 5126,
      "count": 222,
      "max": [
        0.9746446013450623,
        0.9749242663383484
      ],
      "min": [
        0.22001683712005615,
        0.0014518401585519314
      ],
      "type": "VEC2"
    },
    {
      "bufferView": 1,
      "byteOffset": 22704,
      "componentType": 5126,
      "count": 222,
      "max": [
        0.9746446013450623,
        0.9749242663383484
      ],
      "min": [
        0.22001683712005615,
        0.0014518401585519314
      ],
      "type": "VEC2"
    },
    {
      "bufferView": 0,
      "byteOffset": 6864,
      "componentType": 5125,
      "count": 336,
      "type": "SCALAR"
    },
    {
      "bufferView": 2,
      "byteOffset": 24480,
      "componentType": 5126,
      "count": 256,
      "max": [
        0.020000075921416283,
        0.7541391253471375,
        0.19496417045593262
      ],
      "min": [
        -0.020000101998448372,
        -0.5899787545204163,
        -0.3999018669128418
      ],
      "type": "VEC3"
    },
    {
      "bufferView": 2,
      "byteOffset": 27552,
      "componentType": 5126,
      "count": 256,
      "max": [
        1.0,
        0.9995271563529968,
        0.9999985694885254
      ],
      "min": [
        -1.0,
        -0.9993525147438049,
        -0.9999974966049194
      ],
      "type": "VEC3"
    },
    {
      "bufferView": 3,
      "byteOffset": 16320,
      "componentType": 5126,
      "count": 256,
      "max": [
        0.9994174838066101,
        0.9426199793815613,
        0.9917879104614258,
        1.0
      ],
      "min": [
        -0.9994145631790161,
        -0.9963423013687134,
        -0.969114363193512,
        1.0
      ],
      "type": "VEC4"
    },
    {
      "bufferView": 1,
      "byteOffset": 24480,
      "componentType": 5126,
      "count": 256,
      "max": [
        0.99845290184021,
        0.5892477035522461
      ],
      "min": [
        0.17653052508831024,
        0.0014477368677034974
      ],
      "type": "VEC2"
    },
    {
      "bufferView": 1,
      "byteOffset": 26528,
      "componentType": 5126,
      "count": 256,
      "max": [
        0.99845290184021,
        0.5892477035522461
      ],
      "min": [
        0.17653052508831024,
        0.0014477368677034974
      ],
      "type": "VEC2"
    },
    {
      "bufferView": 1,
      "byteOffset": 28576,
      "componentType": 5126,
      "count": 256,
      "max": [
        0.99845290184021,
        0.5892477035522461
      ],
      "min": [
        0.17653052508831024,
        0.0014477368677034974
      ],
      "type": "VEC2"
    },
    {
      "bufferView": 0,
      "byteOffset": 8208,
      "componentType": 5125,
      "count": 624,
      "type": "SCALAR"
    },
    {
      "bufferView": 2,
      "byteOffset": 30624,
      "componentType": 5126,
      "count": 395,
      "max": [
        0.1153733879327774,
        0.115373395383358,
        0.100728839635849
      ],
      "min": [
        -0.1153734028339386,
        -0.115373395383358,
        -0.17928564548492432
      ],
      "type": "VEC3"
    },
    {
      "bufferView": 2,
      "byteOffset": 35364,
      "componentType": 5126,
      "count": 395,
      "max": [
        0.9999503493309021,
        0.9999503493309021,
        1.0
      ],
      "min": [
        -0.9999503493309021,
        -0.9999503493309021,
        -0.8727111220359802
      ],
      "type": "VEC3"
    },
    {
      "bufferView": 3,
      "byteOffset": 20416,
      "componentType": 5126,
      "count": 395,
      "max": [
        0.9996314644813538,
        0.9990951418876648,
        0.9998674392700195,
        1.0
      ],
      "min": [
        -0.9939071536064148,
        -1.0,
        -0.9998487234115601,
        -1.0
      ],
      "type": "VEC4"
    },
    {
      "bufferView": 1,
      "byteOffset": 30624,
      "componentType": 5126,
      "count": 395,
      "max": [
        0.9985398650169373,
        0.5997248291969299
      ],
      "min": [
        0.1687978208065033,
        0.052031125873327255
      ],
      "type": "VEC2"
    },
    {
      "bufferView": 1,
      "byteOffset": 33784,
      "componentType": 5126,
      "count": 395,
      "max": [
        0.9985398650169373,
        0.5997248291969299
      ],
      "min": [
        0.1687978208065033,
        0.052031125873327255
      ],
      "type": "VEC2"
    },
    {
      "bufferView": 1,
      "byteOffset": 36944,
      "componentType": 5126,
      "count": 395,
      "max": [
        0.9985398650169373,
        0.5997248291969299
      ],
      "min": [
        0.1687978208065033,
        0.052031125873327255
      ],
      "type": "VEC2"
    },
    {
      "bufferView": 0,
      "byteOffset": 10704,
      "componentType": 5125,
      "count": 1296,
      "type": "SCALAR"
    },
    {
      "bufferView": 2,
      "byteOffset": 40104,
      "componentType": 5126,
      "count": 120,
      "max": [
        1.0071096420288086,
        1.3865338563919067,
        0.4524286687374115
      ],
      "min": [
        -1.1016132831573486,
        -1.3477284908294678,
        -0.4524286389350891
      ],
      "type": "VEC3"
    },
    {
      "bufferView": 2,
      "byteOffset": 41544,
      "componentType": 5126,
      "count": 120,
      "max": [
        0.9963239431381226,
        0.9963239431381226,
        1.0
      ],
      "min": [
        -0.9934788346290588,
        -0.9963240623474121,
        -1.0
      ],
      "type": "VEC3"
    },
    {
      "bufferView": 3,
      "byteOffset": 26736,
      "componentType": 5126,
      "count": 120,
      "max": [
        1.0,
        1.0,
        0.9963240027427673,
        1.0
      ],
      "min": [
        -1.0,
        -1.0,
        -0.9934788346290588,
        1.0
      ],
      "type": "VEC4"
    },
    {
      "bufferView": 1,
      "byteOffset": 40104,
      "componentType": 5126,
      "count": 120,
      "max": [
        0.9132672548294067,
        0.8994864821434021
      ],
      "min": [
        0.014109140262007713,
        0.11964187026023865
      ],
      "type": "VEC2"
    },
    {
      "bufferView": 1,
      "byteOffset": 41064,
      "componentType": 5126,
      "count": 120,
      "max": [
        0.9132672548294067,
        0.8994864821434021
      ],
      "min": [
        0.014109140262007713,
        0.11964187026023865
      ],
      "type": "VEC2"
    },
    {
      "bufferView": 1,
      "byteOffset": 42024,
      "componentType": 5126,
      "count": 120,
      "max": [
        0.9132672548294067,
        0.8994864821434021
      ],
      "min": [
        0.014109140262007713,
        0.11964187026023865
      ],
      "type": "VEC2"
    },
    {
      "bufferView": 0,
      "byteOffset": 15888,
      "componentType": 5125,
      "count": 180,
      "type": "SCALAR"
    },
    {
      "bufferView": 2,
      "byteOffset": 42984,
      "componentType": 5126,
      "count": 56,
      "max": [
        0.05100202560424805,
        1.3524209260940552,
        0.05100202560424805
      ],
      "min": [
        -0.05100202560424805,
        -1.3524208068847656,
        -0.05100202560424805
      ],
      "type": "VEC3"
    },
    {
      "bufferView": 2,
      "byteOffset": 43656,
      "componentType": 5126,
      "count": 56,
      "max": [
        1.0,
        1.0,
        1.0
      ],
      "min": [
        -1.0,
        -1.0,
        -1.0
      ],
      "type": "VEC3"
    },
    {
      "bufferView": 3,
      "byteOffset": 28656,
      "componentType": 5126,
      "count": 56,
      "max": [
        1.0,
        1.0,
        1.0,
        1.0
      ],
      "min": [
        -4.3868400098290294e-05,
        -0.6764360070228577,
        -1.0,
        1.0
      ],
      "type": "VEC4"
    },
    {
      "bufferView": 1,
      "byteOffset": 42984,
      "componentType": 5126,
      "count": 56,
      "max": [
        0.9858051538467407,
        0.9427456855773926
      ],
      "min": [
        0.0014534798683598638,
        0.0014545000158250332
      ],
      "type": "VEC2"
    },
    {
      "bufferView": 1,
      "byteOffset": 43432,
      "componentType": 5126,
      "count": 56,
      "max": [
        0.9858051538467407,
        0.9427456855773926
      ],
      "min": [
        0.0014534798683598638,
        0.0014545000158250332
      ],
      "type": "VEC2"
    },
    {
      "bufferView": 1,
      "byteOffset": 43880,
      "componentType": 5126,
      "count": 56,
      "max": [
        0.9858051538467407,
        0.9427456855773926
      ],
      "min": [
        0.0014534798683598638,
        0.0014545000158250332
      ],
      "type": "VEC2"
    },
    {
      "bufferView": 0,
      "byteOffset": 16608,
      "componentType": 5125,
      "count": 84,
      "type": "SCALAR"
    },
    {
      "bufferView": 2,
      "byteOffset": 44328,
      "componentType": 5126,
      "count": 56,
      "max": [
        0.05100202560424805,
        1.3524209260940552,
        0.05100202560424805
      ],
      "min": [
        -0.05100202560424805,
        -1.3524208068847656,
        -0.05100202560424805
      ],
      "type": "VEC3"
    },
    {
      "bufferView": 2,
      "byteOffset": 45000,
      "componentType": 5126,
      "count": 56,
      "max": [
        1.0,
        1.0,
        1.0
      ],
      "min": [
        -1.0,
        -1.0,
        -1.0
      ],
      "type": "VEC3"
    },
    {
      "bufferView": 3,
      "byteOffset": 29552,
      "componentType": 5126,
      "count": 56,
      "max": [
        0.7365014553070068,
        1.0,
        0.7365046739578247,
        1.0
      ],
      "min": [
        -1.0,
        -1.0108103509764987e-07,
        -1.0,
        1.0
      ],
      "type": "VEC4"
    },
    {
      "bufferView": 1,
      "byteOffset": 44328,
      "componentType": 5126,
      "count": 56,
      "max": [
        0.9769884347915649,
        0.9234008193016052
      ],
      "min": [
        0.0014468642184510827,
        0.0014468267327174544
      ],
      "type": "VEC2"
    },
    {
      "bufferView": 1,
      "byteOffset": 44776,
      "componentType": 5126,
      "count": 56,
      "max": [
        0.9769884347915649,
        0.9234008193016052
      ],
      "min": [
        0.0014468642184510827,
        0.0014468267327174544
      ],
      "type": "VEC2"
    },
    {
      "bufferView": 1,
      "byteOffset": 45224,
      "componentType": 5126,
      "count": 56,
      "max": [
        0.9769884347915649,
        0.9234008193016052
      ],
      "min": [
        0.0014468642184510827,
        0.0014468267327174544
      ],
      "type": "VEC2"
    },
    {
      "bufferView": 0,
      "byteOffset": 16944,
      "componentType": 5125,
      "count": 84,
      "type": "SCALAR"
    },
    {
      "bufferView": 2,
      "byteOffset": 45672,
      "componentType": 5126,
      "count": 56,
      "max": [
        1.0718672275543213,
        0.051002077758312225,
        0.05100202560424805
      ],
      "min": [
        -0.15104347467422485,
        -0.05100208520889282,
        -0.05100202560424805
      ],
      "type": "VEC3"
    },
    {
      "bufferView": 2,
      "byteOffset": 46344,
      "componentType": 5126,
      "count": 56,
      "max": [
        1.0,
        1.0,
        1.0
      ],
      "min": [
        -1.0,
        -1.0,
        -1.0
      ],
      "type": "VEC3"
    },
    {
      "bufferView": 3,
      "byteOffset": 30448,
      "componentType": 5126,
      "count": 56,
      "max": [
        1.0,
        1.0,
        6.744859092577826e-06,
        1.0
      ],
      "min": [
        -1.0,
        -1.0,
        -1.0,
        1.0
      ],
      "type": "VEC4"
    },
    {
      "bufferView": 1,
      "byteOffset": 45672,
      "componentType": 5126,
      "count": 56,
      "max": [
        0.9886818528175354,
        0.9040461778640747
      ],
      "min": [
        0.08432465046644211,
        0.19692179560661316
      ],
      "type": "VEC2"
    },
    {
      "bufferView": 1,
      "byteOffset": 46120,
      "componentType": 5126,
      "count": 56,
      "max": [
        0.9886818528175354,
        0.9040461778640747
      ],
      "min": [
        0.08432465046644211,
        0.19692179560661316
      ],
      "type": "VEC2"
    },
    {
      "bufferView": 1,
      "byteOffset": 46568,
      "componentType": 5126,
      "count": 56,
      "max": [
        0.9886818528175354,
        0.9040461778640747
      ],
      "min": [
        0.08432465046644211,
        0.19692179560661316
      ],
      "type": "VEC2"
    },
    {
      "bufferView": 0,
      "byteOffset": 17280,
      "componentType": 5125,
      "count": 84,
      "type": "SCALAR"
    },
    {
      "bufferView": 2,
      "byteOffset": 47016,
      "componentType": 5126,
      "count": 56,
      "max": [
        1.0718672275543213,
        0.051002077758312225,
        0.05100202560424805
      ],
      "min": [
        -1.0718672275543213,
        -0.05100208520889282,
        -0.05100202560424805
      ],
      "type": "VEC3"
    },
    {
      "bufferView": 2,
      "byteOffset": 47688,
      "componentType": 5126,
      "count": 56,
      "max": [
        1.0,
        1.0,
        1.0
      ],
      "min": [
        -1.0,
        -1.0,
        -1.0
      ],
      "type": "VEC3"
    },
    {
      "bufferView": 3,
      "byteOffset": 31344,
      "componentType": 5126,
      "count": 56,
      "max": [
        0.5885153412818909,
        1.0,
        1.0,
        1.0
      ],
      "min": [
        -1.0,
        -0.39377132058143616,
        -1.0,
        1.0
      ],
      "type": "VEC4"
    },
    {
      "bufferView": 1,
      "byteOffset": 47016,
      "componentType": 5126,
      "count": 56,
      "max": [
        0.9879397749900818,
        0.969843327999115
      ],
      "min": [
        0.0014518101233989,
        0.35562261939048767
      ],
      "type": "VEC2"
    },
    {
      "bufferView": 1,
      "byteOffset": 47464,
      "componentType": 5126,
      "count": 56,
      "max": [
        0.9879397749900818,
        0.969843327999115
      ],
      "min": [
        0.0014518101233989,
        0.35562261939048767
      ],
      "type": "VEC2"
    },
    {
      "bufferView": 1,
      "byteOffset": 47912,
      "componentType": 5126,
      "count": 56,
      "max": [
        0.9879397749900818,
        0.969843327999115
      ],
      "min": [
        0.0014518101233989,
        0.35562261939048767
      ],
      "type": "VEC2"
    },
    {
      "bufferView": 0,
      "byteOffset": 17616,
      "componentType": 5125,
      "count": 84,
      "type": "SCALAR"
    },
    {
      "bufferView": 2,
      "byteOffset": 48360,
      "componentType": 5126,
      "count": 24,
      "max": [
        0.14924019575119019,
        0.14924019575119019,
        0.14924019575119019
      ],
      "min": [
        -0.14924019575119019,
        -0.14924019575119019,
        -0.14924019575119019
      ],
      "type": "VEC3"
    },
    {
      "bufferView": 2,
      "byteOffset": 48648,
      "componentType": 5126,
      "count": 24,
      "max": [
        1.0,
        1.0,
        1.0
      ],
      "min": [
        -1.0,
        -1.0,
        -1.0
      ],
      "type": "VEC3"
    },
    {
      "bufferView": 3,
      "byteOffset": 32240,
      "componentType": 5126,
      "count": 24,
      "max": [
        1.0,
        0.0,
        0.0,
        1.0
      ],
      "min": [
        -1.0,
        -1.0,
        -1.0,
        1.0
      ],
      "type": "VEC4"
    },
    {
      "bufferView": 1,
      "byteOffset": 48360,
      "componentType": 5126,
      "count": 24,
      "max": [
        0.9931585192680359,
        0.9956623911857605
      ],
      "min": [
        0.5034884214401245,
        0.12144241482019424
      ],
      "type": "VEC2"
    },
    {
      "bufferView": 1,
      "byteOffset": 48552,
      "componentType": 5126,
      "count": 24,
      "max": [
        0.9931585192680359,
        0.9956623911857605
      ],
      "min": [
        0.5034884214401245,
        0.12144241482019424
      ],
      "type": "VEC2"
    },
    {
      "bufferView": 1,
      "byteOffset": 48744,
      "componentType": 5126,
      "count": 24,
      "max": [
        0.9931585192680359,
        0.9956623911857605
      ],
      "min": [
        0.5034884214401245,
        0.12144241482019424
      ],
      "type": "VEC2"
    },
    {
      "bufferView": 0,
      "byteOffset": 17952,
      "componentType": 5125,
      "count": 36,
      "type": "SCALAR"
    },
    {
      "bufferView": 2,
      "byteOffset": 48936,
      "componentType": 5126,
      "count": 4,
      "max": [
        3.3748819828033447,
        3.3748819828033447,
        0.0
      ],
      "min": [
        -3.3748819828033447,
        -3.3748819828033447,
        0.0
      ],
      "type": "VEC3"
    },
    {
      "bufferView": 2,
      "byteOffset": 48984,
      "componentType": 5126,
      "count": 4,
      "max": [
        0.0,
        0.0,
        1.0
      ],
      "min": [
        0.0,
        0.0,
        1.0
      ],
      "type": "VEC3"
    },
    {
      "bufferView": 3,
      "byteOffset": 32624,
      "componentType": 5126,
      "count": 4,
      "max": [
        1.0230581182213427e-07,
        1.0,
        0.0,
        1.0
      ],
      "min": [
        -1.2125559578635148e-07,
        1.0,
        0.0,
        1.0
      ],
      "type": "VEC4"
    },
    {
      "bufferView": 1,
      "byteOffset": 48936,
      "componentType": 5126,
      "count": 4,
      "max": [
        0.29276034235954285,
        0.29276031255722046
      ],
      "min": [
        0.0014540405245497823,
        0.0014540405245497823
      ],
      "type": "VEC2"
    },
    {
      "bufferView": 1,
      "byteOffset": 48968,
      "componentType": 5126,
      "count": 4,
      "max": [
        0.29276034235954285,
        0.29276031255722046
      ],
      "min": [
        0.0014540405245497823,
        0.0014540405245497823
      ],
      "type": "VEC2"
    },
    {
      "bufferView": 1,
      "byteOffset": 49000,
      "componentType": 5126,
      "count": 4,
      "max": [
        0.29276034235954285,
        0.29276031255722046
      ],
      "min": [
        0.0014540405245497823,
        0.0014540405245497823
      ],
      "type": "VEC2"
    },
    {
      "bufferView": 0,
      "byteOffset": 18096,
      "componentType": 5125,
      "count": 6,
      "type": "SCALAR"
    }
  ],
  "asset": {
    "extras": {
      "author": "mehmetalikeve (https://sketchfab.com/mehmetalikeve)",
      "license": "SKETCHFAB Standard (https://sketchfab.com/licenses)",
      "source": "https://sketchfab.com/3d-models/stylized-desert-house-411c3a0fd7c74d7482665d4209a0014b",
      "title": "stylized desert house"
    },
    "generator": "Sketchfab-16.0.0",
    "version": "2.0"
  },
  "bufferViews": [
    {
      "buffer": 0,
      "byteLength": 18120,
      "name": "floatBufferViews",
      "target": 34963
    },
    {
      "buffer": 0,
      "byteLength": 49032,
      "byteOffset": 18120,
      "byteStride": 8,
      "name": "floatBufferViews",
      "target": 34962
    },
    {
      "buffer": 0,
      "byteLength": 49032,
      "byteOffset": 67152,
      "byteStride": 12,
      "name": "floatBufferViews",
      "target": 34962
    },
    {
      "buffer": 0,
      "byteLength": 32688,
      "byteOffset": 116184,
      "byteStride": 16,
      "name": "floatBufferViews",
      "target": 34962
    }
  ],
  "buffers": [
    {
      "byteLength": 148872,
      "uri": "scene.bin"
    }
  ],
  "images": [
    {
      "uri": "textures/Material_baseColor.png"
    },
    {
      "uri": "textures/Material_metallicRoughness.png"
    },
    {
      "uri": "textures/Material_normal.png"
    }
  ],
  "materials": [
    {
      "alphaMode": "BLEND",
      "doubleSided": true,
      "name": "Material",
      "normalTexture": {
        "index": 2,
        "texCoord": 1
      },
      "pbrMetallicRoughness": {
        "baseColorTexture": {
          "index": 0
        },
        "metallicRoughnessTexture": {
          "index": 1
        }
      }
    }
  ],
  "meshes": [
    {
      "name": "Cube_Material_0",
      "primitives": [
        {
          "attributes": {
            "NORMAL": 1,
            "POSITION": 0,
            "TANGENT": 2,
            "TEXCOORD_0": 3,
            "TEXCOORD_1": 4,
            "TEXCOORD_2": 5
          },
          "indices": 6,
          "material": 0,
          "mode": 4
        }
      ]
    },
    {
      "name": "Cube.001_Material_0",
      "primitives": [
        {
          "attributes": {
            "NORMAL": 8,
            "POSITION": 7,
            "TANGENT": 9,
            "TEXCOORD_0": 10,
            "TEXCOORD_1": 11,
            "TEXCOORD_2": 12
          },
          "indices": 13,
          "material": 0,
          "mode": 4
        }
      ]
    },
    {
      "name": "Cube.005_Material_0",
      "primitives": [
        {
          "attributes": {
            "NORMAL": 15,
            "POSITION": 14,
            "TANGENT": 16,
            "TEXCOORD_0": 17,
            "TEXCOORD_1": 18,
            "TEXCOORD_2": 19
          },
          "indices": 20,
          "material": 0,
          "mode": 4
        }
      ]
    },
    {
      "name": "Cube.007_Material_0",
      "primitives": [
        {
          "attributes": {
            "NORMAL": 22,
            "POSITION": 21,
            "TANGENT": 23,
            "TEXCOORD_0": 24,
            "TEXCOORD_1": 25,
            "TEXCOORD_2": 26
          },
          "indices": 27,
          "material": 0,
          "mode": 4
        }
      ]
    },
    {
      "name": "Cube.008_Material_0",
      "primitives": [
        {
          "attributes": {
            "NORMAL": 29,
            "POSITION": 28,
            "TANGENT": 30,
            "TEXCOORD_0": 31,
            "TEXCOORD_1": 32,
            "TEXCOORD_2": 33
          },
          "indices": 34,
          "material": 0,
          "mode": 4
        }
      ]
    },
    {
      "name": "Cube.020_Material_0",
      "primitives": [
        {
          "attributes": {
            "NORMAL": 36,
            "POSITION": 35,
            "TANGENT": 37,
            "TEXCOORD_0": 38,
            "TEXCOORD_1": 39,
            "TEXCOORD_2": 40
          },
          "indices": 41,
          "material": 0,
          "mode": 4
        }
      ]
    },
    {
      "name": "NurbsPath_Material_0",
      "primitives": [
        {
          "attributes": {
            "NORMAL": 43,
            "POSITION": 42,
            "TANGENT": 44,
            "TEXCOORD_0": 45,
            "TEXCOORD_1": 46,
            "TEXCOORD_2": 47
          },
          "indices": 48,
          "material": 0,
          "mode": 4
        }
      ]
    },
    {
      "name": "Vert_Material_0",
      "primitives": [
        {
          "attributes": {
            "NORMAL": 50,
            "POSITION": 49,
            "TANGENT": 51,
            "TEXCOORD_0": 52,
            "TEXCOORD_1": 53,
            "TEXCOORD_2": 54
          },
          "indices": 55,
          "material": 0,
          "mode": 4
        }
      ]
    },
    {
      "name": "Cube.010_Material_0",
      "primitives": [
        {
          "attributes": {
            "NORMAL": 57,
            "POSITION": 56,
            "TANGENT": 58,
            "TEXCOORD_0": 59,
            "TEXCOORD_1": 60,
            "TEXCOORD_2": 61
          },
          "indices": 62,
          "material": 0,
          "mode": 4
        }
      ]
    },
    {
      "name": "Cube.002_Material_0",
      "primitives": [
        {
          "attributes": {
            "NORMAL": 64,
            "POSITION": 63,
            "TANGENT": 65,
            "TEXCOORD_0": 66,
            "TEXCOORD_1": 67,
            "TEXCOORD_2": 68
          },
          "indices": 69,
          "material": 0,
          "mode": 4
        }
      ]
    },
    {
      "name": "Cube.003_Material_0",
      "primitives": [
        {
          "attributes": {
            "NORMAL": 71,
            "POSITION": 70,
            "TANGENT": 72,
            "TEXCOORD_0": 73,
            "TEXCOORD_1": 74,
            "TEXCOORD_2": 75
          },
          "indices": 76,
          "material": 0,
          "mode": 4
        }
      ]
    },
    {
      "name": "Cube.004_Material_0",
      "primitives": [
        {
          "attributes": {
            "NORMAL": 78,
            "POSITION": 77,
            "TANGENT": 79,
            "TEXCOORD_0": 80,
            "TEXCOORD_1": 81,
            "TEXCOORD_2": 82
          },
          "indices": 83,
          "material": 0,
          "mode": 4
        }
      ]
    },
    {
      "name": "Cube.011_Material_0",
      "primitives": [
        {
          "attributes": {
            "NORMAL": 85,
            "POSITION": 84,
            "TANGENT": 86,
            "TEXCOORD_0": 87,
            "TEXCOORD_1": 88,
            "TEXCOORD_2": 89
          },
          "indices": 90,
          "material": 0,
          "mode": 4
        }
      ]
    },
    {
      "name": "Cube.006_Material_0",
      "primitives": [
        {
          "attributes": {
            "NORMAL": 92,
            "POSITION": 91,
            "TANGENT": 93,
            "TEXCOORD_0": 94,
            "TEXCOORD_1": 95,
            "TEXCOORD_2": 96
          },
          "indices": 97,
          "material": 0,
          "mode": 4
        }
      ]
    },
    {
      "name": "Plane_Material_0",
      "primitives": [
        {
          "attributes": {
            "NORMAL": 99,
            "POSITION": 98,
            "TANGENT": 100,
            "TEXCOORD_0": 101,
            "TEXCOORD_1": 102,
            "TEXCOORD_2": 103
          },
          "indices": 104,
          "material": 0,
          "mode": 4
        }
      ]
    }
  ],
  "nodes": [
    {
      "children": [
        1
      ],
      "matrix": [
        1.0,
        0.0,
        0.0,
        0.0,
        0.0,
        2.220446049250313e-16,
        -1.0,
        0.0,
        0.0,
        1.0,
        2.220446049250313e-16,
        0.0,
        0.0,
        0.0,
        0.0,
        1.0
      ],
      "name": "Sketchfab_model"
    },
    {
      "children": [
        2
      ],
      "matrix": [
        0.009999999776482582,
        0.0,
        0.0,
        0.0,
        0.0,
        0.0,
        0.009999999776482582,
        0.0,
        0.0,
        -0.009999999776482582,
        0.0,
        0.0,
        0.0,
        0.0,
        0.0,
        1.0
      ],
      "name": "e0bbe67f7b7f4526954ddbee91e6582f.fbx"
    },
    {
      "children": [
        3,
        5,
        7,
        9,
        11,
        13,
        15,
        17,
        19,
        21,
        23,
        25,
        27,
        29,
        31
      ],
      "name": "RootNode"
    },
    {
      "children": [
        4
      ],
      "matrix": [
        100.0,
        0.0,
        0.0,
        0.0,
        -0.0,
        -2.8212996916465727e-05,
        -99.99999999999602,
        0.0,
        0.0,
        99.99999999999602,
        -2.8212996916465727e-05,
        0.0,
        -30.510622024536133,
        49.904808044433594,
        11.809459686279297,
        1.0
      ],
      "name": "Cube"
    },
    {
      "mesh": 0,
      "name": "Cube_Material_0"
    },
    {
      "children": [
        6
      ],
      "matrix": [
        100.0,
        0.0,
        0.0,
        0.0,
        0.0,
        -2.8212996916465727e-05,
        -99.99999999999602,
        0.0,
        0.0,
        99.99999999999602,
        -2.8212996916465727e-05,
        0.0,
        65.71027374267578,
        139.52012634277344,
        51.0513916015625,
        1.0
      ],
      "name": "Cube.001"
    },
    {
      "mesh": 1,
      "name": "Cube.001_Material_0"
    },
    {
      "children": [
        8
      ],
      "matrix": [
        100.0,
        0.0,
        0.0,
        0.0,
        0.0,
        -2.8212996916465727e-05,
        -99.99999999999602,
        0.0,
        0.0,
        99.99999999999602,
        -2.8212996916465727e-05,
        0.0,
        18.110803604125977,
        36.104923248291016,
        44.33968734741211,
        1.0
      ],
      "name": "Cube.005"
    },
    {
      "mesh": 2,
      "name": "Cube.005_Material_0"
    },
    {
      "children": [
        10
      ],
      "matrix": [
        100.0,
        0.0,
        0.0,
        0.0,
        -0.0,
        -2.8212996916465727e-05,
        -99.99999999999602,
        0.0,
        0.0,
        99.99999999999602,
        -2.8212996916465727e-05,
        0.0,
        -70.0942153930664,
        114.4197006225586,
        24.943252563476563,
        1.0
      ],
      "name": "Cube.007"
    },
    {
      "mesh": 3,
      "name": "Cube.007_Material_0"
    },
    {
      "children": [
        12
      ],
      "matrix": [
        100.0,
        0.0,
        0.0,
        0.0,
        0.0,
        -2.8212996916465727e-05,
        -99.99999999999602,
        0.0,
        0.0,
        99.99999999999602,
        -2.8212996916465727e-05,
        0.0,
        6.904387474060059,
        114.4197006225586,
        24.943252563476563,
        1.0
      ],
      "name": "Cube.008"
    },
    {
      "mesh": 4,
      "name": "Cube.008_Material_0"
    },
    {
      "children": [
        14
      ],
      "matrix": [
        100.0,
        0.0,
        0.0,
        0.0,
        0.0,
        -2.8212996916465727e-05,
        -99.99999999999602,
        0.0,
        0.0,
        99.99999999999602,
        -2.8212996916465727e-05,
        0.0,
        17.215953826904297,
        167.63967895507813,
        60.101844787597656,
        1.0
      ],
      "name": "Cube.020"
    },
    {
      "mesh": 5,
      "name": "Cube.020_Material_0"
    },
    {
      "children": [
        16
      ],
      "matrix": [
        100.0,
        0.0,
        0.0,
        0.0,
        0.0,
        -2.8212996916465727e-05,
        -99.99999999999602,
        0.0,
        0.0,
        99.99999999999602,
        -2.8212996916465727e-05,
        0.0,
        121.4690933227539,
        27.32253074645996,
        -5.556066513061523,
        1.0
      ],
      "name": "NurbsPath"
    },
    {
      "mesh": 6,
      "name": "NurbsPath_Material_0"
    },
    {
      "children": [
        18
      ],
      "matrix": [
        100.0,
        0.0,
        0.0,
        0.0,
        -0.0,
        -2.8212996916465727e-05,
        -99.99999999999602,
        0.0,
        0.0,
        99.99999999999602,
        -2.8212996916465727e-05,
        0.0,
        -2.701460838317871,
        186.83799743652344,
        -46.021270751953125,
        1.0
      ],
      "name": "Vert"
    },
    {
      "mesh": 7,
      "name": "Vert_Material_0"
    },
    {
      "children": [
        20
      ],
      "matrix": [
        100.0,
        0.0,
        0.0,
        0.0,
        -0.0,
        -2.8212996916465727e-05,
        -99.99999999999602,
        0.0,
        0.0,
        99.99999999999602,
        -2.8212996916465727e-05,
        0.0,
        -21.17544937133789,
        -54.75714874267578,
        1.9402742385864258,
        1.0
      ],
      "name": "Cube.010"
    },
    {
      "mesh": 8,
      "name": "Cube.010_Material_0"
    },
    {
      "children": [
        22
      ],
      "matrix": [
        100.0,
        0.0,
        0.0,
        0.0,
        0.0,
        -2.8212996916465727e-05,
        -99.99999999999602,
        0.0,
        0.0,
        99.99999999999602,
        -2.8212996916465727e-05,
        0.0,
        21.643409729003906,
        46.24022674560547,
        24.9432430267334,
        1.0
      ],
      "name": "Cube.002"
    },
    {
      "mesh": 9,
      "name": "Cube.002_Material_0"
    },
    {
      "children": [
        24
      ],
      "matrix": [
        100.0,
        0.0,
        0.0,
        0.0,
        0.0,
        -2.8212996916465727e-05,
        -99.99999999999602,
        0.0,
        0.0,
        99.99999999999602,
        -2.8212996916465727e-05,
        0.0,
        98.60823822021484,
        46.24022674560547,
        24.9432430267334,
        1.0
      ],
      "name": "Cube.003"
    },
    {
      "mesh": 10,
      "name": "Cube.003_Material_0"
    },
    {
      "children": [
        26
      ],
      "matrix": [
        100.0,
        0.0,
        0.0,
        0.0,
        0.0,
        -2.8212996916465727e-05,
        -99.99999999999602,
        0.0,
        0.0,
        99.99999999999602,
        -2.8212996916465727e-05,
        0.0,
        18.110803604125977,
        36.104923248291016,
        104.73603057861328,
        1.0
      ],
      "name": "Cube.004"
    },
    {
      "mesh": 11,
      "name": "Cube.004_Material_0"
    },
    {
      "children": [
        28
      ],
      "matrix": [
        100.0,
        0.0,
        0.0,
        0.0,
        0.0,
        -2.8212996916465727e-05,
        -99.99999999999602,
        0.0,
        0.0,
        99.99999999999602,
        -2.8212996916465727e-05,
        0.0,
        18.110803604125977,
        36.104923248291016,
        -70.25434875488281,
        1.0
      ],
      "name": "Cube.011"
    },
    {
      "mesh": 12,
      "name": "Cube.011_Material_0"
    },
    {
      "children": [
        30
      ],
      "matrix": [
        100.0,
        0.0,
        0.0,
        0.0,
        -0.0,
        -2.8212996916465727e-05,
        -99.99999999999602,
        0.0,
        0.0,
        99.99999999999602,
        -2.8212996916465727e-05,
        0.0,
        -42.47506332397461,
        183.93975830078125,
        -46.68093490600586,
        1.0
      ],
      "name": "Cube.006"
    },
    {
      "mesh": 13,
      "name": "Cube.006_Material_0"
    },
    {
      "children": [
        32
      ],
      "matrix": [
        100.0,
        0.0,
        0.0,
        0.0,
        0.0,
        -2.8212996916465727e-05,
        -99.99999999999602,
        0.0,
        0.0,
        99.99999999999602,
        -2.8212996916465727e-05,
        0.0,
        2.24308443069458,
        -99.9996566772461,
        23.456985473632813,
        1.0
      ],
      "name": "Plane"
    },
    {
      "mesh": 14,
      "name": "Plane_Material_0"
    }
  ],
  "samplers": [
    {
      "magFilter": 9729,
      "minFilter": 9987,
      "wrapS": 10497,
      "wrapT": 10497
    }
  ],
  "scene": 0,
  "scenes": [
    {
      "name": "Sketchfab_Scene",
      "nodes": [
        0
      ]
    }
  ],
  "textures": [
    {
      "sampler": 0,
      "source": 0
    },
    {
      "sampler": 0,
      "source": 1
    },
    {
      "sampler": 0,
      "source": 2
    }
  ]
}
