{
	"asset":{
		"generator":"Khronos glTF Blender I/O v5.0.21",
		"version":"2.0"
	},
	"extensionsUsed":[
		"KHR_materials_specular",
		"KHR_materials_ior",
		"KHR_materials_unlit"
	],
	"scene":0,
	"scenes":[
		{
			"name":"Scene",
			"nodes":[
				27,
				28,
				29,
				30,
				31,
				32,
				33
			]
		}
	],
	"nodes":[
		{
			"mesh":0,
			"name":"Al-Wasat Waterfall 01",
			"scale":[
				1.007790207862854,
				0.7343323230743408,
				0.2983700633049011
			],
			"translation":[
				0.029684938490390778,
				0.13918495178222656,
				-0.2550731301307678
			]
		},
		{
			"mesh":1,
			"name":"Ground waterfall 01",
			"scale":[
				1.007790207862854,
				0.7343323230743408,
				0.2983700633049011
			],
			"translation":[
				0.02968454360961914,
				-0.7985324859619141,
				0.6219721436500549
			]
		},
		{
			"mesh":2,
			"name":"Lower waterfall 01",
			"scale":[
				0.21592728793621063,
				0.1399712860584259,
				0.056872397661209106
			],
			"translation":[
				-1.2626897096633911,
				-0.4111042022705078,
				0.26814961433410645
			]
		},
		{
			"mesh":3,
			"name":"Overhead waterfall 01",
			"scale":[
				0.21592728793621063,
				0.1399712860584259,
				0.056872397661209106
			],
			"translation":[
				-1.2626900672912598,
				0.5550289154052734,
				-0.501248836517334
			]
		},
		{
			"mesh":4,
			"name":"Rocks 01",
			"rotation":[
				-0.7193590998649597,
				-0.2868345081806183,
				-0.14640145003795624,
				0.6154796481132507
			],
			"scale":[
				-0.007973067462444305,
				-0.006814501713961363,
				-0.00715998001396656
			],
			"translation":[
				1.028201937675476,
				-0.3885231018066406,
				0.31003236770629883
			]
		},
		{
			"mesh":5,
			"name":"Rocks 02",
			"rotation":[
				0,
				-0.7009918093681335,
				0,
				0.7131693363189697
			],
			"scale":[
				-0.0037845540791749954,
				-0.005037912167608738,
				-0.006335597950965166
			],
			"translation":[
				-0.7809551954269409,
				0.2872352600097656,
				-0.36365628242492676
			]
		},
		{
			"mesh":6,
			"name":"Rocks 03",
			"rotation":[
				-0.7193590998649597,
				-0.2868345081806183,
				-0.14640145003795624,
				0.6154796481132507
			],
			"scale":[
				-0.007973067462444305,
				-0.006814501713961363,
				-0.00715998001396656
			],
			"translation":[
				-0.9188446402549744,
				-0.6507167816162109,
				0.385728657245636
			]
		},
		{
			"mesh":7,
			"name":"Rocks 04",
			"rotation":[
				0.021862056106328964,
				-0.1934552937746048,
				-0.7801013588905334,
				0.5945914387702942
			],
			"scale":[
				-0.0058684884570539,
				-0.004750523716211319,
				-0.003223999170586467
			],
			"translation":[
				1.1605720520019531,
				0.7754287719726562,
				-0.7607674598693848
			]
		},
		{
			"mesh":8,
			"name":"Rocks 06",
			"rotation":[
				-0.6311121582984924,
				0.4303136169910431,
				0.39150482416152954,
				0.5130807161331177
			],
			"scale":[
				-0.001156092039309442,
				-0.0017613229574635625,
				-0.0014382500667124987
			],
			"translation":[
				-0.999641478061676,
				-0.1546344757080078,
				-0.029136881232261658
			]
		},
		{
			"mesh":9,
			"name":"Rocks 07",
			"rotation":[
				-0.8791782259941101,
				-0.2190442532300949,
				-0.06099376827478409,
				0.4187423586845398
			],
			"scale":[
				-0.0017237934516742826,
				-0.0013410622486844659,
				-0.0013181270333006978
			],
			"translation":[
				-0.8747612237930298,
				-0.09605026245117188,
				0.08066350221633911
			]
		},
		{
			"mesh":10,
			"name":"Rocks 08",
			"rotation":[
				0.5670594573020935,
				0.26816999912261963,
				-0.6530309319496155,
				0.42435720562934875
			],
			"scale":[
				-0.0011116404784843326,
				-0.0017077093943953514,
				-0.0015347165754064918
			],
			"translation":[
				-0.9289197325706482,
				-0.0061054229736328125,
				0.20992855727672577
			]
		},
		{
			"mesh":11,
			"name":"Rocks 09",
			"rotation":[
				-0.7143007516860962,
				-0.22100740671157837,
				-0.3075771629810333,
				0.5884950757026672
			],
			"scale":[
				-0.0015102096367627382,
				-0.0014474074123427272,
				-0.001460017403587699
			],
			"translation":[
				-0.9226239919662476,
				0.1409454345703125,
				0.107563316822052
			]
		},
		{
			"mesh":12,
			"name":"Rocks 10",
			"rotation":[
				-0.18011464178562164,
				0.0950535386800766,
				0.9790310859680176,
				0.004653923213481903
			],
			"scale":[
				-0.0017452511237934232,
				-0.002744510071352124,
				-0.0012086513452231884
			],
			"translation":[
				-0.9189035296440125,
				-0.2764549255371094,
				0.31517213582992554
			]
		},
		{
			"mesh":13,
			"name":"Rocks 11",
			"rotation":[
				0.09774478524923325,
				-0.7633853554725647,
				-0.6361457109451294,
				0.05484026297926903
			],
			"scale":[
				-0.003266949439421296,
				-0.004033589735627174,
				-0.004369428381323814
			],
			"translation":[
				-0.8831208944320679,
				0.9359321594238281,
				-0.7794156074523926
			]
		},
		{
			"mesh":14,
			"name":"Rocks 12",
			"rotation":[
				-0.5020076036453247,
				-0.4711418151855469,
				-0.4757690131664276,
				0.5474098920822144
			],
			"scale":[
				-0.0032266234047710896,
				-0.005350548308342695,
				-0.004265333525836468
			],
			"translation":[
				1.1321392059326172,
				0.14813995361328125,
				-0.4740263819694519
			]
		},
		{
			"mesh":15,
			"name":"Rocks 13",
			"rotation":[
				-0.39177095890045166,
				-0.7913543581962585,
				-0.19932417571544647,
				0.4249042570590973
			],
			"scale":[
				-0.002978104166686535,
				-0.0038521443493664265,
				-0.0034063714556396008
			],
			"translation":[
				-0.9199485182762146,
				-0.0211181640625,
				0.10872149467468262
			]
		},
		{
			"mesh":16,
			"name":"Rocks 14",
			"rotation":[
				0.12457820028066635,
				0.05647025629878044,
				-0.02387068420648575,
				0.9903139472007751
			],
			"scale":[
				-0.004846022464334965,
				-0.0038240598514676094,
				-0.0029945392161607742
			],
			"translation":[
				-0.9930486083030701,
				0.19396400451660156,
				-0.09926989674568176
			]
		},
		{
			"mesh":17,
			"name":"Rocks 15",
			"rotation":[
				0.12457820028066635,
				0.05647025629878044,
				-0.02387068420648575,
				0.9903139472007751
			],
			"scale":[
				-0.004846022464334965,
				-0.0038240598514676094,
				-0.0029945392161607742
			],
			"translation":[
				1.0613672733306885,
				-0.5714340209960938,
				0.6891143321990967
			]
		},
		{
			"mesh":18,
			"name":"Rocks 16",
			"rotation":[
				-0.5600370764732361,
				-0.6315125823020935,
				-0.35650137066841125,
				0.4005711078643799
			],
			"scale":[
				-0.0026725132483989,
				-0.004213341046124697,
				-0.0032275242265313864
			],
			"translation":[
				-0.9259310960769653,
				0.29607200622558594,
				-0.4897511601448059
			]
		},
		{
			"mesh":19,
			"name":"Rocks 17",
			"rotation":[
				-0.6163370013237,
				-0.6163541674613953,
				-0.28247344493865967,
				0.400555819272995
			],
			"scale":[
				-0.002811696380376816,
				-0.004153077490627766,
				-0.0031871290411800146
			],
			"translation":[
				1.1268161535263062,
				-0.5145206451416016,
				0.6310932040214539
			]
		},
		{
			"mesh":20,
			"name":"Rocks 18",
			"rotation":[
				-0.5246476531028748,
				0.6657049059867859,
				-0.4068104922771454,
				0.340715616941452
			],
			"scale":[
				-0.012897736392915249,
				-0.005086337216198444,
				-0.009629124775528908
			],
			"translation":[
				-1.1754080057144165,
				0.8290386199951172,
				-1.053892970085144
			]
		},
		{
			"mesh":21,
			"name":"Water foam 01",
			"rotation":[
				0.00016324328316841274,
				0.09794007986783981,
				0.001373176695778966,
				0.9951914548873901
			],
			"scale":[
				0.08818808197975159,
				0.0802701935172081,
				0.03411206603050232
			],
			"translation":[
				-0.6522241830825806,
				0.10053062438964844,
				0.05546863377094269
			]
		},
		{
			"mesh":22,
			"name":"Water foam 02",
			"rotation":[
				0.0007678549736738205,
				0.1376049667596817,
				-0.016740232706069946,
				0.9903454184532166
			],
			"scale":[
				0.12213649600744247,
				0.09310510009527206,
				0.04526927322149277
			],
			"translation":[
				-0.8060227632522583,
				-0.7649574279785156,
				0.2990230917930603
			]
		},
		{
			"mesh":23,
			"name":"Water foam 03",
			"rotation":[
				0.0007678553811274469,
				0.13760481774806976,
				-0.016740232706069946,
				0.9903454780578613
			],
			"scale":[
				0.11709441244602203,
				0.09310180693864822,
				0.045167382806539536
			],
			"translation":[
				-0.8094998598098755,
				-0.8649253845214844,
				0.3200926184654236
			]
		},
		{
			"mesh":24,
			"name":"Waterfall waves 05",
			"rotation":[
				0.6926840543746948,
				0.03599002957344055,
				-0.04464596509933472,
				0.7189578413963318
			],
			"scale":[
				0.07880660146474838,
				0.032593075186014175,
				0.07923076301813126
			],
			"translation":[
				0.7161823511123657,
				0.18134117126464844,
				0.05206456035375595
			]
		},
		{
			"mesh":25,
			"name":"Waterfall waves 06",
			"rotation":[
				-0.6260191202163696,
				-0.43337374925613403,
				-0.397796630859375,
				0.5119034051895142
			],
			"scale":[
				-0.0026764071080833673,
				-0.004113819915801287,
				-0.00335034541785717
			],
			"translation":[
				1.1243816614151,
				-0.05496025085449219,
				0.01766292005777359
			]
		},
		{
			"mesh":26,
			"name":"Waterfall waves 07",
			"rotation":[
				0.3954451084136963,
				-0.1713426262140274,
				0.4180787205696106,
				0.7996718287467957
			],
			"scale":[
				0.05042993649840355,
				0.08032622933387756,
				0.08082675188779831
			],
			"translation":[
				0.8601669073104858,
				0.07708168029785156,
				0.10991878062486649
			]
		},
		{
			"children":[
				0,
				1,
				2,
				3,
				4,
				5,
				6,
				7,
				8,
				9,
				10,
				11,
				12,
				13,
				14,
				15,
				16,
				17,
				18,
				19,
				20,
				21,
				22,
				23,
				24,
				25,
				26
			],
			"name":"Empty",
			"rotation":[
				0,
				0.7017357349395752,
				0,
				0.7124373912811279
			],
			"scale":[
				4.646570682525635,
				2.709869146347046,
				7.780853748321533
			],
			"translation":[
				37.74131774902344,
				53.140193939208984,
				64.67542266845703
			]
		},
		{
			"mesh":27,
			"name":"PP_Grass_15",
			"rotation":[
				0.36107778549194336,
				-0.6079662442207336,
				0.6079661846160889,
				0.36107778549194336
			],
			"scale":[
				0.02548796497285366,
				0.02548796497285366,
				0.02548796497285366
			],
			"translation":[
				40.259822845458984,
				53.07074737548828,
				69.12161254882812
			]
		},
		{
			"mesh":28,
			"name":"PP_Grass_11",
			"rotation":[
				0.7071068286895752,
				0,
				0,
				0.7071068286895752
			],
			"scale":[
				0.42772889137268066,
				0.42772889137268066,
				0.42772889137268066
			],
			"translation":[
				41.50933837890625,
				51.737937927246094,
				70.06529235839844
			]
		},
		{
			"mesh":29,
			"name":"PP_Grass_15.002",
			"rotation":[
				0.08372104167938232,
				0.702133059501648,
				-0.7021329998970032,
				0.08372104912996292
			],
			"scale":[
				0.42772895097732544,
				0.42772895097732544,
				0.42772889137268066
			],
			"translation":[
				41.50933837890625,
				51.737937927246094,
				70.06529235839844
			]
		},
		{
			"mesh":30,
			"name":"PP_Grass_15.001",
			"rotation":[
				0.36107778549194336,
				-0.6079662442207336,
				0.6079661846160889,
				0.36107778549194336
			],
			"scale":[
				0.02548796497285366,
				0.02548796497285366,
				0.02548796497285366
			],
			"translation":[
				37.31555938720703,
				54.037906646728516,
				60.242271423339844
			]
		},
		{
			"mesh":31,
			"name":"Waterfall Plateaus 01",
			"rotation":[
				0,
				0.02165914885699749,
				0,
				0.9997654557228088
			],
			"scale":[
				0.670987606048584,
				0.25744783878326416,
				0.31940075755119324
			],
			"translation":[
				33.72355651855469,
				51.75373077392578,
				73.01388549804688
			]
		},
		{
			"mesh":32,
			"name":"Waterfall Plateaus 02",
			"rotation":[
				-0.1782025247812271,
				0,
				-0.9839938282966614,
				0
			],
			"scale":[
				-0.25744786858558655,
				-0.25744783878326416,
				-0.25744786858558655
			],
			"translation":[
				33.821964263916016,
				51.298465728759766,
				56.53996658325195
			]
		}
	],
	"materials":[
		{
			"doubleSided":true,
			"extensions":{
				"KHR_materials_specular":{
					"specularColorFactor":[
						2.0,
						2.0,
						2.0
					]
				},
				"KHR_materials_ior":{
					"ior":1.4500000476837158
				}
			},
			"name":"Material.023",
			"pbrMetallicRoughness":{
				"metallicFactor":0,
				"roughnessFactor":0
			}
		},
		{
			"doubleSided":true,
			"extensions":{
				"KHR_materials_specular":{
					"specularColorFactor":[
						2.0,
						2.0,
						2.0
					]
				},
				"KHR_materials_ior":{
					"ior":1.4500000476837158
				}
			},
			"name":"Material.024",
			"pbrMetallicRoughness":{
				"metallicFactor":0,
				"roughnessFactor":0
			}
		},
		{
			"doubleSided":true,
			"extensions":{
				"KHR_materials_unlit":{}
			},
			"name":"waterfall.002",
			"pbrMetallicRoughness":{
				"metallicFactor":0,
				"roughnessFactor":0.9
			}
		},
		{
			"doubleSided":true,
			"name":"RocksStylized_M.008",
			"pbrMetallicRoughness":{
				"baseColorTexture":{
					"index":0
				},
				"metallicFactor":0,
				"roughnessFactor":0.5
			}
		},
		{
			"doubleSided":true,
			"name":"RocksStylized_M.005",
			"pbrMetallicRoughness":{
				"baseColorTexture":{
					"index":1
				},
				"metallicFactor":0,
				"roughnessFactor":0.5
			}
		},
		{
			"doubleSided":true,
			"name":"RocksStylized_M.007",
			"pbrMetallicRoughness":{
				"baseColorTexture":{
					"index":2
				},
				"metallicFactor":0,
				"roughnessFactor":0.5
			}
		},
		{
			"doubleSided":true,
			"name":"RocksStylized_M",
			"pbrMetallicRoughness":{
				"baseColorTexture":{
					"index":3
				},
				"metallicFactor":0,
				"roughnessFactor":0.5
			}
		},
		{
			"doubleSided":true,
			"name":"RocksStylized_M.004",
			"pbrMetallicRoughness":{
				"baseColorTexture":{
					"index":4
				},
				"metallicFactor":0,
				"roughnessFactor":0.5
			}
		},
		{
			"doubleSided":true,
			"name":"RocksStylized_M.006",
			"pbrMetallicRoughness":{
				"baseColorTexture":{
					"index":5
				},
				"metallicFactor":0,
				"roughnessFactor":0.5
			}
		},
		{
			"doubleSided":true,
			"name":"RocksStylized_M.001",
			"pbrMetallicRoughness":{
				"baseColorTexture":{
					"index":6
				},
				"metallicFactor":0,
				"roughnessFactor":0.5
			}
		},
		{
			"doubleSided":true,
			"extensions":{
				"KHR_materials_unlit":{}
			},
			"name":"topfoam",
			"pbrMetallicRoughness":{
				"metallicFactor":0,
				"roughnessFactor":0.9
			}
		},
		{
			"doubleSided":true,
			"extensions":{
				"KHR_materials_unlit":{}
			},
			"name":"bottomfoam",
			"pbrMetallicRoughness":{
				"metallicFactor":0,
				"roughnessFactor":0.9
			}
		},
		{
			"alphaMode":"BLEND",
			"doubleSided":true,
			"extensions":{
				"KHR_materials_unlit":{}
			},
			"name":"bubble",
			"pbrMetallicRoughness":{
				"baseColorFactor":[
					1.2999999523162842,
					1.2999999523162842,
					1.2999999523162842,
					1
				],
				"metallicFactor":0,
				"roughnessFactor":0.9
			}
		},
		{
			"doubleSided":true,
			"name":"RocksStylized_M.002",
			"pbrMetallicRoughness":{
				"baseColorTexture":{
					"index":7
				},
				"metallicFactor":0,
				"roughnessFactor":0.5
			}
		},
		{
			"doubleSided":true,
			"name":"PP_Standard_Material.022",
			"pbrMetallicRoughness":{
				"metallicFactor":0,
				"roughnessFactor":0.5527864098548889
			}
		},
		{
			"doubleSided":true,
			"extensions":{
				"KHR_materials_specular":{
					"specularFactor":0
				}
			},
			"name":"medievalfantasyforest_unwrap",
			"pbrMetallicRoughness":{
				"baseColorFactor":[
					0.7193887233734131,
					0.5647287368774414,
					0.417880654335022,
					1
				],
				"metallicFactor":0,
				"roughnessFactor":0.5
			}
		},
		{
			"doubleSided":true,
			"name":"GROUND.001",
			"pbrMetallicRoughness":{
				"baseColorTexture":{
					"index":8
				},
				"metallicFactor":0,
				"roughnessFactor":0.5
			}
		}
	],
	"meshes":[
		{
			"name":"Plane.010",
			"primitives":[
				{
					"attributes":{
						"POSITION":0,
						"NORMAL":1,
						"TEXCOORD_0":2
					},
					"indices":3,
					"material":0
				}
			]
		},
		{
			"name":"Plane.016",
			"primitives":[
				{
					"attributes":{
						"POSITION":4,
						"NORMAL":5,
						"TEXCOORD_0":6
					},
					"indices":3,
					"material":1
				}
			]
		},
		{
			"name":"Plane.014",
			"primitives":[
				{
					"attributes":{
						"POSITION":7,
						"NORMAL":8,
						"TEXCOORD_0":9
					},
					"indices":10,
					"material":2
				}
			]
		},
		{
			"name":"Plane.031",
			"primitives":[
				{
					"attributes":{
						"POSITION":11,
						"NORMAL":12,
						"TEXCOORD_0":13
					},
					"indices":14,
					"material":2
				}
			]
		},
		{
			"name":"Mesh.023",
			"primitives":[
				{
					"attributes":{
						"POSITION":15,
						"NORMAL":16,
						"TEXCOORD_0":17
					},
					"indices":18,
					"material":3
				}
			]
		},
		{
			"name":"Mesh.012",
			"primitives":[
				{
					"attributes":{
						"POSITION":19,
						"NORMAL":20,
						"TEXCOORD_0":21
					},
					"indices":18,
					"material":4
				}
			]
		},
		{
			"name":"Mesh.024",
			"primitives":[
				{
					"attributes":{
						"POSITION":22,
						"NORMAL":23,
						"TEXCOORD_0":24
					},
					"indices":18,
					"material":3
				}
			]
		},
		{
			"name":"Mesh.022",
			"primitives":[
				{
					"attributes":{
						"POSITION":25,
						"NORMAL":26,
						"TEXCOORD_0":27
					},
					"indices":28,
					"material":5
				}
			]
		},
		{
			"name":"Mesh.005",
			"primitives":[
				{
					"attributes":{
						"POSITION":29,
						"NORMAL":30,
						"TEXCOORD_0":31
					},
					"indices":32,
					"material":6
				}
			]
		},
		{
			"name":"Mesh.010",
			"primitives":[
				{
					"attributes":{
						"POSITION":33,
						"NORMAL":34,
						"TEXCOORD_0":35
					},
					"indices":32,
					"material":6
				}
			]
		},
		{
			"name":"Mesh.011",
			"primitives":[
				{
					"attributes":{
						"POSITION":36,
						"NORMAL":37,
						"TEXCOORD_0":38
					},
					"indices":32,
					"material":6
				}
			]
		},
		{
			"name":"Mesh.013",
			"primitives":[
				{
					"attributes":{
						"POSITION":39,
						"NORMAL":40,
						"TEXCOORD_0":41
					},
					"indices":32,
					"material":6
				}
			]
		},
		{
			"name":"Mesh.016",
			"primitives":[
				{
					"attributes":{
						"POSITION":42,
						"NORMAL":43,
						"TEXCOORD_0":44
					},
					"indices":32,
					"material":6
				}
			]
		},
		{
			"name":"Mesh.017",
			"primitives":[
				{
					"attributes":{
						"POSITION":45,
						"NORMAL":46,
						"TEXCOORD_0":47
					},
					"indices":32,
					"material":6
				}
			]
		},
		{
			"name":"Mesh.018",
			"primitives":[
				{
					"attributes":{
						"POSITION":48,
						"NORMAL":49,
						"TEXCOORD_0":50
					},
					"indices":51,
					"material":6
				}
			]
		},
		{
			"name":"Mesh.007",
			"primitives":[
				{
					"attributes":{
						"POSITION":52,
						"NORMAL":53,
						"TEXCOORD_0":54
					},
					"indices":55,
					"material":7
				}
			]
		},
		{
			"name":"Mesh.009",
			"primitives":[
				{
					"attributes":{
						"POSITION":56,
						"NORMAL":57,
						"TEXCOORD_0":58
					},
					"indices":55,
					"material":7
				}
			]
		},
		{
			"name":"Mesh.025",
			"primitives":[
				{
					"attributes":{
						"POSITION":59,
						"NORMAL":60,
						"TEXCOORD_0":61
					},
					"indices":55,
					"material":7
				}
			]
		},
		{
			"name":"Mesh.019",
			"primitives":[
				{
					"attributes":{
						"POSITION":62,
						"NORMAL":63,
						"TEXCOORD_0":64
					},
					"indices":65,
					"material":8
				}
			]
		},
		{
			"name":"Mesh.026",
			"primitives":[
				{
					"attributes":{
						"POSITION":66,
						"NORMAL":67,
						"TEXCOORD_0":68
					},
					"indices":65,
					"material":8
				}
			]
		},
		{
			"name":"Mesh.020",
			"primitives":[
				{
					"attributes":{
						"POSITION":69,
						"NORMAL":70,
						"TEXCOORD_0":71
					},
					"indices":65,
					"material":9
				}
			]
		},
		{
			"name":"NurbsPath.001",
			"primitives":[
				{
					"attributes":{
						"POSITION":72,
						"NORMAL":73,
						"TEXCOORD_0":74
					},
					"indices":75,
					"material":10
				}
			]
		},
		{
			"name":"NurbsPath",
			"primitives":[
				{
					"attributes":{
						"POSITION":76,
						"NORMAL":77,
						"TEXCOORD_0":78
					},
					"indices":79,
					"material":11
				}
			]
		},
		{
			"name":"NurbsPath.002",
			"primitives":[
				{
					"attributes":{
						"POSITION":80,
						"NORMAL":81,
						"TEXCOORD_0":82
					},
					"indices":79,
					"material":11
				}
			]
		},
		{
			"name":"Plane.047",
			"primitives":[
				{
					"attributes":{
						"POSITION":83,
						"NORMAL":84,
						"TEXCOORD_0":85
					},
					"indices":86,
					"material":12
				}
			]
		},
		{
			"name":"Mesh.014",
			"primitives":[
				{
					"attributes":{
						"POSITION":87,
						"NORMAL":88,
						"TEXCOORD_0":89,
						"COLOR_0":90,
						"COLOR_1":91
					},
					"indices":92,
					"material":13
				}
			]
		},
		{
			"name":"Plane.043",
			"primitives":[
				{
					"attributes":{
						"POSITION":93,
						"NORMAL":94,
						"TEXCOORD_0":95
					},
					"indices":86,
					"material":12
				}
			]
		},
		{
			"name":"Scene.1808",
			"primitives":[
				{
					"attributes":{
						"POSITION":96,
						"NORMAL":97,
						"TEXCOORD_0":98
					},
					"indices":99,
					"material":14
				}
			]
		},
		{
			"name":"Scene.1815",
			"primitives":[
				{
					"attributes":{
						"POSITION":100,
						"NORMAL":101,
						"TEXCOORD_0":102
					},
					"indices":103,
					"material":14
				}
			]
		},
		{
			"name":"Scene.002",
			"primitives":[
				{
					"attributes":{
						"POSITION":104,
						"NORMAL":105,
						"TEXCOORD_0":106
					},
					"indices":107,
					"material":14
				}
			]
		},
		{
			"name":"Scene.003",
			"primitives":[
				{
					"attributes":{
						"POSITION":108,
						"NORMAL":109,
						"TEXCOORD_0":110
					},
					"indices":99,
					"material":14
				}
			]
		},
		{
			"name":"mff_island_large",
			"primitives":[
				{
					"attributes":{
						"POSITION":111,
						"NORMAL":112,
						"TEXCOORD_0":113,
						"TEXCOORD_1":114
					},
					"indices":115,
					"material":15
				},
				{
					"attributes":{
						"POSITION":116,
						"NORMAL":117,
						"TEXCOORD_0":118,
						"TEXCOORD_1":119
					},
					"indices":120,
					"material":16
				}
			]
		},
		{
			"name":"mff_island_large.001",
			"primitives":[
				{
					"attributes":{
						"POSITION":121,
						"NORMAL":122,
						"TEXCOORD_0":123,
						"TEXCOORD_1":124
					},
					"indices":115,
					"material":15
				},
				{
					"attributes":{
						"POSITION":125,
						"NORMAL":126,
						"TEXCOORD_0":127,
						"TEXCOORD_1":128
					},
					"indices":120,
					"material":16
				}
			]
		}
	],
	"textures":[
		{
			"sampler":0,
			"source":0
		},
		{
			"sampler":0,
			"source":0
		},
		{
			"sampler":0,
			"source":0
		},
		{
			"sampler":0,
			"source":0
		},
		{
			"sampler":0,
			"source":0
		},
		{
			"sampler":0,
			"source":0
		},
		{
			"sampler":0,
			"source":0
		},
		{
			"sampler":0,
			"source":0
		},
		{
			"sampler":0,
			"source":1
		}
	],
	"images":[
		{
			"mimeType":"image/png",
			"name":"Rocks_Stylized_Color",
			"uri":"Rocks_Stylized_Color.png"
		},
		{
			"mimeType":"image/jpeg",
			"name":"\u0627\u0644\u0627\u0631\u0636\u064a\u0629",
			"uri":"%D8%A7%D9%84%D8%A7%D8%B1%D8%B6%D9%8A%D8%A9.jpg"
		}
	],
	"accessors":[
		{
			"bufferView":0,
			"componentType":5126,
			"count":4,
			"max":[
				1,
				0,
				1
			],
			"min":[
				-1,
				0,
				-1
			],
			"type":"VEC3"
		},
		{
			"bufferView":1,
			"componentType":5126,
			"count":4,
			"type":"VEC3"
		},
		{
			"bufferView":2,
			"componentType":5126,
			"count":4,
			"type":"VEC2"
		},
		{
			"bufferView":3,
			"componentType":5123,
			"count":6,
			"type":"SCALAR"
		},
		{
			"bufferView":4,
			"componentType":5126,
			"count":4,
			"max":[
				1.0330408811569214,
				0,
				5.403183460235596
			],
			"min":[
				-1,
				0,
				-1
			],
			"type":"VEC3"
		},
		{
			"bufferView":5,
			"componentType":5126,
			"count":4,
			"type":"VEC3"
		},
		{
			"bufferView":6,
			"componentType":5126,
			"count":4,
			"type":"VEC2"
		},
		{
			"bufferView":7,
			"componentType":5126,
			"count":20,
			"max":[
				10.809793472290039,
				3.870391607284546,
				0.7309715747833252
			],
			"min":[
				1.5048131942749023,
				-3.1886582374572754,
				-4.29863977432251
			],
			"type":"VEC3"
		},
		{
			"bufferView":8,
			"componentType":5126,
			"count":20,
			"type":"VEC3"
		},
		{
			"bufferView":9,
			"componentType":5126,
			"count":20,
			"type":"VEC2"
		},
		{
			"bufferView":10,
			"componentType":5123,
			"count":54,
			"type":"SCALAR"
		},
		{
			"bufferView":11,
			"componentType":5126,
			"count":22,
			"max":[
				10.809793472290039,
				3.579038381576538,
				0.7309715747833252
			],
			"min":[
				1.3345316648483276,
				-16.311824798583984,
				-38.51155090332031
			],
			"type":"VEC3"
		},
		{
			"bufferView":12,
			"componentType":5126,
			"count":22,
			"type":"VEC3"
		},
		{
			"bufferView":13,
			"componentType":5126,
			"count":22,
			"type":"VEC2"
		},
		{
			"bufferView":14,
			"componentType":5123,
			"count":60,
			"type":"SCALAR"
		},
		{
			"bufferView":15,
			"componentType":5126,
			"count":140,
			"max":[
				29.391813278198242,
				32.73360061645508,
				0
			],
			"min":[
				-32.35074234008789,
				-33.28824996948242,
				-55.856727600097656
			],
			"type":"VEC3"
		},
		{
			"bufferView":16,
			"componentType":5126,
			"count":140,
			"type":"VEC3"
		},
		{
			"bufferView":17,
			"componentType":5126,
			"count":140,
			"type":"VEC2"
		},
		{
			"bufferView":18,
			"componentType":5123,
			"count":618,
			"type":"SCALAR"
		},
		{
			"bufferView":19,
			"componentType":5126,
			"count":140,
			"max":[
				29.391813278198242,
				32.73360061645508,
				0
			],
			"min":[
				-32.35074234008789,
				-33.28824996948242,
				-55.856727600097656
			],
			"type":"VEC3"
		},
		{
			"bufferView":20,
			"componentType":5126,
			"count":140,
			"type":"VEC3"
		},
		{
			"bufferView":21,
			"componentType":5126,
			"count":140,
			"type":"VEC2"
		},
		{
			"bufferView":22,
			"componentType":5126,
			"count":140,
			"max":[
				29.391813278198242,
				32.73360061645508,
				0
			],
			"min":[
				-32.35074234008789,
				-33.28824996948242,
				-55.856727600097656
			],
			"type":"VEC3"
		},
		{
			"bufferView":23,
			"componentType":5126,
			"count":140,
			"type":"VEC3"
		},
		{
			"bufferView":24,
			"componentType":5126,
			"count":140,
			"type":"VEC2"
		},
		{
			"bufferView":25,
			"componentType":5126,
			"count":860,
			"max":[
				109.20487976074219,
				80.41949462890625,
				0
			],
			"min":[
				-109.20487976074219,
				-80.41949462890625,
				-88.78302001953125
			],
			"type":"VEC3"
		},
		{
			"bufferView":26,
			"componentType":5126,
			"count":860,
			"type":"VEC3"
		},
		{
			"bufferView":27,
			"componentType":5126,
			"count":860,
			"type":"VEC2"
		},
		{
			"bufferView":28,
			"componentType":5123,
			"count":4314,
			"type":"SCALAR"
		},
		{
			"bufferView":29,
			"componentType":5126,
			"count":426,
			"max":[
				87.53236389160156,
				109.42366027832031,
				76.44937896728516
			],
			"min":[
				-102.46006774902344,
				-74.17796325683594,
				-99.18840789794922
			],
			"type":"VEC3"
		},
		{
			"bufferView":30,
			"componentType":5126,
			"count":426,
			"type":"VEC3"
		},
		{
			"bufferView":31,
			"componentType":5126,
			"count":426,
			"type":"VEC2"
		},
		{
			"bufferView":32,
			"componentType":5123,
			"count":1800,
			"type":"SCALAR"
		},
		{
			"bufferView":33,
			"componentType":5126,
			"count":426,
			"max":[
				87.53236389160156,
				109.42366027832031,
				76.44937896728516
			],
			"min":[
				-102.46006774902344,
				-74.17796325683594,
				-99.18840789794922
			],
			"type":"VEC3"
		},
		{
			"bufferView":34,
			"componentType":5126,
			"count":426,
			"type":"VEC3"
		},
		{
			"bufferView":35,
			"componentType":5126,
			"count":426,
			"type":"VEC2"
		},
		{
			"bufferView":36,
			"componentType":5126,
			"count":426,
			"max":[
				87.53236389160156,
				109.42366027832031,
				76.44937896728516
			],
			"min":[
				-102.46006774902344,
				-74.17796325683594,
				-99.18840789794922
			],
			"type":"VEC3"
		},
		{
			"bufferView":37,
			"componentType":5126,
			"count":426,
			"type":"VEC3"
		},
		{
			"bufferView":38,
			"componentType":5126,
			"count":426,
			"type":"VEC2"
		},
		{
			"bufferView":39,
			"componentType":5126,
			"count":426,
			"max":[
				87.53236389160156,
				109.42366027832031,
				76.44937896728516
			],
			"min":[
				-102.46006774902344,
				-74.17796325683594,
				-99.18840789794922
			],
			"type":"VEC3"
		},
		{
			"bufferView":40,
			"componentType":5126,
			"count":426,
			"type":"VEC3"
		},
		{
			"bufferView":41,
			"componentType":5126,
			"count":426,
			"type":"VEC2"
		},
		{
			"bufferView":42,
			"componentType":5126,
			"count":426,
			"max":[
				87.53236389160156,
				109.42366027832031,
				76.44937896728516
			],
			"min":[
				-102.46006774902344,
				-74.17796325683594,
				-99.18840789794922
			],
			"type":"VEC3"
		},
		{
			"bufferView":43,
			"componentType":5126,
			"count":426,
			"type":"VEC3"
		},
		{
			"bufferView":44,
			"componentType":5126,
			"count":426,
			"type":"VEC2"
		},
		{
			"bufferView":45,
			"componentType":5126,
			"count":426,
			"max":[
				87.53236389160156,
				109.42366027832031,
				76.44937896728516
			],
			"min":[
				-102.46006774902344,
				-74.17796325683594,
				-99.18840789794922
			],
			"type":"VEC3"
		},
		{
			"bufferView":46,
			"componentType":5126,
			"count":426,
			"type":"VEC3"
		},
		{
			"bufferView":47,
			"componentType":5126,
			"count":426,
			"type":"VEC2"
		},
		{
			"bufferView":48,
			"componentType":5126,
			"count":426,
			"max":[
				87.53236389160156,
				84.41764831542969,
				70.32617950439453
			],
			"min":[
				-102.46006774902344,
				-74.17796325683594,
				-99.18840789794922
			],
			"type":"VEC3"
		},
		{
			"bufferView":49,
			"componentType":5126,
			"count":426,
			"type":"VEC3"
		},
		{
			"bufferView":50,
			"componentType":5126,
			"count":426,
			"type":"VEC2"
		},
		{
			"bufferView":51,
			"componentType":5123,
			"count":1800,
			"type":"SCALAR"
		},
		{
			"bufferView":52,
			"componentType":5126,
			"count":243,
			"max":[
				36.190895080566406,
				46.60576629638672,
				66.5971450805664
			],
			"min":[
				-53.552085876464844,
				-43.66839599609375,
				-47.86790466308594
			],
			"type":"VEC3"
		},
		{
			"bufferView":53,
			"componentType":5126,
			"count":243,
			"type":"VEC3"
		},
		{
			"bufferView":54,
			"componentType":5126,
			"count":243,
			"type":"VEC2"
		},
		{
			"bufferView":55,
			"componentType":5123,
			"count":948,
			"type":"SCALAR"
		},
		{
			"bufferView":56,
			"componentType":5126,
			"count":243,
			"max":[
				36.190895080566406,
				46.60576629638672,
				66.5971450805664
			],
			"min":[
				-53.552085876464844,
				-43.66839599609375,
				-47.86790466308594
			],
			"type":"VEC3"
		},
		{
			"bufferView":57,
			"componentType":5126,
			"count":243,
			"type":"VEC3"
		},
		{
			"bufferView":58,
			"componentType":5126,
			"count":243,
			"type":"VEC2"
		},
		{
			"bufferView":59,
			"componentType":5126,
			"count":243,
			"max":[
				36.190895080566406,
				46.60576629638672,
				66.5971450805664
			],
			"min":[
				-53.552085876464844,
				-43.66839599609375,
				-47.86790466308594
			],
			"type":"VEC3"
		},
		{
			"bufferView":60,
			"componentType":5126,
			"count":243,
			"type":"VEC3"
		},
		{
			"bufferView":61,
			"componentType":5126,
			"count":243,
			"type":"VEC2"
		},
		{
			"bufferView":62,
			"componentType":5126,
			"count":65,
			"max":[
				43.950748443603516,
				37.20321273803711,
				0
			],
			"min":[
				-43.950748443603516,
				-37.20321273803711,
				-159.49526977539062
			],
			"type":"VEC3"
		},
		{
			"bufferView":63,
			"componentType":5126,
			"count":65,
			"type":"VEC3"
		},
		{
			"bufferView":64,
			"componentType":5126,
			"count":65,
			"type":"VEC2"
		},
		{
			"bufferView":65,
			"componentType":5123,
			"count":204,
			"type":"SCALAR"
		},
		{
			"bufferView":66,
			"componentType":5126,
			"count":65,
			"max":[
				43.950748443603516,
				37.20321273803711,
				0
			],
			"min":[
				-43.950748443603516,
				-37.20321273803711,
				-159.49526977539062
			],
			"type":"VEC3"
		},
		{
			"bufferView":67,
			"componentType":5126,
			"count":65,
			"type":"VEC3"
		},
		{
			"bufferView":68,
			"componentType":5126,
			"count":65,
			"type":"VEC2"
		},
		{
			"bufferView":69,
			"componentType":5126,
			"count":65,
			"max":[
				43.950748443603516,
				37.20321273803711,
				0
			],
			"min":[
				-43.950748443603516,
				-37.20321273803711,
				-159.49526977539062
			],
			"type":"VEC3"
		},
		{
			"bufferView":70,
			"componentType":5126,
			"count":65,
			"type":"VEC3"
		},
		{
			"bufferView":71,
			"componentType":5126,
			"count":65,
			"type":"VEC2"
		},
		{
			"bufferView":72,
			"componentType":5126,
			"count":1404,
			"max":[
				17.889755249023438,
				2.844918966293335,
				3.883305311203003
			],
			"min":[
				-3.3084754943847656,
				-0.576977550983429,
				-1.2833986282348633
			],
			"type":"VEC3"
		},
		{
			"bufferView":73,
			"componentType":5126,
			"count":1404,
			"type":"VEC3"
		},
		{
			"bufferView":74,
			"componentType":5126,
			"count":1404,
			"type":"VEC2"
		},
		{
			"bufferView":75,
			"componentType":5123,
			"count":7704,
			"type":"SCALAR"
		},
		{
			"bufferView":76,
			"componentType":5126,
			"count":1443,
			"max":[
				16.574792861938477,
				3.7031302452087402,
				5.6673903465271
			],
			"min":[
				-1.3757137060165405,
				-0.7680185437202454,
				-0.12677472829818726
			],
			"type":"VEC3"
		},
		{
			"bufferView":77,
			"componentType":5126,
			"count":1443,
			"type":"VEC3"
		},
		{
			"bufferView":78,
			"componentType":5126,
			"count":1443,
			"type":"VEC2"
		},
		{
			"bufferView":79,
			"componentType":5123,
			"count":7920,
			"type":"SCALAR"
		},
		{
			"bufferView":80,
			"componentType":5126,
			"count":1443,
			"max":[
				16.681900024414062,
				2.6344563961029053,
				7.090799331665039
			],
			"min":[
				-1.4162707328796387,
				-0.7445226907730103,
				-0.418306827545166
			],
			"type":"VEC3"
		},
		{
			"bufferView":81,
			"componentType":5126,
			"count":1443,
			"type":"VEC3"
		},
		{
			"bufferView":82,
			"componentType":5126,
			"count":1443,
			"type":"VEC2"
		},
		{
			"bufferView":83,
			"componentType":5126,
			"count":4,
			"max":[
				2.2453880310058594,
				0,
				2.2453877925872803
			],
			"min":[
				-2.2453880310058594,
				0,
				-2.2453877925872803
			],
			"type":"VEC3"
		},
		{
			"bufferView":84,
			"componentType":5126,
			"count":4,
			"type":"VEC3"
		},
		{
			"bufferView":85,
			"componentType":5126,
			"count":4,
			"type":"VEC2"
		},
		{
			"bufferView":86,
			"componentType":5123,
			"count":6,
			"type":"SCALAR"
		},
		{
			"bufferView":87,
			"componentType":5126,
			"count":426,
			"max":[
				94.99877166748047,
				75.2757568359375,
				9.89716911315918
			],
			"min":[
				-98.34500885009766,
				-79.29780578613281,
				-169.51458740234375
			],
			"type":"VEC3"
		},
		{
			"bufferView":88,
			"componentType":5126,
			"count":426,
			"type":"VEC3"
		},
		{
			"bufferView":89,
			"componentType":5126,
			"count":426,
			"type":"VEC2"
		},
		{
			"bufferView":90,
			"componentType":5121,
			"count":426,
			"normalized":true,
			"type":"VEC4"
		},
		{
			"bufferView":91,
			"componentType":5123,
			"count":426,
			"normalized":true,
			"type":"VEC4"
		},
		{
			"bufferView":92,
			"componentType":5123,
			"count":1800,
			"type":"SCALAR"
		},
		{
			"bufferView":93,
			"componentType":5126,
			"count":4,
			"max":[
				2.2453880310058594,
				0,
				2.2453877925872803
			],
			"min":[
				-2.2453880310058594,
				0,
				-2.2453877925872803
			],
			"type":"VEC3"
		},
		{
			"bufferView":94,
			"componentType":5126,
			"count":4,
			"type":"VEC3"
		},
		{
			"bufferView":95,
			"componentType":5126,
			"count":4,
			"type":"VEC2"
		},
		{
			"bufferView":96,
			"componentType":5126,
			"count":2048,
			"max":[
				21.533889770507812,
				16.20854377746582,
				24.192319869995117
			],
			"min":[
				-22.075672149658203,
				-25.8372745513916,
				-24.4874210357666
			],
			"type":"VEC3"
		},
		{
			"bufferView":97,
			"componentType":5126,
			"count":2048,
			"type":"VEC3"
		},
		{
			"bufferView":98,
			"componentType":5126,
			"count":2048,
			"type":"VEC2"
		},
		{
			"bufferView":99,
			"componentType":5123,
			"count":3204,
			"type":"SCALAR"
		},
		{
			"bufferView":100,
			"componentType":5126,
			"count":888,
			"max":[
				1.1190688610076904,
				1.0729870796203613,
				0.8695489168167114
			],
			"min":[
				-0.8956773281097412,
				-1.2480967044830322,
				-1.563218355178833
			],
			"type":"VEC3"
		},
		{
			"bufferView":101,
			"componentType":5126,
			"count":888,
			"type":"VEC3"
		},
		{
			"bufferView":102,
			"componentType":5126,
			"count":888,
			"type":"VEC2"
		},
		{
			"bufferView":103,
			"componentType":5123,
			"count":1320,
			"type":"SCALAR"
		},
		{
			"bufferView":104,
			"componentType":5126,
			"count":1024,
			"max":[
				1.1535258293151855,
				0.6617122888565063,
				1.0383193492889404
			],
			"min":[
				-1.2818330526351929,
				-1.5396190881729126,
				-1.4591825008392334
			],
			"type":"VEC3"
		},
		{
			"bufferView":105,
			"componentType":5126,
			"count":1024,
			"type":"VEC3"
		},
		{
			"bufferView":106,
			"componentType":5126,
			"count":1024,
			"type":"VEC2"
		},
		{
			"bufferView":107,
			"componentType":5123,
			"count":1602,
			"type":"SCALAR"
		},
		{
			"bufferView":108,
			"componentType":5126,
			"count":2048,
			"max":[
				21.533889770507812,
				16.20854377746582,
				24.192319869995117
			],
			"min":[
				-22.075672149658203,
				-25.8372745513916,
				-24.4874210357666
			],
			"type":"VEC3"
		},
		{
			"bufferView":109,
			"componentType":5126,
			"count":2048,
			"type":"VEC3"
		},
		{
			"bufferView":110,
			"componentType":5126,
			"count":2048,
			"type":"VEC2"
		},
		{
			"bufferView":111,
			"componentType":5126,
			"count":726,
			"max":[
				12.238126754760742,
				11.044855117797852,
				14.599259376525879
			],
			"min":[
				-21.10354995727539,
				-0.20385640859603882,
				-16.691238403320312
			],
			"type":"VEC3"
		},
		{
			"bufferView":112,
			"componentType":5126,
			"count":726,
			"type":"VEC3"
		},
		{
			"bufferView":113,
			"componentType":5126,
			"count":726,
			"type":"VEC2"
		},
		{
			"bufferView":114,
			"componentType":5126,
			"count":726,
			"type":"VEC2"
		},
		{
			"bufferView":115,
			"componentType":5123,
			"count":1446,
			"type":"SCALAR"
		},
		{
			"bufferView":116,
			"componentType":5126,
			"count":327,
			"max":[
				11.448979377746582,
				11.650745391845703,
				13.858078002929688
			],
			"min":[
				-20.63610076904297,
				1.9255839586257935,
				-16.177959442138672
			],
			"type":"VEC3"
		},
		{
			"bufferView":117,
			"componentType":5126,
			"count":327,
			"type":"VEC3"
		},
		{
			"bufferView":118,
			"componentType":5126,
			"count":327,
			"type":"VEC2"
		},
		{
			"bufferView":119,
			"componentType":5126,
			"count":327,
			"type":"VEC2"
		},
		{
			"bufferView":120,
			"componentType":5123,
			"count":1302,
			"type":"SCALAR"
		},
		{
			"bufferView":121,
			"componentType":5126,
			"count":726,
			"max":[
				12.238126754760742,
				11.044855117797852,
				14.599259376525879
			],
			"min":[
				-21.10354995727539,
				-0.20385640859603882,
				-16.691238403320312
			],
			"type":"VEC3"
		},
		{
			"bufferView":122,
			"componentType":5126,
			"count":726,
			"type":"VEC3"
		},
		{
			"bufferView":123,
			"componentType":5126,
			"count":726,
			"type":"VEC2"
		},
		{
			"bufferView":124,
			"componentType":5126,
			"count":726,
			"type":"VEC2"
		},
		{
			"bufferView":125,
			"componentType":5126,
			"count":327,
			"max":[
				11.448979377746582,
				11.650745391845703,
				13.858078002929688
			],
			"min":[
				-20.63610076904297,
				1.9255839586257935,
				-16.177959442138672
			],
			"type":"VEC3"
		},
		{
			"bufferView":126,
			"componentType":5126,
			"count":327,
			"type":"VEC3"
		},
		{
			"bufferView":127,
			"componentType":5126,
			"count":327,
			"type":"VEC2"
		},
		{
			"bufferView":128,
			"componentType":5126,
			"count":327,
			"type":"VEC2"
		}
	],
	"bufferViews":[
		{
			"buffer":0,
			"byteLength":48,
			"byteOffset":0,
			"target":34962
		},
		{
			"buffer":0,
			"byteLength":48,
			"byteOffset":48,
			"target":34962
		},
		{
			"buffer":0,
			"byteLength":32,
			"byteOffset":96,
			"target":34962
		},
		{
			"buffer":0,
			"byteLength":12,
			"byteOffset":128,
			"target":34963
		},
		{
			"buffer":0,
			"byteLength":48,
			"byteOffset":140,
			"target":34962
		},
		{
			"buffer":0,
			"byteLength":48,
			"byteOffset":188,
			"target":34962
		},
		{
			"buffer":0,
			"byteLength":32,
			"byteOffset":236,
			"target":34962
		},
		{
			"buffer":0,
			"byteLength":240,
			"byteOffset":268,
			"target":34962
		},
		{
			"buffer":0,
			"byteLength":240,
			"byteOffset":508,
			"target":34962
		},
		{
			"buffer":0,
			"byteLength":160,
			"byteOffset":748,
			"target":34962
		},
		{
			"buffer":0,
			"byteLength":108,
			"byteOffset":908,
			"target":34963
		},
		{
			"buffer":0,
			"byteLength":264,
			"byteOffset":1016,
			"target":34962
		},
		{
			"buffer":0,
			"byteLength":264,
			"byteOffset":1280,
			"target":34962
		},
		{
			"buffer":0,
			"byteLength":176,
			"byteOffset":1544,
			"target":34962
		},
		{
			"buffer":0,
			"byteLength":120,
			"byteOffset":1720,
			"target":34963
		},
		{
			"buffer":0,
			"byteLength":1680,
			"byteOffset":1840,
			"target":34962
		},
		{
			"buffer":0,
			"byteLength":1680,
			"byteOffset":3520,
			"target":34962
		},
		{
			"buffer":0,
			"byteLength":1120,
			"byteOffset":5200,
			"target":34962
		},
		{
			"buffer":0,
			"byteLength":1236,
			"byteOffset":6320,
			"target":34963
		},
		{
			"buffer":0,
			"byteLength":1680,
			"byteOffset":7556,
			"target":34962
		},
		{
			"buffer":0,
			"byteLength":1680,
			"byteOffset":9236,
			"target":34962
		},
		{
			"buffer":0,
			"byteLength":1120,
			"byteOffset":10916,
			"target":34962
		},
		{
			"buffer":0,
			"byteLength":1680,
			"byteOffset":12036,
			"target":34962
		},
		{
			"buffer":0,
			"byteLength":1680,
			"byteOffset":13716,
			"target":34962
		},
		{
			"buffer":0,
			"byteLength":1120,
			"byteOffset":15396,
			"target":34962
		},
		{
			"buffer":0,
			"byteLength":10320,
			"byteOffset":16516,
			"target":34962
		},
		{
			"buffer":0,
			"byteLength":10320,
			"byteOffset":26836,
			"target":34962
		},
		{
			"buffer":0,
			"byteLength":6880,
			"byteOffset":37156,
			"target":34962
		},
		{
			"buffer":0,
			"byteLength":8628,
			"byteOffset":44036,
			"target":34963
		},
		{
			"buffer":0,
			"byteLength":5112,
			"byteOffset":52664,
			"target":34962
		},
		{
			"buffer":0,
			"byteLength":5112,
			"byteOffset":57776,
			"target":34962
		},
		{
			"buffer":0,
			"byteLength":3408,
			"byteOffset":62888,
			"target":34962
		},
		{
			"buffer":0,
			"byteLength":3600,
			"byteOffset":66296,
			"target":34963
		},
		{
			"buffer":0,
			"byteLength":5112,
			"byteOffset":69896,
			"target":34962
		},
		{
			"buffer":0,
			"byteLength":5112,
			"byteOffset":75008,
			"target":34962
		},
		{
			"buffer":0,
			"byteLength":3408,
			"byteOffset":80120,
			"target":34962
		},
		{
			"buffer":0,
			"byteLength":5112,
			"byteOffset":83528,
			"target":34962
		},
		{
			"buffer":0,
			"byteLength":5112,
			"byteOffset":88640,
			"target":34962
		},
		{
			"buffer":0,
			"byteLength":3408,
			"byteOffset":93752,
			"target":34962
		},
		{
			"buffer":0,
			"byteLength":5112,
			"byteOffset":97160,
			"target":34962
		},
		{
			"buffer":0,
			"byteLength":5112,
			"byteOffset":102272,
			"target":34962
		},
		{
			"buffer":0,
			"byteLength":3408,
			"byteOffset":107384,
			"target":34962
		},
		{
			"buffer":0,
			"byteLength":5112,
			"byteOffset":110792,
			"target":34962
		},
		{
			"buffer":0,
			"byteLength":5112,
			"byteOffset":115904,
			"target":34962
		},
		{
			"buffer":0,
			"byteLength":3408,
			"byteOffset":121016,
			"target":34962
		},
		{
			"buffer":0,
			"byteLength":5112,
			"byteOffset":124424,
			"target":34962
		},
		{
			"buffer":0,
			"byteLength":5112,
			"byteOffset":129536,
			"target":34962
		},
		{
			"buffer":0,
			"byteLength":3408,
			"byteOffset":134648,
			"target":34962
		},
		{
			"buffer":0,
			"byteLength":5112,
			"byteOffset":138056,
			"target":34962
		},
		{
			"buffer":0,
			"byteLength":5112,
			"byteOffset":143168,
			"target":34962
		},
		{
			"buffer":0,
			"byteLength":3408,
			"byteOffset":148280,
			"target":34962
		},
		{
			"buffer":0,
			"byteLength":3600,
			"byteOffset":151688,
			"target":34963
		},
		{
			"buffer":0,
			"byteLength":2916,
			"byteOffset":155288,
			"target":34962
		},
		{
			"buffer":0,
			"byteLength":2916,
			"byteOffset":158204,
			"target":34962
		},
		{
			"buffer":0,
			"byteLength":1944,
			"byteOffset":161120,
			"target":34962
		},
		{
			"buffer":0,
			"byteLength":1896,
			"byteOffset":163064,
			"target":34963
		},
		{
			"buffer":0,
			"byteLength":2916,
			"byteOffset":164960,
			"target":34962
		},
		{
			"buffer":0,
			"byteLength":2916,
			"byteOffset":167876,
			"target":34962
		},
		{
			"buffer":0,
			"byteLength":1944,
			"byteOffset":170792,
			"target":34962
		},
		{
			"buffer":0,
			"byteLength":2916,
			"byteOffset":172736,
			"target":34962
		},
		{
			"buffer":0,
			"byteLength":2916,
			"byteOffset":175652,
			"target":34962
		},
		{
			"buffer":0,
			"byteLength":1944,
			"byteOffset":178568,
			"target":34962
		},
		{
			"buffer":0,
			"byteLength":780,
			"byteOffset":180512,
			"target":34962
		},
		{
			"buffer":0,
			"byteLength":780,
			"byteOffset":181292,
			"target":34962
		},
		{
			"buffer":0,
			"byteLength":520,
			"byteOffset":182072,
			"target":34962
		},
		{
			"buffer":0,
			"byteLength":408,
			"byteOffset":182592,
			"target":34963
		},
		{
			"buffer":0,
			"byteLength":780,
			"byteOffset":183000,
			"target":34962
		},
		{
			"buffer":0,
			"byteLength":780,
			"byteOffset":183780,
			"target":34962
		},
		{
			"buffer":0,
			"byteLength":520,
			"byteOffset":184560,
			"target":34962
		},
		{
			"buffer":0,
			"byteLength":780,
			"byteOffset":185080,
			"target":34962
		},
		{
			"buffer":0,
			"byteLength":780,
			"byteOffset":185860,
			"target":34962
		},
		{
			"buffer":0,
			"byteLength":520,
			"byteOffset":186640,
			"target":34962
		},
		{
			"buffer":0,
			"byteLength":16848,
			"byteOffset":187160,
			"target":34962
		},
		{
			"buffer":0,
			"byteLength":16848,
			"byteOffset":204008,
			"target":34962
		},
		{
			"buffer":0,
			"byteLength":11232,
			"byteOffset":220856,
			"target":34962
		},
		{
			"buffer":0,
			"byteLength":15408,
			"byteOffset":232088,
			"target":34963
		},
		{
			"buffer":0,
			"byteLength":17316,
			"byteOffset":247496,
			"target":34962
		},
		{
			"buffer":0,
			"byteLength":17316,
			"byteOffset":264812,
			"target":34962
		},
		{
			"buffer":0,
			"byteLength":11544,
			"byteOffset":282128,
			"target":34962
		},
		{
			"buffer":0,
			"byteLength":15840,
			"byteOffset":293672,
			"target":34963
		},
		{
			"buffer":0,
			"byteLength":17316,
			"byteOffset":309512,
			"target":34962
		},
		{
			"buffer":0,
			"byteLength":17316,
			"byteOffset":326828,
			"target":34962
		},
		{
			"buffer":0,
			"byteLength":11544,
			"byteOffset":344144,
			"target":34962
		},
		{
			"buffer":0,
			"byteLength":48,
			"byteOffset":355688,
			"target":34962
		},
		{
			"buffer":0,
			"byteLength":48,
			"byteOffset":355736,
			"target":34962
		},
		{
			"buffer":0,
			"byteLength":32,
			"byteOffset":355784,
			"target":34962
		},
		{
			"buffer":0,
			"byteLength":12,
			"byteOffset":355816,
			"target":34963
		},
		{
			"buffer":0,
			"byteLength":5112,
			"byteOffset":355828,
			"target":34962
		},
		{
			"buffer":0,
			"byteLength":5112,
			"byteOffset":360940,
			"target":34962
		},
		{
			"buffer":0,
			"byteLength":3408,
			"byteOffset":366052,
			"target":34962
		},
		{
			"buffer":0,
			"byteLength":1704,
			"byteOffset":369460,
			"target":34962
		},
		{
			"buffer":0,
			"byteLength":3408,
			"byteOffset":371164,
			"target":34962
		},
		{
			"buffer":0,
			"byteLength":3600,
			"byteOffset":374572,
			"target":34963
		},
		{
			"buffer":0,
			"byteLength":48,
			"byteOffset":378172,
			"target":34962
		},
		{
			"buffer":0,
			"byteLength":48,
			"byteOffset":378220,
			"target":34962
		},
		{
			"buffer":0,
			"byteLength":32,
			"byteOffset":378268,
			"target":34962
		},
		{
			"buffer":0,
			"byteLength":24576,
			"byteOffset":378300,
			"target":34962
		},
		{
			"buffer":0,
			"byteLength":24576,
			"byteOffset":402876,
			"target":34962
		},
		{
			"buffer":0,
			"byteLength":16384,
			"byteOffset":427452,
			"target":34962
		},
		{
			"buffer":0,
			"byteLength":6408,
			"byteOffset":443836,
			"target":34963
		},
		{
			"buffer":0,
			"byteLength":10656,
			"byteOffset":450244,
			"target":34962
		},
		{
			"buffer":0,
			"byteLength":10656,
			"byteOffset":460900,
			"target":34962
		},
		{
			"buffer":0,
			"byteLength":7104,
			"byteOffset":471556,
			"target":34962
		},
		{
			"buffer":0,
			"byteLength":2640,
			"byteOffset":478660,
			"target":34963
		},
		{
			"buffer":0,
			"byteLength":12288,
			"byteOffset":481300,
			"target":34962
		},
		{
			"buffer":0,
			"byteLength":12288,
			"byteOffset":493588,
			"target":34962
		},
		{
			"buffer":0,
			"byteLength":8192,
			"byteOffset":505876,
			"target":34962
		},
		{
			"buffer":0,
			"byteLength":3204,
			"byteOffset":514068,
			"target":34963
		},
		{
			"buffer":0,
			"byteLength":24576,
			"byteOffset":517272,
			"target":34962
		},
		{
			"buffer":0,
			"byteLength":24576,
			"byteOffset":541848,
			"target":34962
		},
		{
			"buffer":0,
			"byteLength":16384,
			"byteOffset":566424,
			"target":34962
		},
		{
			"buffer":0,
			"byteLength":8712,
			"byteOffset":582808,
			"target":34962
		},
		{
			"buffer":0,
			"byteLength":8712,
			"byteOffset":591520,
			"target":34962
		},
		{
			"buffer":0,
			"byteLength":5808,
			"byteOffset":600232,
			"target":34962
		},
		{
			"buffer":0,
			"byteLength":5808,
			"byteOffset":606040,
			"target":34962
		},
		{
			"buffer":0,
			"byteLength":2892,
			"byteOffset":611848,
			"target":34963
		},
		{
			"buffer":0,
			"byteLength":3924,
			"byteOffset":614740,
			"target":34962
		},
		{
			"buffer":0,
			"byteLength":3924,
			"byteOffset":618664,
			"target":34962
		},
		{
			"buffer":0,
			"byteLength":2616,
			"byteOffset":622588,
			"target":34962
		},
		{
			"buffer":0,
			"byteLength":2616,
			"byteOffset":625204,
			"target":34962
		},
		{
			"buffer":0,
			"byteLength":2604,
			"byteOffset":627820,
			"target":34963
		},
		{
			"buffer":0,
			"byteLength":8712,
			"byteOffset":630424,
			"target":34962
		},
		{
			"buffer":0,
			"byteLength":8712,
			"byteOffset":639136,
			"target":34962
		},
		{
			"buffer":0,
			"byteLength":5808,
			"byteOffset":647848,
			"target":34962
		},
		{
			"buffer":0,
			"byteLength":5808,
			"byteOffset":653656,
			"target":34962
		},
		{
			"buffer":0,
			"byteLength":3924,
			"byteOffset":659464,
			"target":34962
		},
		{
			"buffer":0,
			"byteLength":3924,
			"byteOffset":663388,
			"target":34962
		},
		{
			"buffer":0,
			"byteLength":2616,
			"byteOffset":667312,
			"target":34962
		},
		{
			"buffer":0,
			"byteLength":2616,
			"byteOffset":669928,
			"target":34962
		}
	],
	"samplers":[
		{
			"magFilter":9729,
			"minFilter":9987
		}
	],
	"buffers":[
		{
			"byteLength":672544,
			"uri":"waterfall.bin"
		}
	]
}
