{
	"asset":{
		"generator":"Khronos glTF Blender I/O v5.0.21",
		"version":"2.0"
	},
	"scene":0,
	"scenes":[
		{
			"name":"Scene",
			"nodes":[
				0,
				1,
				2,
				3,
				4,
				5,
				6,
				7,
				8,
				9,
				10,
				11,
				12,
				13,
				14,
				15,
				16,
				17,
				18,
				19,
				20,
				21,
				22,
				23,
				24,
				25
			]
		}
	],
	"nodes":[
		{
			"mesh":0,
			"name":"The farm|Hank 01|Dupli|9.052",
			"translation":[
				-28.85047149658203,
				-0.6287115812301636,
				167.8332977294922
			]
		},
		{
			"mesh":1,
			"name":"The farm|Hank 01|Dupli|9.048",
			"translation":[
				-28.72300148010254,
				1.4778611660003662,
				171.4851531982422
			]
		},
		{
			"mesh":2,
			"name":"The farm|Hank 01|Dupli|9.046",
			"translation":[
				-28.88422393798828,
				1.0168894529342651,
				171.2366943359375
			]
		},
		{
			"mesh":3,
			"name":"The farm|Hank 01|Dupli|9.040",
			"translation":[
				-28.758312225341797,
				0.24164174497127533,
				171.16455078125
			]
		},
		{
			"mesh":4,
			"name":"The farm|Hank 01|Dupli|9.039",
			"translation":[
				-33.34296798706055,
				1.9224696159362793,
				168.65882873535156
			]
		},
		{
			"mesh":5,
			"name":"The farm|Hank 01|Dupli|9.036",
			"translation":[
				-30.49460792541504,
				1.9645861387252808,
				167.65953063964844
			]
		},
		{
			"mesh":6,
			"name":"The farm|Hank 01|Dupli|9.034",
			"translation":[
				-29.42863655090332,
				1.374972939491272,
				166.48907470703125
			]
		},
		{
			"mesh":7,
			"name":"The farm|Hank 01|Dupli|9.030",
			"translation":[
				-28.508390426635742,
				1.864571213722229,
				170.76234436035156
			]
		},
		{
			"mesh":8,
			"name":"The farm|Hank 01|Dupli|9.029",
			"translation":[
				-28.50839614868164,
				1.8352241516113281,
				170.7623748779297
			]
		},
		{
			"mesh":9,
			"name":"The farm|Hank 01|Dupli|9.028",
			"translation":[
				-28.508398056030273,
				1.8939244747161865,
				170.76235961914062
			]
		},
		{
			"mesh":10,
			"name":"The farm|Hank 01|Dupli|9.026",
			"translation":[
				-35.857383728027344,
				1.2230167388916016,
				170.26971435546875
			]
		},
		{
			"mesh":11,
			"name":"The farm|Hank 01|Dupli|9.025",
			"translation":[
				-35.862571716308594,
				-0.13175760209560394,
				170.26663208007812
			]
		},
		{
			"mesh":12,
			"name":"The farm|Hank 01|Dupli|9.024",
			"translation":[
				-35.503692626953125,
				1.2219380140304565,
				173.3267822265625
			]
		},
		{
			"mesh":13,
			"name":"The farm|Hank 01|Dupli|9.023",
			"translation":[
				-35.502662658691406,
				-0.13175760209560394,
				173.32666015625
			]
		},
		{
			"mesh":14,
			"name":"The farm|Hank 01|Dupli|9.022",
			"translation":[
				-33.108421325683594,
				1.3448069095611572,
				171.167236328125
			]
		},
		{
			"mesh":15,
			"name":"The farm|Hank 01|Dupli|9.021",
			"translation":[
				-33.10859298706055,
				-0.5205380320549011,
				171.1658172607422
			]
		},
		{
			"mesh":16,
			"name":"The farm|Hank 01|Dupli|9.019",
			"translation":[
				-36.19613265991211,
				-0.5205342173576355,
				167.22987365722656
			]
		},
		{
			"mesh":17,
			"name":"The farm|Hank 01|Dupli|9.018",
			"translation":[
				-33.65069580078125,
				1.3448069095611572,
				166.98617553710938
			]
		},
		{
			"mesh":18,
			"name":"The farm|Hank 01|Dupli|9.017",
			"translation":[
				-33.65053176879883,
				-0.5205380320549011,
				166.9875946044922
			]
		},
		{
			"mesh":19,
			"name":"The farm|Hank 01|Dupli|9.016",
			"translation":[
				-31.666467666625977,
				1.989214301109314,
				168.72967529296875
			]
		},
		{
			"mesh":20,
			"name":"The farm|Hank 01|Dupli|9.013",
			"translation":[
				-28.720853805541992,
				0.5910857915878296,
				171.51087951660156
			]
		},
		{
			"mesh":21,
			"name":"The farm|Hank 01|Dupli|9.011",
			"translation":[
				-33.35558319091797,
				0.5203840136528015,
				169.33538818359375
			]
		},
		{
			"mesh":22,
			"name":"PP_Grass_15.009",
			"translation":[
				-28.68045425415039,
				-0.6419742107391357,
				166.49411010742188
			]
		},
		{
			"mesh":23,
			"name":" stone 06",
			"translation":[
				-29.327173233032227,
				-0.5852693319320679,
				166.69216918945312
			]
		},
		{
			"mesh":24,
			"name":" stone 05",
			"translation":[
				-28.88153648376465,
				-0.6973261833190918,
				166.3084716796875
			]
		},
		{
			"mesh":25,
			"name":" stone 04",
			"translation":[
				-28.78530502319336,
				-0.7857022881507874,
				166.63211059570312
			]
		}
	],
	"materials":[
		{
			"doubleSided":true,
			"name":"Material.046",
			"normalTexture":{
				"index":0
			},
			"pbrMetallicRoughness":{
				"baseColorTexture":{
					"index":1
				},
				"metallicFactor":0,
				"metallicRoughnessTexture":{
					"index":2
				}
			}
		},
		{
			"doubleSided":true,
			"name":"WOOD.002"
		},
		{
			"doubleSided":true,
			"name":"Material.031",
			"pbrMetallicRoughness":{
				"metallicFactor":0.5927272439002991
			}
		},
		{
			"doubleSided":true,
			"name":"PP_Standard_Material.022",
			"pbrMetallicRoughness":{
				"metallicFactor":0,
				"roughnessFactor":0.5527864098548889
			}
		},
		{
			"doubleSided":true,
			"name":"RocksStylized_M.009",
			"pbrMetallicRoughness":{
				"baseColorTexture":{
					"index":3
				},
				"metallicFactor":0,
				"roughnessFactor":0.5
			}
		}
	],
	"meshes":[
		{
			"name":"Plane.397",
			"primitives":[
				{
					"attributes":{
						"POSITION":0,
						"NORMAL":1,
						"TEXCOORD_0":2,
						"COLOR_0":3,
						"COLOR_1":4
					},
					"indices":5,
					"material":0
				}
			]
		},
		{
			"name":"Plane.393",
			"primitives":[
				{
					"attributes":{
						"POSITION":6,
						"NORMAL":7,
						"TEXCOORD_0":8,
						"COLOR_0":9,
						"COLOR_1":10
					},
					"indices":11,
					"material":1
				}
			]
		},
		{
			"name":"Plane.391",
			"primitives":[
				{
					"attributes":{
						"POSITION":12,
						"NORMAL":13,
						"TEXCOORD_0":14,
						"COLOR_0":15,
						"COLOR_1":16
					},
					"indices":17,
					"material":1
				}
			]
		},
		{
			"name":"Plane.385",
			"primitives":[
				{
					"attributes":{
						"POSITION":18,
						"NORMAL":19,
						"TEXCOORD_0":20,
						"COLOR_0":21,
						"COLOR_1":22
					},
					"indices":23,
					"material":1
				}
			]
		},
		{
			"name":"Plane.384",
			"primitives":[
				{
					"attributes":{
						"POSITION":24,
						"NORMAL":25,
						"TEXCOORD_0":26,
						"COLOR_0":27,
						"COLOR_1":28
					},
					"indices":29,
					"material":1
				}
			]
		},
		{
			"name":"Plane.381",
			"primitives":[
				{
					"attributes":{
						"POSITION":30,
						"NORMAL":31,
						"TEXCOORD_0":32,
						"COLOR_0":33,
						"COLOR_1":34
					},
					"indices":35,
					"material":1
				}
			]
		},
		{
			"name":"Plane.379",
			"primitives":[
				{
					"attributes":{
						"POSITION":36,
						"NORMAL":37,
						"TEXCOORD_0":38,
						"COLOR_0":39,
						"COLOR_1":40
					},
					"indices":41,
					"material":1
				}
			]
		},
		{
			"name":"Plane.376",
			"primitives":[
				{
					"attributes":{
						"POSITION":42,
						"NORMAL":43,
						"TEXCOORD_0":44,
						"COLOR_0":45,
						"COLOR_1":46
					},
					"indices":47,
					"material":1
				}
			]
		},
		{
			"name":"Plane.375",
			"primitives":[
				{
					"attributes":{
						"POSITION":48,
						"NORMAL":49,
						"TEXCOORD_0":50,
						"COLOR_0":51,
						"COLOR_1":52
					},
					"indices":53,
					"material":1
				}
			]
		},
		{
			"name":"Plane.374",
			"primitives":[
				{
					"attributes":{
						"POSITION":54,
						"NORMAL":55,
						"TEXCOORD_0":56,
						"COLOR_0":57,
						"COLOR_1":58
					},
					"indices":59,
					"material":1
				}
			]
		},
		{
			"name":"Plane.372",
			"primitives":[
				{
					"attributes":{
						"POSITION":60,
						"NORMAL":61,
						"TEXCOORD_0":62,
						"COLOR_0":63,
						"COLOR_1":64
					},
					"indices":65,
					"material":1
				}
			]
		},
		{
			"name":"Plane.371",
			"primitives":[
				{
					"attributes":{
						"POSITION":66,
						"NORMAL":67,
						"TEXCOORD_0":68,
						"COLOR_0":69,
						"COLOR_1":70
					},
					"indices":71,
					"material":1
				}
			]
		},
		{
			"name":"Plane.370",
			"primitives":[
				{
					"attributes":{
						"POSITION":72,
						"NORMAL":73,
						"TEXCOORD_0":74,
						"COLOR_0":75,
						"COLOR_1":76
					},
					"indices":77,
					"material":1
				}
			]
		},
		{
			"name":"Plane.369",
			"primitives":[
				{
					"attributes":{
						"POSITION":78,
						"NORMAL":79,
						"TEXCOORD_0":80,
						"COLOR_0":81,
						"COLOR_1":82
					},
					"indices":71,
					"material":1
				}
			]
		},
		{
			"name":"Plane.368",
			"primitives":[
				{
					"attributes":{
						"POSITION":83,
						"NORMAL":84,
						"TEXCOORD_0":85,
						"COLOR_0":86,
						"COLOR_1":87
					},
					"indices":88,
					"material":1
				}
			]
		},
		{
			"name":"Plane.367",
			"primitives":[
				{
					"attributes":{
						"POSITION":89,
						"NORMAL":90,
						"TEXCOORD_0":91,
						"COLOR_0":92,
						"COLOR_1":93
					},
					"indices":94,
					"material":1
				}
			]
		},
		{
			"name":"Plane.365",
			"primitives":[
				{
					"attributes":{
						"POSITION":95,
						"NORMAL":96,
						"TEXCOORD_0":97,
						"COLOR_0":98,
						"COLOR_1":99
					},
					"indices":71,
					"material":2
				}
			]
		},
		{
			"name":"Plane.364",
			"primitives":[
				{
					"attributes":{
						"POSITION":100,
						"NORMAL":101,
						"TEXCOORD_0":102,
						"COLOR_0":103,
						"COLOR_1":104
					},
					"indices":105,
					"material":1
				}
			]
		},
		{
			"name":"Plane.363",
			"primitives":[
				{
					"attributes":{
						"POSITION":106,
						"NORMAL":107,
						"TEXCOORD_0":108,
						"COLOR_0":109,
						"COLOR_1":110
					},
					"indices":111,
					"material":2
				}
			]
		},
		{
			"name":"Plane.362",
			"primitives":[
				{
					"attributes":{
						"POSITION":112,
						"NORMAL":113,
						"TEXCOORD_0":114,
						"COLOR_0":115,
						"COLOR_1":116
					},
					"indices":117,
					"material":2
				}
			]
		},
		{
			"name":"Plane.359",
			"primitives":[
				{
					"attributes":{
						"POSITION":118,
						"NORMAL":119,
						"TEXCOORD_0":120,
						"COLOR_0":121,
						"COLOR_1":122
					},
					"indices":123,
					"material":2
				}
			]
		},
		{
			"name":"Plane.357",
			"primitives":[
				{
					"attributes":{
						"POSITION":124,
						"NORMAL":125,
						"TEXCOORD_0":126,
						"COLOR_0":127,
						"COLOR_1":128
					},
					"indices":129,
					"material":2
				}
			]
		},
		{
			"name":"Scene.010",
			"primitives":[
				{
					"attributes":{
						"POSITION":130,
						"NORMAL":131,
						"TEXCOORD_0":132
					},
					"indices":133,
					"material":3
				}
			]
		},
		{
			"name":"Mesh.028",
			"primitives":[
				{
					"attributes":{
						"POSITION":134,
						"NORMAL":135,
						"TEXCOORD_0":136
					},
					"indices":137,
					"material":4
				}
			]
		},
		{
			"name":"Mesh.027",
			"primitives":[
				{
					"attributes":{
						"POSITION":138,
						"NORMAL":139,
						"TEXCOORD_0":140
					},
					"indices":141,
					"material":4
				}
			]
		},
		{
			"name":"Mesh.029",
			"primitives":[
				{
					"attributes":{
						"POSITION":142,
						"NORMAL":143,
						"TEXCOORD_0":144
					},
					"indices":145,
					"material":4
				}
			]
		}
	],
	"textures":[
		{
			"sampler":0,
			"source":0
		},
		{
			"sampler":0,
			"source":1
		},
		{
			"sampler":0,
			"source":2
		},
		{
			"sampler":0,
			"source":3
		}
	],
	"images":[
		{
			"mimeType":"image/png",
			"name":"logs_nmls",
			"uri":"logs_nmls.png"
		},
		{
			"mimeType":"image/png",
			"name":"logs_dffs",
			"uri":"logs_dffs.png"
		},
		{
			"mimeType":"image/png",
			"name":"logs_AO",
			"uri":"logs_AO.png"
		},
		{
			"mimeType":"image/png",
			"name":"Rocks_Stylized_Color",
			"uri":"Rocks_Stylized_Color.png"
		}
	],
	"accessors":[
		{
			"bufferView":0,
			"componentType":5126,
			"count":1220,
			"max":[
				0.4947691559791565,
				0.41596075892448425,
				0.8654908537864685
			],
			"min":[
				-0.5002515316009521,
				-0.25659897923469543,
				-0.8768782019615173
			],
			"type":"VEC3"
		},
		{
			"bufferView":1,
			"componentType":5126,
			"count":1220,
			"type":"VEC3"
		},
		{
			"bufferView":2,
			"componentType":5126,
			"count":1220,
			"type":"VEC2"
		},
		{
			"bufferView":3,
			"componentType":5121,
			"count":1220,
			"normalized":true,
			"type":"VEC4"
		},
		{
			"bufferView":4,
			"componentType":5123,
			"count":1220,
			"normalized":true,
			"type":"VEC4"
		},
		{
			"bufferView":5,
			"componentType":5123,
			"count":4560,
			"type":"SCALAR"
		},
		{
			"bufferView":6,
			"componentType":5126,
			"count":486,
			"max":[
				0.13082368671894073,
				0.1598665416240692,
				0.8287577629089355
			],
			"min":[
				-0.13168470561504364,
				-0.18584802746772766,
				-0.841820240020752
			],
			"type":"VEC3"
		},
		{
			"bufferView":7,
			"componentType":5126,
			"count":486,
			"type":"VEC3"
		},
		{
			"bufferView":8,
			"componentType":5126,
			"count":486,
			"type":"VEC2"
		},
		{
			"bufferView":9,
			"componentType":5121,
			"count":486,
			"normalized":true,
			"type":"VEC4"
		},
		{
			"bufferView":10,
			"componentType":5123,
			"count":486,
			"normalized":true,
			"type":"VEC4"
		},
		{
			"bufferView":11,
			"componentType":5123,
			"count":2304,
			"type":"SCALAR"
		},
		{
			"bufferView":12,
			"componentType":5126,
			"count":80,
			"max":[
				0.1415032297372818,
				0.6928349137306213,
				1.1577107906341553
			],
			"min":[
				-0.0800086110830307,
				-1.3162630796432495,
				-0.5405924320220947
			],
			"type":"VEC3"
		},
		{
			"bufferView":13,
			"componentType":5126,
			"count":80,
			"type":"VEC3"
		},
		{
			"bufferView":14,
			"componentType":5126,
			"count":80,
			"type":"VEC2"
		},
		{
			"bufferView":15,
			"componentType":5121,
			"count":80,
			"normalized":true,
			"type":"VEC4"
		},
		{
			"bufferView":16,
			"componentType":5123,
			"count":80,
			"normalized":true,
			"type":"VEC4"
		},
		{
			"bufferView":17,
			"componentType":5123,
			"count":258,
			"type":"SCALAR"
		},
		{
			"bufferView":18,
			"componentType":5126,
			"count":3151,
			"max":[
				0.23123152554035187,
				1.4919979572296143,
				1.2010152339935303
			],
			"min":[
				-0.25215545296669006,
				-0.9770638942718506,
				-0.624805748462677
			],
			"type":"VEC3"
		},
		{
			"bufferView":19,
			"componentType":5126,
			"count":3151,
			"type":"VEC3"
		},
		{
			"bufferView":20,
			"componentType":5126,
			"count":3151,
			"type":"VEC2"
		},
		{
			"bufferView":21,
			"componentType":5121,
			"count":3151,
			"normalized":true,
			"type":"VEC4"
		},
		{
			"bufferView":22,
			"componentType":5123,
			"count":3151,
			"normalized":true,
			"type":"VEC4"
		},
		{
			"bufferView":23,
			"componentType":5123,
			"count":15066,
			"type":"SCALAR"
		},
		{
			"bufferView":24,
			"componentType":5126,
			"count":239,
			"max":[
				3.5186610221862793,
				0.15040254592895508,
				3.6056694984436035
			],
			"min":[
				-4.252331256866455,
				-0.5865778923034668,
				-2.7077765464782715
			],
			"type":"VEC3"
		},
		{
			"bufferView":25,
			"componentType":5126,
			"count":239,
			"type":"VEC3"
		},
		{
			"bufferView":26,
			"componentType":5126,
			"count":239,
			"type":"VEC2"
		},
		{
			"bufferView":27,
			"componentType":5121,
			"count":239,
			"normalized":true,
			"type":"VEC4"
		},
		{
			"bufferView":28,
			"componentType":5123,
			"count":239,
			"normalized":true,
			"type":"VEC4"
		},
		{
			"bufferView":29,
			"componentType":5123,
			"count":549,
			"type":"SCALAR"
		},
		{
			"bufferView":30,
			"componentType":5126,
			"count":56,
			"max":[
				1.7384506464004517,
				0.10827747732400894,
				1.6761423349380493
			],
			"min":[
				-1.6555770635604858,
				-0.11222919076681137,
				-1.5122579336166382
			],
			"type":"VEC3"
		},
		{
			"bufferView":31,
			"componentType":5126,
			"count":56,
			"type":"VEC3"
		},
		{
			"bufferView":32,
			"componentType":5126,
			"count":56,
			"type":"VEC2"
		},
		{
			"bufferView":33,
			"componentType":5121,
			"count":56,
			"normalized":true,
			"type":"VEC4"
		},
		{
			"bufferView":34,
			"componentType":5123,
			"count":56,
			"normalized":true,
			"type":"VEC4"
		},
		{
			"bufferView":35,
			"componentType":5123,
			"count":132,
			"type":"SCALAR"
		},
		{
			"bufferView":36,
			"componentType":5126,
			"count":13,
			"max":[
				0.045190539211034775,
				0.022298267111182213,
				0.0314113087952137
			],
			"min":[
				-0.033888135105371475,
				-0.0089193070307374,
				-0.0518253855407238
			],
			"type":"VEC3"
		},
		{
			"bufferView":37,
			"componentType":5126,
			"count":13,
			"type":"VEC3"
		},
		{
			"bufferView":38,
			"componentType":5126,
			"count":13,
			"type":"VEC2"
		},
		{
			"bufferView":39,
			"componentType":5121,
			"count":13,
			"normalized":true,
			"type":"VEC4"
		},
		{
			"bufferView":40,
			"componentType":5123,
			"count":13,
			"normalized":true,
			"type":"VEC4"
		},
		{
			"bufferView":41,
			"componentType":5123,
			"count":21,
			"type":"SCALAR"
		},
		{
			"bufferView":42,
			"componentType":5126,
			"count":550,
			"max":[
				0.001077359658665955,
				0.003127430099993944,
				0.0033808720763772726
			],
			"min":[
				-0.00125342037063092,
				-0.003423358779400587,
				-0.0033940302673727274
			],
			"type":"VEC3"
		},
		{
			"bufferView":43,
			"componentType":5126,
			"count":550,
			"type":"VEC3"
		},
		{
			"bufferView":44,
			"componentType":5126,
			"count":550,
			"type":"VEC2"
		},
		{
			"bufferView":45,
			"componentType":5121,
			"count":550,
			"normalized":true,
			"type":"VEC4"
		},
		{
			"bufferView":46,
			"componentType":5123,
			"count":550,
			"normalized":true,
			"type":"VEC4"
		},
		{
			"bufferView":47,
			"componentType":5123,
			"count":1992,
			"type":"SCALAR"
		},
		{
			"bufferView":48,
			"componentType":5126,
			"count":554,
			"max":[
				0.0010872880229726434,
				0.0029964447021484375,
				0.0033599536400288343
			],
			"min":[
				-0.0012473067035898566,
				-0.0034351348876953125,
				-0.0033691723365336657
			],
			"type":"VEC3"
		},
		{
			"bufferView":49,
			"componentType":5126,
			"count":554,
			"type":"VEC3"
		},
		{
			"bufferView":50,
			"componentType":5126,
			"count":554,
			"type":"VEC2"
		},
		{
			"bufferView":51,
			"componentType":5121,
			"count":554,
			"normalized":true,
			"type":"VEC4"
		},
		{
			"bufferView":52,
			"componentType":5123,
			"count":554,
			"normalized":true,
			"type":"VEC4"
		},
		{
			"bufferView":53,
			"componentType":5123,
			"count":2025,
			"type":"SCALAR"
		},
		{
			"bufferView":54,
			"componentType":5126,
			"count":644,
			"max":[
				0.001073968131095171,
				0.002993824426084757,
				0.0033790364395827055
			],
			"min":[
				-0.001245367806404829,
				-0.003417728003114462,
				-0.0033500895369797945
			],
			"type":"VEC3"
		},
		{
			"bufferView":55,
			"componentType":5126,
			"count":644,
			"type":"VEC3"
		},
		{
			"bufferView":56,
			"componentType":5126,
			"count":644,
			"type":"VEC2"
		},
		{
			"bufferView":57,
			"componentType":5121,
			"count":644,
			"normalized":true,
			"type":"VEC4"
		},
		{
			"bufferView":58,
			"componentType":5123,
			"count":644,
			"normalized":true,
			"type":"VEC4"
		},
		{
			"bufferView":59,
			"componentType":5123,
			"count":2436,
			"type":"SCALAR"
		},
		{
			"bufferView":60,
			"componentType":5126,
			"count":22,
			"max":[
				0.03139432147145271,
				0.015102386474609375,
				0.040220897644758224
			],
			"min":[
				-0.029015222564339638,
				-0.0075511932373046875,
				-0.041901905089616776
			],
			"type":"VEC3"
		},
		{
			"bufferView":61,
			"componentType":5126,
			"count":22,
			"type":"VEC3"
		},
		{
			"bufferView":62,
			"componentType":5126,
			"count":22,
			"type":"VEC2"
		},
		{
			"bufferView":63,
			"componentType":5121,
			"count":22,
			"normalized":true,
			"type":"VEC4"
		},
		{
			"bufferView":64,
			"componentType":5123,
			"count":22,
			"normalized":true,
			"type":"VEC4"
		},
		{
			"bufferView":65,
			"componentType":5123,
			"count":42,
			"type":"SCALAR"
		},
		{
			"bufferView":66,
			"componentType":5126,
			"count":13,
			"max":[
				0.0376194529235363,
				0.016181809827685356,
				0.0327933169901371
			],
			"min":[
				-0.02279009111225605,
				-0.0064727240242064,
				-0.0245949886739254
			],
			"type":"VEC3"
		},
		{
			"bufferView":67,
			"componentType":5126,
			"count":13,
			"type":"VEC3"
		},
		{
			"bufferView":68,
			"componentType":5126,
			"count":13,
			"type":"VEC2"
		},
		{
			"bufferView":69,
			"componentType":5121,
			"count":13,
			"normalized":true,
			"type":"VEC4"
		},
		{
			"bufferView":70,
			"componentType":5123,
			"count":13,
			"normalized":true,
			"type":"VEC4"
		},
		{
			"bufferView":71,
			"componentType":5123,
			"count":21,
			"type":"SCALAR"
		},
		{
			"bufferView":72,
			"componentType":5126,
			"count":13,
			"max":[
				0.0376129150390625,
				0.016181128099560738,
				0.0327933169901371
			],
			"min":[
				-0.022796630859375,
				-0.006472451146692038,
				-0.0245949886739254
			],
			"type":"VEC3"
		},
		{
			"bufferView":73,
			"componentType":5126,
			"count":13,
			"type":"VEC3"
		},
		{
			"bufferView":74,
			"componentType":5126,
			"count":13,
			"type":"VEC2"
		},
		{
			"bufferView":75,
			"componentType":5121,
			"count":13,
			"normalized":true,
			"type":"VEC4"
		},
		{
			"bufferView":76,
			"componentType":5123,
			"count":13,
			"normalized":true,
			"type":"VEC4"
		},
		{
			"bufferView":77,
			"componentType":5123,
			"count":21,
			"type":"SCALAR"
		},
		{
			"bufferView":78,
			"componentType":5126,
			"count":13,
			"max":[
				0.0376194529235363,
				0.016181809827685356,
				0.0327911376953125
			],
			"min":[
				-0.02279009111225605,
				-0.0064727240242064,
				-0.02459716796875
			],
			"type":"VEC3"
		},
		{
			"bufferView":79,
			"componentType":5126,
			"count":13,
			"type":"VEC3"
		},
		{
			"bufferView":80,
			"componentType":5126,
			"count":13,
			"type":"VEC2"
		},
		{
			"bufferView":81,
			"componentType":5121,
			"count":13,
			"normalized":true,
			"type":"VEC4"
		},
		{
			"bufferView":82,
			"componentType":5123,
			"count":13,
			"normalized":true,
			"type":"VEC4"
		},
		{
			"bufferView":83,
			"componentType":5126,
			"count":13,
			"max":[
				0.02956499345600605,
				0.022297587245702744,
				0.03016226552426815
			],
			"min":[
				-0.02153669111430645,
				-0.008919035084545612,
				-0.0525556281208992
			],
			"type":"VEC3"
		},
		{
			"bufferView":84,
			"componentType":5126,
			"count":13,
			"type":"VEC3"
		},
		{
			"bufferView":85,
			"componentType":5126,
			"count":13,
			"type":"VEC2"
		},
		{
			"bufferView":86,
			"componentType":5121,
			"count":13,
			"normalized":true,
			"type":"VEC4"
		},
		{
			"bufferView":87,
			"componentType":5123,
			"count":13,
			"normalized":true,
			"type":"VEC4"
		},
		{
			"bufferView":88,
			"componentType":5123,
			"count":21,
			"type":"SCALAR"
		},
		{
			"bufferView":89,
			"componentType":5126,
			"count":13,
			"max":[
				0.02956063486635685,
				0.022297587245702744,
				0.03016226552426815
			],
			"min":[
				-0.0215334203094244,
				-0.008919035084545612,
				-0.0525556281208992
			],
			"type":"VEC3"
		},
		{
			"bufferView":90,
			"componentType":5126,
			"count":13,
			"type":"VEC3"
		},
		{
			"bufferView":91,
			"componentType":5126,
			"count":13,
			"type":"VEC2"
		},
		{
			"bufferView":92,
			"componentType":5121,
			"count":13,
			"normalized":true,
			"type":"VEC4"
		},
		{
			"bufferView":93,
			"componentType":5123,
			"count":13,
			"normalized":true,
			"type":"VEC4"
		},
		{
			"bufferView":94,
			"componentType":5123,
			"count":21,
			"type":"SCALAR"
		},
		{
			"bufferView":95,
			"componentType":5126,
			"count":13,
			"max":[
				0.0199301578104496,
				0.022297587245702744,
				0.0305350162088871
			],
			"min":[
				-0.0264107845723629,
				-0.008919035084545612,
				-0.0182168148458004
			],
			"type":"VEC3"
		},
		{
			"bufferView":96,
			"componentType":5126,
			"count":13,
			"type":"VEC3"
		},
		{
			"bufferView":97,
			"componentType":5126,
			"count":13,
			"type":"VEC2"
		},
		{
			"bufferView":98,
			"componentType":5121,
			"count":13,
			"normalized":true,
			"type":"VEC4"
		},
		{
			"bufferView":99,
			"componentType":5123,
			"count":13,
			"normalized":true,
			"type":"VEC4"
		},
		{
			"bufferView":100,
			"componentType":5126,
			"count":13,
			"max":[
				0.03389086201786995,
				0.022297587245702744,
				0.0518362857401371
			],
			"min":[
				-0.04519544169306755,
				-0.008919035084545612,
				-0.0314004085958004
			],
			"type":"VEC3"
		},
		{
			"bufferView":101,
			"componentType":5126,
			"count":13,
			"type":"VEC3"
		},
		{
			"bufferView":102,
			"componentType":5126,
			"count":13,
			"type":"VEC2"
		},
		{
			"bufferView":103,
			"componentType":5121,
			"count":13,
			"normalized":true,
			"type":"VEC4"
		},
		{
			"bufferView":104,
			"componentType":5123,
			"count":13,
			"normalized":true,
			"type":"VEC4"
		},
		{
			"bufferView":105,
			"componentType":5123,
			"count":21,
			"type":"SCALAR"
		},
		{
			"bufferView":106,
			"componentType":5126,
			"count":13,
			"max":[
				0.03389522060751915,
				0.022297587245702744,
				0.0518319271504879
			],
			"min":[
				-0.04519108310341835,
				-0.008919035084545612,
				-0.0314047671854496
			],
			"type":"VEC3"
		},
		{
			"bufferView":107,
			"componentType":5126,
			"count":13,
			"type":"VEC3"
		},
		{
			"bufferView":108,
			"componentType":5126,
			"count":13,
			"type":"VEC2"
		},
		{
			"bufferView":109,
			"componentType":5121,
			"count":13,
			"normalized":true,
			"type":"VEC4"
		},
		{
			"bufferView":110,
			"componentType":5123,
			"count":13,
			"normalized":true,
			"type":"VEC4"
		},
		{
			"bufferView":111,
			"componentType":5123,
			"count":21,
			"type":"SCALAR"
		},
		{
			"bufferView":112,
			"componentType":5126,
			"count":1598,
			"max":[
				3.2823729515075684,
				0.5565166473388672,
				2.40970778465271
			],
			"min":[
				-4.193972587585449,
				-2.5433731079101562,
				-2.79170823097229
			],
			"type":"VEC3"
		},
		{
			"bufferView":113,
			"componentType":5126,
			"count":1598,
			"type":"VEC3"
		},
		{
			"bufferView":114,
			"componentType":5126,
			"count":1598,
			"type":"VEC2"
		},
		{
			"bufferView":115,
			"componentType":5121,
			"count":1598,
			"normalized":true,
			"type":"VEC4"
		},
		{
			"bufferView":116,
			"componentType":5123,
			"count":1598,
			"normalized":true,
			"type":"VEC4"
		},
		{
			"bufferView":117,
			"componentType":5123,
			"count":6324,
			"type":"SCALAR"
		},
		{
			"bufferView":118,
			"componentType":5126,
			"count":96,
			"max":[
				0.15331749618053436,
				1.2469269037246704,
				0.6707987785339355
			],
			"min":[
				-0.15491385757923126,
				-1.1139024496078491,
				-0.670647144317627
			],
			"type":"VEC3"
		},
		{
			"bufferView":119,
			"componentType":5126,
			"count":96,
			"type":"VEC3"
		},
		{
			"bufferView":120,
			"componentType":5126,
			"count":96,
			"type":"VEC2"
		},
		{
			"bufferView":121,
			"componentType":5121,
			"count":96,
			"normalized":true,
			"type":"VEC4"
		},
		{
			"bufferView":122,
			"componentType":5123,
			"count":96,
			"normalized":true,
			"type":"VEC4"
		},
		{
			"bufferView":123,
			"componentType":5123,
			"count":396,
			"type":"SCALAR"
		},
		{
			"bufferView":124,
			"componentType":5126,
			"count":343585,
			"max":[
				4.559152126312256,
				1.4770811796188354,
				4.02499532699585
			],
			"min":[
				-2.8860151767730713,
				-1.5457230806350708,
				-2.9105515480041504
			],
			"type":"VEC3"
		},
		{
			"bufferView":125,
			"componentType":5126,
			"count":343585,
			"type":"VEC3"
		},
		{
			"bufferView":126,
			"componentType":5126,
			"count":343585,
			"type":"VEC2"
		},
		{
			"bufferView":127,
			"componentType":5121,
			"count":343585,
			"normalized":true,
			"type":"VEC4"
		},
		{
			"bufferView":128,
			"componentType":5123,
			"count":343585,
			"normalized":true,
			"type":"VEC4"
		},
		{
			"bufferView":129,
			"componentType":5125,
			"count":849504,
			"type":"SCALAR"
		},
		{
			"bufferView":130,
			"componentType":5126,
			"count":2020,
			"max":[
				0.25895169377326965,
				0.28541290760040283,
				0.200071781873703
			],
			"min":[
				-0.218413308262825,
				-0.15543051064014435,
				-0.2575643062591553
			],
			"type":"VEC3"
		},
		{
			"bufferView":131,
			"componentType":5126,
			"count":2020,
			"type":"VEC3"
		},
		{
			"bufferView":132,
			"componentType":5126,
			"count":2020,
			"type":"VEC2"
		},
		{
			"bufferView":133,
			"componentType":5123,
			"count":3204,
			"type":"SCALAR"
		},
		{
			"bufferView":134,
			"componentType":5126,
			"count":58,
			"max":[
				0.4847119450569153,
				0.6159595251083374,
				0.5053966641426086
			],
			"min":[
				-0.4346970021724701,
				-0.4549688398838043,
				-0.4522029757499695
			],
			"type":"VEC3"
		},
		{
			"bufferView":135,
			"componentType":5126,
			"count":58,
			"type":"VEC3"
		},
		{
			"bufferView":136,
			"componentType":5126,
			"count":58,
			"type":"VEC2"
		},
		{
			"bufferView":137,
			"componentType":5123,
			"count":162,
			"type":"SCALAR"
		},
		{
			"bufferView":138,
			"componentType":5126,
			"count":58,
			"max":[
				0.2462243139743805,
				0.19970151782035828,
				0.2535099387168884
			],
			"min":[
				-0.241120383143425,
				-0.14750640094280243,
				-0.23566605150699615
			],
			"type":"VEC3"
		},
		{
			"bufferView":139,
			"componentType":5126,
			"count":58,
			"type":"VEC3"
		},
		{
			"bufferView":140,
			"componentType":5126,
			"count":58,
			"type":"VEC2"
		},
		{
			"bufferView":141,
			"componentType":5123,
			"count":162,
			"type":"SCALAR"
		},
		{
			"bufferView":142,
			"componentType":5126,
			"count":150,
			"max":[
				0.13241025805473328,
				0.10665126889944077,
				0.125726118683815
			],
			"min":[
				-0.13094142079353333,
				-0.07515072822570801,
				-0.14070020616054535
			],
			"type":"VEC3"
		},
		{
			"bufferView":143,
			"componentType":5126,
			"count":150,
			"type":"VEC3"
		},
		{
			"bufferView":144,
			"componentType":5126,
			"count":150,
			"type":"VEC2"
		},
		{
			"bufferView":145,
			"componentType":5123,
			"count":636,
			"type":"SCALAR"
		}
	],
	"bufferViews":[
		{
			"buffer":0,
			"byteLength":14640,
			"byteOffset":0,
			"target":34962
		},
		{
			"buffer":0,
			"byteLength":14640,
			"byteOffset":14640,
			"target":34962
		},
		{
			"buffer":0,
			"byteLength":9760,
			"byteOffset":29280,
			"target":34962
		},
		{
			"buffer":0,
			"byteLength":4880,
			"byteOffset":39040,
			"target":34962
		},
		{
			"buffer":0,
			"byteLength":9760,
			"byteOffset":43920,
			"target":34962
		},
		{
			"buffer":0,
			"byteLength":9120,
			"byteOffset":53680,
			"target":34963
		},
		{
			"buffer":0,
			"byteLength":5832,
			"byteOffset":62800,
			"target":34962
		},
		{
			"buffer":0,
			"byteLength":5832,
			"byteOffset":68632,
			"target":34962
		},
		{
			"buffer":0,
			"byteLength":3888,
			"byteOffset":74464,
			"target":34962
		},
		{
			"buffer":0,
			"byteLength":1944,
			"byteOffset":78352,
			"target":34962
		},
		{
			"buffer":0,
			"byteLength":3888,
			"byteOffset":80296,
			"target":34962
		},
		{
			"buffer":0,
			"byteLength":4608,
			"byteOffset":84184,
			"target":34963
		},
		{
			"buffer":0,
			"byteLength":960,
			"byteOffset":88792,
			"target":34962
		},
		{
			"buffer":0,
			"byteLength":960,
			"byteOffset":89752,
			"target":34962
		},
		{
			"buffer":0,
			"byteLength":640,
			"byteOffset":90712,
			"target":34962
		},
		{
			"buffer":0,
			"byteLength":320,
			"byteOffset":91352,
			"target":34962
		},
		{
			"buffer":0,
			"byteLength":640,
			"byteOffset":91672,
			"target":34962
		},
		{
			"buffer":0,
			"byteLength":516,
			"byteOffset":92312,
			"target":34963
		},
		{
			"buffer":0,
			"byteLength":37812,
			"byteOffset":92828,
			"target":34962
		},
		{
			"buffer":0,
			"byteLength":37812,
			"byteOffset":130640,
			"target":34962
		},
		{
			"buffer":0,
			"byteLength":25208,
			"byteOffset":168452,
			"target":34962
		},
		{
			"buffer":0,
			"byteLength":12604,
			"byteOffset":193660,
			"target":34962
		},
		{
			"buffer":0,
			"byteLength":25208,
			"byteOffset":206264,
			"target":34962
		},
		{
			"buffer":0,
			"byteLength":30132,
			"byteOffset":231472,
			"target":34963
		},
		{
			"buffer":0,
			"byteLength":2868,
			"byteOffset":261604,
			"target":34962
		},
		{
			"buffer":0,
			"byteLength":2868,
			"byteOffset":264472,
			"target":34962
		},
		{
			"buffer":0,
			"byteLength":1912,
			"byteOffset":267340,
			"target":34962
		},
		{
			"buffer":0,
			"byteLength":956,
			"byteOffset":269252,
			"target":34962
		},
		{
			"buffer":0,
			"byteLength":1912,
			"byteOffset":270208,
			"target":34962
		},
		{
			"buffer":0,
			"byteLength":1098,
			"byteOffset":272120,
			"target":34963
		},
		{
			"buffer":0,
			"byteLength":672,
			"byteOffset":273220,
			"target":34962
		},
		{
			"buffer":0,
			"byteLength":672,
			"byteOffset":273892,
			"target":34962
		},
		{
			"buffer":0,
			"byteLength":448,
			"byteOffset":274564,
			"target":34962
		},
		{
			"buffer":0,
			"byteLength":224,
			"byteOffset":275012,
			"target":34962
		},
		{
			"buffer":0,
			"byteLength":448,
			"byteOffset":275236,
			"target":34962
		},
		{
			"buffer":0,
			"byteLength":264,
			"byteOffset":275684,
			"target":34963
		},
		{
			"buffer":0,
			"byteLength":156,
			"byteOffset":275948,
			"target":34962
		},
		{
			"buffer":0,
			"byteLength":156,
			"byteOffset":276104,
			"target":34962
		},
		{
			"buffer":0,
			"byteLength":104,
			"byteOffset":276260,
			"target":34962
		},
		{
			"buffer":0,
			"byteLength":52,
			"byteOffset":276364,
			"target":34962
		},
		{
			"buffer":0,
			"byteLength":104,
			"byteOffset":276416,
			"target":34962
		},
		{
			"buffer":0,
			"byteLength":42,
			"byteOffset":276520,
			"target":34963
		},
		{
			"buffer":0,
			"byteLength":6600,
			"byteOffset":276564,
			"target":34962
		},
		{
			"buffer":0,
			"byteLength":6600,
			"byteOffset":283164,
			"target":34962
		},
		{
			"buffer":0,
			"byteLength":4400,
			"byteOffset":289764,
			"target":34962
		},
		{
			"buffer":0,
			"byteLength":2200,
			"byteOffset":294164,
			"target":34962
		},
		{
			"buffer":0,
			"byteLength":4400,
			"byteOffset":296364,
			"target":34962
		},
		{
			"buffer":0,
			"byteLength":3984,
			"byteOffset":300764,
			"target":34963
		},
		{
			"buffer":0,
			"byteLength":6648,
			"byteOffset":304748,
			"target":34962
		},
		{
			"buffer":0,
			"byteLength":6648,
			"byteOffset":311396,
			"target":34962
		},
		{
			"buffer":0,
			"byteLength":4432,
			"byteOffset":318044,
			"target":34962
		},
		{
			"buffer":0,
			"byteLength":2216,
			"byteOffset":322476,
			"target":34962
		},
		{
			"buffer":0,
			"byteLength":4432,
			"byteOffset":324692,
			"target":34962
		},
		{
			"buffer":0,
			"byteLength":4050,
			"byteOffset":329124,
			"target":34963
		},
		{
			"buffer":0,
			"byteLength":7728,
			"byteOffset":333176,
			"target":34962
		},
		{
			"buffer":0,
			"byteLength":7728,
			"byteOffset":340904,
			"target":34962
		},
		{
			"buffer":0,
			"byteLength":5152,
			"byteOffset":348632,
			"target":34962
		},
		{
			"buffer":0,
			"byteLength":2576,
			"byteOffset":353784,
			"target":34962
		},
		{
			"buffer":0,
			"byteLength":5152,
			"byteOffset":356360,
			"target":34962
		},
		{
			"buffer":0,
			"byteLength":4872,
			"byteOffset":361512,
			"target":34963
		},
		{
			"buffer":0,
			"byteLength":264,
			"byteOffset":366384,
			"target":34962
		},
		{
			"buffer":0,
			"byteLength":264,
			"byteOffset":366648,
			"target":34962
		},
		{
			"buffer":0,
			"byteLength":176,
			"byteOffset":366912,
			"target":34962
		},
		{
			"buffer":0,
			"byteLength":88,
			"byteOffset":367088,
			"target":34962
		},
		{
			"buffer":0,
			"byteLength":176,
			"byteOffset":367176,
			"target":34962
		},
		{
			"buffer":0,
			"byteLength":84,
			"byteOffset":367352,
			"target":34963
		},
		{
			"buffer":0,
			"byteLength":156,
			"byteOffset":367436,
			"target":34962
		},
		{
			"buffer":0,
			"byteLength":156,
			"byteOffset":367592,
			"target":34962
		},
		{
			"buffer":0,
			"byteLength":104,
			"byteOffset":367748,
			"target":34962
		},
		{
			"buffer":0,
			"byteLength":52,
			"byteOffset":367852,
			"target":34962
		},
		{
			"buffer":0,
			"byteLength":104,
			"byteOffset":367904,
			"target":34962
		},
		{
			"buffer":0,
			"byteLength":42,
			"byteOffset":368008,
			"target":34963
		},
		{
			"buffer":0,
			"byteLength":156,
			"byteOffset":368052,
			"target":34962
		},
		{
			"buffer":0,
			"byteLength":156,
			"byteOffset":368208,
			"target":34962
		},
		{
			"buffer":0,
			"byteLength":104,
			"byteOffset":368364,
			"target":34962
		},
		{
			"buffer":0,
			"byteLength":52,
			"byteOffset":368468,
			"target":34962
		},
		{
			"buffer":0,
			"byteLength":104,
			"byteOffset":368520,
			"target":34962
		},
		{
			"buffer":0,
			"byteLength":42,
			"byteOffset":368624,
			"target":34963
		},
		{
			"buffer":0,
			"byteLength":156,
			"byteOffset":368668,
			"target":34962
		},
		{
			"buffer":0,
			"byteLength":156,
			"byteOffset":368824,
			"target":34962
		},
		{
			"buffer":0,
			"byteLength":104,
			"byteOffset":368980,
			"target":34962
		},
		{
			"buffer":0,
			"byteLength":52,
			"byteOffset":369084,
			"target":34962
		},
		{
			"buffer":0,
			"byteLength":104,
			"byteOffset":369136,
			"target":34962
		},
		{
			"buffer":0,
			"byteLength":156,
			"byteOffset":369240,
			"target":34962
		},
		{
			"buffer":0,
			"byteLength":156,
			"byteOffset":369396,
			"target":34962
		},
		{
			"buffer":0,
			"byteLength":104,
			"byteOffset":369552,
			"target":34962
		},
		{
			"buffer":0,
			"byteLength":52,
			"byteOffset":369656,
			"target":34962
		},
		{
			"buffer":0,
			"byteLength":104,
			"byteOffset":369708,
			"target":34962
		},
		{
			"buffer":0,
			"byteLength":42,
			"byteOffset":369812,
			"target":34963
		},
		{
			"buffer":0,
			"byteLength":156,
			"byteOffset":369856,
			"target":34962
		},
		{
			"buffer":0,
			"byteLength":156,
			"byteOffset":370012,
			"target":34962
		},
		{
			"buffer":0,
			"byteLength":104,
			"byteOffset":370168,
			"target":34962
		},
		{
			"buffer":0,
			"byteLength":52,
			"byteOffset":370272,
			"target":34962
		},
		{
			"buffer":0,
			"byteLength":104,
			"byteOffset":370324,
			"target":34962
		},
		{
			"buffer":0,
			"byteLength":42,
			"byteOffset":370428,
			"target":34963
		},
		{
			"buffer":0,
			"byteLength":156,
			"byteOffset":370472,
			"target":34962
		},
		{
			"buffer":0,
			"byteLength":156,
			"byteOffset":370628,
			"target":34962
		},
		{
			"buffer":0,
			"byteLength":104,
			"byteOffset":370784,
			"target":34962
		},
		{
			"buffer":0,
			"byteLength":52,
			"byteOffset":370888,
			"target":34962
		},
		{
			"buffer":0,
			"byteLength":104,
			"byteOffset":370940,
			"target":34962
		},
		{
			"buffer":0,
			"byteLength":156,
			"byteOffset":371044,
			"target":34962
		},
		{
			"buffer":0,
			"byteLength":156,
			"byteOffset":371200,
			"target":34962
		},
		{
			"buffer":0,
			"byteLength":104,
			"byteOffset":371356,
			"target":34962
		},
		{
			"buffer":0,
			"byteLength":52,
			"byteOffset":371460,
			"target":34962
		},
		{
			"buffer":0,
			"byteLength":104,
			"byteOffset":371512,
			"target":34962
		},
		{
			"buffer":0,
			"byteLength":42,
			"byteOffset":371616,
			"target":34963
		},
		{
			"buffer":0,
			"byteLength":156,
			"byteOffset":371660,
			"target":34962
		},
		{
			"buffer":0,
			"byteLength":156,
			"byteOffset":371816,
			"target":34962
		},
		{
			"buffer":0,
			"byteLength":104,
			"byteOffset":371972,
			"target":34962
		},
		{
			"buffer":0,
			"byteLength":52,
			"byteOffset":372076,
			"target":34962
		},
		{
			"buffer":0,
			"byteLength":104,
			"byteOffset":372128,
			"target":34962
		},
		{
			"buffer":0,
			"byteLength":42,
			"byteOffset":372232,
			"target":34963
		},
		{
			"buffer":0,
			"byteLength":19176,
			"byteOffset":372276,
			"target":34962
		},
		{
			"buffer":0,
			"byteLength":19176,
			"byteOffset":391452,
			"target":34962
		},
		{
			"buffer":0,
			"byteLength":12784,
			"byteOffset":410628,
			"target":34962
		},
		{
			"buffer":0,
			"byteLength":6392,
			"byteOffset":423412,
			"target":34962
		},
		{
			"buffer":0,
			"byteLength":12784,
			"byteOffset":429804,
			"target":34962
		},
		{
			"buffer":0,
			"byteLength":12648,
			"byteOffset":442588,
			"target":34963
		},
		{
			"buffer":0,
			"byteLength":1152,
			"byteOffset":455236,
			"target":34962
		},
		{
			"buffer":0,
			"byteLength":1152,
			"byteOffset":456388,
			"target":34962
		},
		{
			"buffer":0,
			"byteLength":768,
			"byteOffset":457540,
			"target":34962
		},
		{
			"buffer":0,
			"byteLength":384,
			"byteOffset":458308,
			"target":34962
		},
		{
			"buffer":0,
			"byteLength":768,
			"byteOffset":458692,
			"target":34962
		},
		{
			"buffer":0,
			"byteLength":792,
			"byteOffset":459460,
			"target":34963
		},
		{
			"buffer":0,
			"byteLength":4123020,
			"byteOffset":460252,
			"target":34962
		},
		{
			"buffer":0,
			"byteLength":4123020,
			"byteOffset":4583272,
			"target":34962
		},
		{
			"buffer":0,
			"byteLength":2748680,
			"byteOffset":8706292,
			"target":34962
		},
		{
			"buffer":0,
			"byteLength":1374340,
			"byteOffset":11454972,
			"target":34962
		},
		{
			"buffer":0,
			"byteLength":2748680,
			"byteOffset":12829312,
			"target":34962
		},
		{
			"buffer":0,
			"byteLength":3398016,
			"byteOffset":15577992,
			"target":34963
		},
		{
			"buffer":0,
			"byteLength":24240,
			"byteOffset":18976008,
			"target":34962
		},
		{
			"buffer":0,
			"byteLength":24240,
			"byteOffset":19000248,
			"target":34962
		},
		{
			"buffer":0,
			"byteLength":16160,
			"byteOffset":19024488,
			"target":34962
		},
		{
			"buffer":0,
			"byteLength":6408,
			"byteOffset":19040648,
			"target":34963
		},
		{
			"buffer":0,
			"byteLength":696,
			"byteOffset":19047056,
			"target":34962
		},
		{
			"buffer":0,
			"byteLength":696,
			"byteOffset":19047752,
			"target":34962
		},
		{
			"buffer":0,
			"byteLength":464,
			"byteOffset":19048448,
			"target":34962
		},
		{
			"buffer":0,
			"byteLength":324,
			"byteOffset":19048912,
			"target":34963
		},
		{
			"buffer":0,
			"byteLength":696,
			"byteOffset":19049236,
			"target":34962
		},
		{
			"buffer":0,
			"byteLength":696,
			"byteOffset":19049932,
			"target":34962
		},
		{
			"buffer":0,
			"byteLength":464,
			"byteOffset":19050628,
			"target":34962
		},
		{
			"buffer":0,
			"byteLength":324,
			"byteOffset":19051092,
			"target":34963
		},
		{
			"buffer":0,
			"byteLength":1800,
			"byteOffset":19051416,
			"target":34962
		},
		{
			"buffer":0,
			"byteLength":1800,
			"byteOffset":19053216,
			"target":34962
		},
		{
			"buffer":0,
			"byteLength":1200,
			"byteOffset":19055016,
			"target":34962
		},
		{
			"buffer":0,
			"byteLength":1272,
			"byteOffset":19056216,
			"target":34963
		}
	],
	"samplers":[
		{
			"magFilter":9729,
			"minFilter":9987
		}
	],
	"buffers":[
		{
			"byteLength":19057488,
			"uri":"The%20farm.bin"
		}
	]
}
