{
  "accessors": [
    {
      "bufferView": 2,
      "componentType": 5126,
      "count": 117,
      "max": [
        0.022377396002411842,
        0.005375164560973644,
        0.08995124697685242
      ],
      "min": [
        -0.029039261862635612,
        -0.0038228346966207027,
        0.00040322658605873585
      ],
      "type": "VEC3"
    },
    {
      "bufferView": 2,
      "byteOffset": 1404,
      "componentType": 5126,
      "count": 117,
      "max": [
        0.6478429436683655,
        -0.5448448061943054,
        0.8368833065032959
      ],
      "min": [
        -0.7024086117744446,
        -0.9992232322692871,
        -0.7049290537834167
      ],
      "type": "VEC3"
    },
    {
      "bufferView": 1,
      "componentType": 5126,
      "count": 117,
      "max": [
        0.714358389377594,
        0.946731448173523
      ],
      "min": [
        0.21808701753616333,
        0.06394150853157043
      ],
      "type": "VEC2"
    },
    {
      "bufferView": 0,
      "componentType": 5125,
      "count": 462,
      "type": "SCALAR"
    },
    {
      "bufferView": 2,
      "byteOffset": 2808,
      "componentType": 5126,
      "count": 117,
      "max": [
        0.022377396002411842,
        0.005375164560973644,
        0.08995124697685242
      ],
      "min": [
        -0.029039261862635612,
        -0.0038228346966207027,
        0.00040322658605873585
      ],
      "type": "VEC3"
    },
    {
      "bufferView": 2,
      "byteOffset": 4212,
      "componentType": 5126,
      "count": 117,
      "max": [
        0.6478429436683655,
        -0.5448448061943054,
        0.8368833065032959
      ],
      "min": [
        -0.7024086117744446,
        -0.9992232322692871,
        -0.7049290537834167
      ],
      "type": "VEC3"
    },
    {
      "bufferView": 1,
      "byteOffset": 936,
      "componentType": 5126,
      "count": 117,
      "max": [
        0.714358389377594,
        0.946731448173523
      ],
      "min": [
        0.21808701753616333,
        0.06394150853157043
      ],
      "type": "VEC2"
    },
    {
      "bufferView": 0,
      "byteOffset": 1848,
      "componentType": 5125,
      "count": 462,
      "type": "SCALAR"
    },
    {
      "bufferView": 2,
      "byteOffset": 5616,
      "componentType": 5126,
      "count": 117,
      "max": [
        0.022377396002411842,
        0.005375164560973644,
        0.08995124697685242
      ],
      "min": [
        -0.029039261862635612,
        -0.0038228346966207027,
        0.00040322658605873585
      ],
      "type": "VEC3"
    },
    {
      "bufferView": 2,
      "byteOffset": 7020,
      "componentType": 5126,
      "count": 117,
      "max": [
        0.6478429436683655,
        -0.5448448061943054,
        0.8368833065032959
      ],
      "min": [
        -0.7024086117744446,
        -0.9992232322692871,
        -0.7049290537834167
      ],
      "type": "VEC3"
    },
    {
      "bufferView": 1,
      "byteOffset": 1872,
      "componentType": 5126,
      "count": 117,
      "max": [
        0.714358389377594,
        0.946731448173523
      ],
      "min": [
        0.21808701753616333,
        0.06394150853157043
      ],
      "type": "VEC2"
    },
    {
      "bufferView": 0,
      "byteOffset": 3696,
      "componentType": 5125,
      "count": 462,
      "type": "SCALAR"
    },
    {
      "bufferView": 2,
      "byteOffset": 8424,
      "componentType": 5126,
      "count": 117,
      "max": [
        0.022377396002411842,
        0.005375164560973644,
        0.08995124697685242
      ],
      "min": [
        -0.029039261862635612,
        -0.0038228346966207027,
        0.00040322658605873585
      ],
      "type": "VEC3"
    },
    {
      "bufferView": 2,
      "byteOffset": 9828,
      "componentType": 5126,
      "count": 117,
      "max": [
        0.6478429436683655,
        -0.5448448061943054,
        0.8368833065032959
      ],
      "min": [
        -0.7024086117744446,
        -0.9992232322692871,
        -0.7049290537834167
      ],
      "type": "VEC3"
    },
    {
      "bufferView": 1,
      "byteOffset": 2808,
      "componentType": 5126,
      "count": 117,
      "max": [
        0.714358389377594,
        0.946731448173523
      ],
      "min": [
        0.21808701753616333,
        0.06394150853157043
      ],
      "type": "VEC2"
    },
    {
      "bufferView": 0,
      "byteOffset": 5544,
      "componentType": 5125,
      "count": 462,
      "type": "SCALAR"
    },
    {
      "bufferView": 2,
      "byteOffset": 11232,
      "componentType": 5126,
      "count": 117,
      "max": [
        0.022377396002411842,
        0.005375164560973644,
        0.08995124697685242
      ],
      "min": [
        -0.029039261862635612,
        -0.0038228346966207027,
        0.00040322658605873585
      ],
      "type": "VEC3"
    },
    {
      "bufferView": 2,
      "byteOffset": 12636,
      "componentType": 5126,
      "count": 117,
      "max": [
        0.6478429436683655,
        -0.5448448061943054,
        0.8368833065032959
      ],
      "min": [
        -0.7024086117744446,
        -0.9992232322692871,
        -0.7049290537834167
      ],
      "type": "VEC3"
    },
    {
      "bufferView": 1,
      "byteOffset": 3744,
      "componentType": 5126,
      "count": 117,
      "max": [
        0.714358389377594,
        0.946731448173523
      ],
      "min": [
        0.21808701753616333,
        0.06394150853157043
      ],
      "type": "VEC2"
    },
    {
      "bufferView": 0,
      "byteOffset": 7392,
      "componentType": 5125,
      "count": 462,
      "type": "SCALAR"
    },
    {
      "bufferView": 2,
      "byteOffset": 14040,
      "componentType": 5126,
      "count": 117,
      "max": [
        0.022377396002411842,
        0.005375164560973644,
        0.08995124697685242
      ],
      "min": [
        -0.029039261862635612,
        -0.0038228346966207027,
        0.00040322658605873585
      ],
      "type": "VEC3"
    },
    {
      "bufferView": 2,
      "byteOffset": 15444,
      "componentType": 5126,
      "count": 117,
      "max": [
        0.6478429436683655,
        -0.5448448061943054,
        0.8368833065032959
      ],
      "min": [
        -0.7024086117744446,
        -0.9992232322692871,
        -0.7049290537834167
      ],
      "type": "VEC3"
    },
    {
      "bufferView": 1,
      "byteOffset": 4680,
      "componentType": 5126,
      "count": 117,
      "max": [
        0.714358389377594,
        0.946731448173523
      ],
      "min": [
        0.21808701753616333,
        0.06394150853157043
      ],
      "type": "VEC2"
    },
    {
      "bufferView": 0,
      "byteOffset": 9240,
      "componentType": 5125,
      "count": 462,
      "type": "SCALAR"
    },
    {
      "bufferView": 2,
      "byteOffset": 16848,
      "componentType": 5126,
      "count": 34,
      "max": [
        0.08869313448667526,
        0.09849337488412857,
        0.020914226770401
      ],
      "min": [
        -0.1021086722612381,
        -0.08712810277938843,
        0.0
      ],
      "type": "VEC3"
    },
    {
      "bufferView": 2,
      "byteOffset": 17256,
      "componentType": 5126,
      "count": 34,
      "max": [
        0.7464872598648071,
        0.3704245388507843,
        0.9996824860572815
      ],
      "min": [
        -0.5425485968589783,
        -0.5726643204689026,
        0.6591681838035583
      ],
      "type": "VEC3"
    },
    {
      "bufferView": 1,
      "byteOffset": 5616,
      "componentType": 5126,
      "count": 34,
      "max": [
        0.3215981423854828,
        0.6701081395149231
      ],
      "min": [
        0.17553341388702393,
        0.5104962587356567
      ],
      "type": "VEC2"
    },
    {
      "bufferView": 0,
      "byteOffset": 11088,
      "componentType": 5125,
      "count": 156,
      "type": "SCALAR"
    },
    {
      "bufferView": 2,
      "byteOffset": 17664,
      "componentType": 5126,
      "count": 34,
      "max": [
        0.05974792316555977,
        0.07387884706258774,
        0.016471929848194122
      ],
      "min": [
        -0.05847299471497536,
        -0.07032393664121628,
        0.0
      ],
      "type": "VEC3"
    },
    {
      "bufferView": 2,
      "byteOffset": 18072,
      "componentType": 5126,
      "count": 34,
      "max": [
        0.6735826730728149,
        0.49881690740585327,
        0.9990358948707581
      ],
      "min": [
        -0.6953399777412415,
        -0.6863622665405273,
        0.6583252549171448
      ],
      "type": "VEC3"
    },
    {
      "bufferView": 1,
      "byteOffset": 5888,
      "componentType": 5126,
      "count": 34,
      "max": [
        0.37389808893203735,
        0.7787266373634338
      ],
      "min": [
        0.22903576493263245,
        0.6601220965385437
      ],
      "type": "VEC2"
    },
    {
      "bufferView": 0,
      "byteOffset": 11712,
      "componentType": 5125,
      "count": 156,
      "type": "SCALAR"
    },
    {
      "bufferView": 2,
      "byteOffset": 18480,
      "componentType": 5126,
      "count": 34,
      "max": [
        0.05974792316555977,
        0.07387884706258774,
        0.016471929848194122
      ],
      "min": [
        -0.05847299471497536,
        -0.07032393664121628,
        0.0
      ],
      "type": "VEC3"
    },
    {
      "bufferView": 2,
      "byteOffset": 18888,
      "componentType": 5126,
      "count": 34,
      "max": [
        0.6735826730728149,
        0.49881690740585327,
        0.9990358948707581
      ],
      "min": [
        -0.6953399777412415,
        -0.6863622665405273,
        0.6583252549171448
      ],
      "type": "VEC3"
    },
    {
      "bufferView": 1,
      "byteOffset": 6160,
      "componentType": 5126,
      "count": 34,
      "max": [
        0.37389808893203735,
        0.7787266373634338
      ],
      "min": [
        0.22903576493263245,
        0.6601220965385437
      ],
      "type": "VEC2"
    },
    {
      "bufferView": 0,
      "byteOffset": 12336,
      "componentType": 5125,
      "count": 156,
      "type": "SCALAR"
    },
    {
      "bufferView": 2,
      "byteOffset": 19296,
      "componentType": 5126,
      "count": 72,
      "max": [
        0.014313453808426857,
        0.0018833408830687404,
        0.076038658618927
      ],
      "min": [
        -0.016935281455516815,
        -0.002875217469409108,
        1.2721688750847068e-17
      ],
      "type": "VEC3"
    },
    {
      "bufferView": 2,
      "byteOffset": 20160,
      "componentType": 5126,
      "count": 72,
      "max": [
        0.7225674390792847,
        -0.5012974739074707,
        0.4992620050907135
      ],
      "min": [
        -0.6847269535064697,
        -0.9994004964828491,
        -0.7524010539054871
      ],
      "type": "VEC3"
    },
    {
      "bufferView": 1,
      "byteOffset": 6432,
      "componentType": 5126,
      "count": 72,
      "max": [
        0.6589694023132324,
        0.9425684809684753
      ],
      "min": [
        0.28641706705093384,
        0.0702078640460968
      ],
      "type": "VEC2"
    },
    {
      "bufferView": 0,
      "byteOffset": 12960,
      "componentType": 5125,
      "count": 288,
      "type": "SCALAR"
    },
    {
      "bufferView": 2,
      "byteOffset": 21024,
      "componentType": 5126,
      "count": 34,
      "max": [
        0.08869313448667526,
        0.09849337488412857,
        0.020914226770401
      ],
      "min": [
        -0.1021086722612381,
        -0.08712810277938843,
        0.0
      ],
      "type": "VEC3"
    },
    {
      "bufferView": 2,
      "byteOffset": 21432,
      "componentType": 5126,
      "count": 34,
      "max": [
        0.7464872598648071,
        0.3704245388507843,
        0.9996824860572815
      ],
      "min": [
        -0.5425485968589783,
        -0.5726643204689026,
        0.6591681838035583
      ],
      "type": "VEC3"
    },
    {
      "bufferView": 1,
      "byteOffset": 7008,
      "componentType": 5126,
      "count": 34,
      "max": [
        0.3215981423854828,
        0.6701081395149231
      ],
      "min": [
        0.17553341388702393,
        0.5104962587356567
      ],
      "type": "VEC2"
    },
    {
      "bufferView": 0,
      "byteOffset": 14112,
      "componentType": 5125,
      "count": 156,
      "type": "SCALAR"
    },
    {
      "bufferView": 2,
      "byteOffset": 21840,
      "componentType": 5126,
      "count": 17,
      "max": [
        0.06027824059128761,
        0.0753367617726326,
        0.009316718205809593
      ],
      "min": [
        -0.05012977495789528,
        -0.04596971347928047,
        0.0
      ],
      "type": "VEC3"
    },
    {
      "bufferView": 2,
      "byteOffset": 22044,
      "componentType": 5126,
      "count": 17,
      "max": [
        0.5171176195144653,
        0.5223848819732666,
        0.9993872046470642
      ],
      "min": [
        -0.7306187748908997,
        -0.5033048391342163,
        0.5922150611877441
      ],
      "type": "VEC3"
    },
    {
      "bufferView": 1,
      "byteOffset": 7280,
      "componentType": 5126,
      "count": 17,
      "max": [
        0.2695423662662506,
        0.8677697777748108
      ],
      "min": [
        0.14841651916503906,
        0.7607890963554382
      ],
      "type": "VEC2"
    },
    {
      "bufferView": 0,
      "byteOffset": 14736,
      "componentType": 5125,
      "count": 72,
      "type": "SCALAR"
    },
    {
      "bufferView": 2,
      "byteOffset": 22248,
      "componentType": 5126,
      "count": 17,
      "max": [
        0.06027824059128761,
        0.0753367617726326,
        0.009316718205809593
      ],
      "min": [
        -0.05012977495789528,
        -0.04596971347928047,
        0.0
      ],
      "type": "VEC3"
    },
    {
      "bufferView": 2,
      "byteOffset": 22452,
      "componentType": 5126,
      "count": 17,
      "max": [
        0.5171176195144653,
        0.5223848819732666,
        0.9993872046470642
      ],
      "min": [
        -0.7306187748908997,
        -0.5033048391342163,
        0.5922150611877441
      ],
      "type": "VEC3"
    },
    {
      "bufferView": 1,
      "byteOffset": 7416,
      "componentType": 5126,
      "count": 17,
      "max": [
        0.2695423662662506,
        0.8677697777748108
      ],
      "min": [
        0.14841651916503906,
        0.7607890963554382
      ],
      "type": "VEC2"
    },
    {
      "bufferView": 0,
      "byteOffset": 15024,
      "componentType": 5125,
      "count": 72,
      "type": "SCALAR"
    },
    {
      "bufferView": 2,
      "byteOffset": 22656,
      "componentType": 5126,
      "count": 34,
      "max": [
        0.05974792316555977,
        0.07387884706258774,
        0.016471929848194122
      ],
      "min": [
        -0.05847299471497536,
        -0.07032393664121628,
        0.0
      ],
      "type": "VEC3"
    },
    {
      "bufferView": 2,
      "byteOffset": 23064,
      "componentType": 5126,
      "count": 34,
      "max": [
        0.6735826730728149,
        0.49881690740585327,
        0.9990358948707581
      ],
      "min": [
        -0.6953399777412415,
        -0.6863622665405273,
        0.6583252549171448
      ],
      "type": "VEC3"
    },
    {
      "bufferView": 1,
      "byteOffset": 7552,
      "componentType": 5126,
      "count": 34,
      "max": [
        0.37389808893203735,
        0.7787266373634338
      ],
      "min": [
        0.22903576493263245,
        0.6601220965385437
      ],
      "type": "VEC2"
    },
    {
      "bufferView": 0,
      "byteOffset": 15312,
      "componentType": 5125,
      "count": 156,
      "type": "SCALAR"
    },
    {
      "bufferView": 2,
      "byteOffset": 23472,
      "componentType": 5126,
      "count": 34,
      "max": [
        0.05974792316555977,
        0.07387884706258774,
        0.016471929848194122
      ],
      "min": [
        -0.05847299471497536,
        -0.07032393664121628,
        0.0
      ],
      "type": "VEC3"
    },
    {
      "bufferView": 2,
      "byteOffset": 23880,
      "componentType": 5126,
      "count": 34,
      "max": [
        0.6735826730728149,
        0.49881690740585327,
        0.9990358948707581
      ],
      "min": [
        -0.6953399777412415,
        -0.6863622665405273,
        0.6583252549171448
      ],
      "type": "VEC3"
    },
    {
      "bufferView": 1,
      "byteOffset": 7824,
      "componentType": 5126,
      "count": 34,
      "max": [
        0.37389808893203735,
        0.7787266373634338
      ],
      "min": [
        0.22903576493263245,
        0.6601220965385437
      ],
      "type": "VEC2"
    },
    {
      "bufferView": 0,
      "byteOffset": 15936,
      "componentType": 5125,
      "count": 156,
      "type": "SCALAR"
    },
    {
      "bufferView": 2,
      "byteOffset": 24288,
      "componentType": 5126,
      "count": 17,
      "max": [
        0.06027824059128761,
        0.0753367617726326,
        0.009316718205809593
      ],
      "min": [
        -0.05012977495789528,
        -0.04596971347928047,
        0.0
      ],
      "type": "VEC3"
    },
    {
      "bufferView": 2,
      "byteOffset": 24492,
      "componentType": 5126,
      "count": 17,
      "max": [
        0.5171176195144653,
        0.5223848819732666,
        0.9993872046470642
      ],
      "min": [
        -0.7306187748908997,
        -0.5033048391342163,
        0.5922150611877441
      ],
      "type": "VEC3"
    },
    {
      "bufferView": 1,
      "byteOffset": 8096,
      "componentType": 5126,
      "count": 17,
      "max": [
        0.2695423662662506,
        0.8677697777748108
      ],
      "min": [
        0.14841651916503906,
        0.7607890963554382
      ],
      "type": "VEC2"
    },
    {
      "bufferView": 0,
      "byteOffset": 16560,
      "componentType": 5125,
      "count": 72,
      "type": "SCALAR"
    },
    {
      "bufferView": 2,
      "byteOffset": 24696,
      "componentType": 5126,
      "count": 72,
      "max": [
        0.014313453808426857,
        0.0018833408830687404,
        0.076038658618927
      ],
      "min": [
        -0.016935281455516815,
        -0.002875217469409108,
        1.2721688750847068e-17
      ],
      "type": "VEC3"
    },
    {
      "bufferView": 2,
      "byteOffset": 25560,
      "componentType": 5126,
      "count": 72,
      "max": [
        0.7225674390792847,
        -0.5012974739074707,
        0.4992620050907135
      ],
      "min": [
        -0.6847269535064697,
        -0.9994004964828491,
        -0.7524010539054871
      ],
      "type": "VEC3"
    },
    {
      "bufferView": 1,
      "byteOffset": 8232,
      "componentType": 5126,
      "count": 72,
      "max": [
        0.6589694023132324,
        0.9425684809684753
      ],
      "min": [
        0.28641706705093384,
        0.0702078640460968
      ],
      "type": "VEC2"
    },
    {
      "bufferView": 0,
      "byteOffset": 16848,
      "componentType": 5125,
      "count": 288,
      "type": "SCALAR"
    },
    {
      "bufferView": 2,
      "byteOffset": 26424,
      "componentType": 5126,
      "count": 72,
      "max": [
        0.014313453808426857,
        0.0018833408830687404,
        0.076038658618927
      ],
      "min": [
        -0.016935281455516815,
        -0.002875217469409108,
        1.2721688750847068e-17
      ],
      "type": "VEC3"
    },
    {
      "bufferView": 2,
      "byteOffset": 27288,
      "componentType": 5126,
      "count": 72,
      "max": [
        0.7225674390792847,
        -0.5012974739074707,
        0.4992620050907135
      ],
      "min": [
        -0.6847269535064697,
        -0.9994004964828491,
        -0.7524010539054871
      ],
      "type": "VEC3"
    },
    {
      "bufferView": 1,
      "byteOffset": 8808,
      "componentType": 5126,
      "count": 72,
      "max": [
        0.6589694023132324,
        0.9425684809684753
      ],
      "min": [
        0.28641706705093384,
        0.0702078640460968
      ],
      "type": "VEC2"
    },
    {
      "bufferView": 0,
      "byteOffset": 18000,
      "componentType": 5125,
      "count": 288,
      "type": "SCALAR"
    },
    {
      "bufferView": 2,
      "byteOffset": 28152,
      "componentType": 5126,
      "count": 72,
      "max": [
        0.014313453808426857,
        0.0018833408830687404,
        0.076038658618927
      ],
      "min": [
        -0.016935281455516815,
        -0.002875217469409108,
        1.2721688750847068e-17
      ],
      "type": "VEC3"
    },
    {
      "bufferView": 2,
      "byteOffset": 29016,
      "componentType": 5126,
      "count": 72,
      "max": [
        0.7225674390792847,
        -0.5012974739074707,
        0.4992620050907135
      ],
      "min": [
        -0.6847269535064697,
        -0.9994004964828491,
        -0.7524010539054871
      ],
      "type": "VEC3"
    },
    {
      "bufferView": 1,
      "byteOffset": 9384,
      "componentType": 5126,
      "count": 72,
      "max": [
        0.6589694023132324,
        0.9425684809684753
      ],
      "min": [
        0.28641706705093384,
        0.0702078640460968
      ],
      "type": "VEC2"
    },
    {
      "bufferView": 0,
      "byteOffset": 19152,
      "componentType": 5125,
      "count": 288,
      "type": "SCALAR"
    },
    {
      "bufferView": 2,
      "byteOffset": 29880,
      "componentType": 5126,
      "count": 72,
      "max": [
        0.014313453808426857,
        0.0018833408830687404,
        0.076038658618927
      ],
      "min": [
        -0.016935281455516815,
        -0.002875217469409108,
        1.2721688750847068e-17
      ],
      "type": "VEC3"
    },
    {
      "bufferView": 2,
      "byteOffset": 30744,
      "componentType": 5126,
      "count": 72,
      "max": [
        0.7225674390792847,
        -0.5012974739074707,
        0.4992620050907135
      ],
      "min": [
        -0.6847269535064697,
        -0.9994004964828491,
        -0.7524010539054871
      ],
      "type": "VEC3"
    },
    {
      "bufferView": 1,
      "byteOffset": 9960,
      "componentType": 5126,
      "count": 72,
      "max": [
        0.6589694023132324,
        0.9425684809684753
      ],
      "min": [
        0.28641706705093384,
        0.0702078640460968
      ],
      "type": "VEC2"
    },
    {
      "bufferView": 0,
      "byteOffset": 20304,
      "componentType": 5125,
      "count": 288,
      "type": "SCALAR"
    },
    {
      "bufferView": 2,
      "byteOffset": 31608,
      "componentType": 5126,
      "count": 34,
      "max": [
        0.08869313448667526,
        0.09849337488412857,
        0.020914226770401
      ],
      "min": [
        -0.1021086722612381,
        -0.08712810277938843,
        0.0
      ],
      "type": "VEC3"
    },
    {
      "bufferView": 2,
      "byteOffset": 32016,
      "componentType": 5126,
      "count": 34,
      "max": [
        0.7464872598648071,
        0.3704245388507843,
        0.9996824860572815
      ],
      "min": [
        -0.5425485968589783,
        -0.5726643204689026,
        0.6591681838035583
      ],
      "type": "VEC3"
    },
    {
      "bufferView": 1,
      "byteOffset": 10536,
      "componentType": 5126,
      "count": 34,
      "max": [
        0.3215981423854828,
        0.6701081395149231
      ],
      "min": [
        0.17553341388702393,
        0.5104962587356567
      ],
      "type": "VEC2"
    },
    {
      "bufferView": 0,
      "byteOffset": 21456,
      "componentType": 5125,
      "count": 156,
      "type": "SCALAR"
    },
    {
      "bufferView": 2,
      "byteOffset": 32424,
      "componentType": 5126,
      "count": 34,
      "max": [
        0.05974792316555977,
        0.07387884706258774,
        0.016471929848194122
      ],
      "min": [
        -0.05847299471497536,
        -0.07032393664121628,
        0.0
      ],
      "type": "VEC3"
    },
    {
      "bufferView": 2,
      "byteOffset": 32832,
      "componentType": 5126,
      "count": 34,
      "max": [
        0.6735826730728149,
        0.49881690740585327,
        0.9990358948707581
      ],
      "min": [
        -0.6953399777412415,
        -0.6863622665405273,
        0.6583252549171448
      ],
      "type": "VEC3"
    },
    {
      "bufferView": 1,
      "byteOffset": 10808,
      "componentType": 5126,
      "count": 34,
      "max": [
        0.37389808893203735,
        0.7787266373634338
      ],
      "min": [
        0.22903576493263245,
        0.6601220965385437
      ],
      "type": "VEC2"
    },
    {
      "bufferView": 0,
      "byteOffset": 22080,
      "componentType": 5125,
      "count": 156,
      "type": "SCALAR"
    },
    {
      "bufferView": 2,
      "byteOffset": 33240,
      "componentType": 5126,
      "count": 17,
      "max": [
        0.06027824059128761,
        0.0753367617726326,
        0.009316718205809593
      ],
      "min": [
        -0.05012977495789528,
        -0.04596971347928047,
        0.0
      ],
      "type": "VEC3"
    },
    {
      "bufferView": 2,
      "byteOffset": 33444,
      "componentType": 5126,
      "count": 17,
      "max": [
        0.5171176195144653,
        0.5223848819732666,
        0.9993872046470642
      ],
      "min": [
        -0.7306187748908997,
        -0.5033048391342163,
        0.5922150611877441
      ],
      "type": "VEC3"
    },
    {
      "bufferView": 1,
      "byteOffset": 11080,
      "componentType": 5126,
      "count": 17,
      "max": [
        0.2695423662662506,
        0.8677697777748108
      ],
      "min": [
        0.14841651916503906,
        0.7607890963554382
      ],
      "type": "VEC2"
    },
    {
      "bufferView": 0,
      "byteOffset": 22704,
      "componentType": 5125,
      "count": 72,
      "type": "SCALAR"
    },
    {
      "bufferView": 2,
      "byteOffset": 33648,
      "componentType": 5126,
      "count": 72,
      "max": [
        0.014313453808426857,
        0.0018833408830687404,
        0.076038658618927
      ],
      "min": [
        -0.016935281455516815,
        -0.002875217469409108,
        1.2721688750847068e-17
      ],
      "type": "VEC3"
    },
    {
      "bufferView": 2,
      "byteOffset": 34512,
      "componentType": 5126,
      "count": 72,
      "max": [
        0.7225674390792847,
        -0.5012974739074707,
        0.4992620050907135
      ],
      "min": [
        -0.6847269535064697,
        -0.9994004964828491,
        -0.7524010539054871
      ],
      "type": "VEC3"
    },
    {
      "bufferView": 1,
      "byteOffset": 11216,
      "componentType": 5126,
      "count": 72,
      "max": [
        0.6589694023132324,
        0.9425684809684753
      ],
      "min": [
        0.28641706705093384,
        0.0702078640460968
      ],
      "type": "VEC2"
    },
    {
      "bufferView": 0,
      "byteOffset": 22992,
      "componentType": 5125,
      "count": 288,
      "type": "SCALAR"
    },
    {
      "bufferView": 2,
      "byteOffset": 35376,
      "componentType": 5126,
      "count": 72,
      "max": [
        0.014313453808426857,
        0.0018833408830687404,
        0.076038658618927
      ],
      "min": [
        -0.016935281455516815,
        -0.002875217469409108,
        1.2721688750847068e-17
      ],
      "type": "VEC3"
    },
    {
      "bufferView": 2,
      "byteOffset": 36240,
      "componentType": 5126,
      "count": 72,
      "max": [
        0.7225674390792847,
        -0.5012974739074707,
        0.4992620050907135
      ],
      "min": [
        -0.6847269535064697,
        -0.9994004964828491,
        -0.7524010539054871
      ],
      "type": "VEC3"
    },
    {
      "bufferView": 1,
      "byteOffset": 11792,
      "componentType": 5126,
      "count": 72,
      "max": [
        0.6589694023132324,
        0.9425684809684753
      ],
      "min": [
        0.28641706705093384,
        0.0702078640460968
      ],
      "type": "VEC2"
    },
    {
      "bufferView": 0,
      "byteOffset": 24144,
      "componentType": 5125,
      "count": 288,
      "type": "SCALAR"
    },
    {
      "bufferView": 2,
      "byteOffset": 37104,
      "componentType": 5126,
      "count": 72,
      "max": [
        0.014313453808426857,
        0.0018833408830687404,
        0.076038658618927
      ],
      "min": [
        -0.016935281455516815,
        -0.002875217469409108,
        1.2721688750847068e-17
      ],
      "type": "VEC3"
    },
    {
      "bufferView": 2,
      "byteOffset": 37968,
      "componentType": 5126,
      "count": 72,
      "max": [
        0.7225674390792847,
        -0.5012974739074707,
        0.4992620050907135
      ],
      "min": [
        -0.6847269535064697,
        -0.9994004964828491,
        -0.7524010539054871
      ],
      "type": "VEC3"
    },
    {
      "bufferView": 1,
      "byteOffset": 12368,
      "componentType": 5126,
      "count": 72,
      "max": [
        0.6589694023132324,
        0.9425684809684753
      ],
      "min": [
        0.28641706705093384,
        0.0702078640460968
      ],
      "type": "VEC2"
    },
    {
      "bufferView": 0,
      "byteOffset": 25296,
      "componentType": 5125,
      "count": 288,
      "type": "SCALAR"
    },
    {
      "bufferView": 2,
      "byteOffset": 38832,
      "componentType": 5126,
      "count": 72,
      "max": [
        0.014313453808426857,
        0.0018833408830687404,
        0.076038658618927
      ],
      "min": [
        -0.016935281455516815,
        -0.002875217469409108,
        1.2721688750847068e-17
      ],
      "type": "VEC3"
    },
    {
      "bufferView": 2,
      "byteOffset": 39696,
      "componentType": 5126,
      "count": 72,
      "max": [
        0.7225674390792847,
        -0.5012974739074707,
        0.4992620050907135
      ],
      "min": [
        -0.6847269535064697,
        -0.9994004964828491,
        -0.7524010539054871
      ],
      "type": "VEC3"
    },
    {
      "bufferView": 1,
      "byteOffset": 12944,
      "componentType": 5126,
      "count": 72,
      "max": [
        0.6589694023132324,
        0.9425684809684753
      ],
      "min": [
        0.28641706705093384,
        0.0702078640460968
      ],
      "type": "VEC2"
    },
    {
      "bufferView": 0,
      "byteOffset": 26448,
      "componentType": 5125,
      "count": 288,
      "type": "SCALAR"
    },
    {
      "bufferView": 2,
      "byteOffset": 40560,
      "componentType": 5126,
      "count": 72,
      "max": [
        0.014313453808426857,
        0.0018833408830687404,
        0.076038658618927
      ],
      "min": [
        -0.016935281455516815,
        -0.002875217469409108,
        1.2721688750847068e-17
      ],
      "type": "VEC3"
    },
    {
      "bufferView": 2,
      "byteOffset": 41424,
      "componentType": 5126,
      "count": 72,
      "max": [
        0.7225674390792847,
        -0.5012974739074707,
        0.4992620050907135
      ],
      "min": [
        -0.6847269535064697,
        -0.9994004964828491,
        -0.7524010539054871
      ],
      "type": "VEC3"
    },
    {
      "bufferView": 1,
      "byteOffset": 13520,
      "componentType": 5126,
      "count": 72,
      "max": [
        0.6589694023132324,
        0.9425684809684753
      ],
      "min": [
        0.28641706705093384,
        0.0702078640460968
      ],
      "type": "VEC2"
    },
    {
      "bufferView": 0,
      "byteOffset": 27600,
      "componentType": 5125,
      "count": 288,
      "type": "SCALAR"
    },
    {
      "bufferView": 2,
      "byteOffset": 42288,
      "componentType": 5126,
      "count": 72,
      "max": [
        0.014313453808426857,
        0.0018833408830687404,
        0.076038658618927
      ],
      "min": [
        -0.016935281455516815,
        -0.002875217469409108,
        1.2721688750847068e-17
      ],
      "type": "VEC3"
    },
    {
      "bufferView": 2,
      "byteOffset": 43152,
      "componentType": 5126,
      "count": 72,
      "max": [
        0.7225674390792847,
        -0.5012974739074707,
        0.4992620050907135
      ],
      "min": [
        -0.6847269535064697,
        -0.9994004964828491,
        -0.7524010539054871
      ],
      "type": "VEC3"
    },
    {
      "bufferView": 1,
      "byteOffset": 14096,
      "componentType": 5126,
      "count": 72,
      "max": [
        0.6589694023132324,
        0.9425684809684753
      ],
      "min": [
        0.28641706705093384,
        0.0702078640460968
      ],
      "type": "VEC2"
    },
    {
      "bufferView": 0,
      "byteOffset": 28752,
      "componentType": 5125,
      "count": 288,
      "type": "SCALAR"
    },
    {
      "bufferView": 2,
      "byteOffset": 44016,
      "componentType": 5126,
      "count": 72,
      "max": [
        0.014313453808426857,
        0.0018833408830687404,
        0.076038658618927
      ],
      "min": [
        -0.016935281455516815,
        -0.002875217469409108,
        1.2721688750847068e-17
      ],
      "type": "VEC3"
    },
    {
      "bufferView": 2,
      "byteOffset": 44880,
      "componentType": 5126,
      "count": 72,
      "max": [
        0.7225674390792847,
        -0.5012974739074707,
        0.4992620050907135
      ],
      "min": [
        -0.6847269535064697,
        -0.9994004964828491,
        -0.7524010539054871
      ],
      "type": "VEC3"
    },
    {
      "bufferView": 1,
      "byteOffset": 14672,
      "componentType": 5126,
      "count": 72,
      "max": [
        0.6589694023132324,
        0.9425684809684753
      ],
      "min": [
        0.28641706705093384,
        0.0702078640460968
      ],
      "type": "VEC2"
    },
    {
      "bufferView": 0,
      "byteOffset": 29904,
      "componentType": 5125,
      "count": 288,
      "type": "SCALAR"
    },
    {
      "bufferView": 2,
      "byteOffset": 45744,
      "componentType": 5126,
      "count": 72,
      "max": [
        0.014313453808426857,
        0.0018833408830687404,
        0.076038658618927
      ],
      "min": [
        -0.016935281455516815,
        -0.002875217469409108,
        1.2721688750847068e-17
      ],
      "type": "VEC3"
    },
    {
      "bufferView": 2,
      "byteOffset": 46608,
      "componentType": 5126,
      "count": 72,
      "max": [
        0.7225674390792847,
        -0.5012974739074707,
        0.4992620050907135
      ],
      "min": [
        -0.6847269535064697,
        -0.9994004964828491,
        -0.7524010539054871
      ],
      "type": "VEC3"
    },
    {
      "bufferView": 1,
      "byteOffset": 15248,
      "componentType": 5126,
      "count": 72,
      "max": [
        0.6589694023132324,
        0.9425684809684753
      ],
      "min": [
        0.28641706705093384,
        0.0702078640460968
      ],
      "type": "VEC2"
    },
    {
      "bufferView": 0,
      "byteOffset": 31056,
      "componentType": 5125,
      "count": 288,
      "type": "SCALAR"
    }
  ],
  "asset": {
    "extras": {
      "author": "a-python-script (https://sketchfab.com/a-python-script)",
      "license": "SKETCHFAB Standard (https://sketchfab.com/licenses)",
      "source": "https://sketchfab.com/3d-models/handpainted-stylized-grass-and-rocks-67219bf9d4c341f3b1a54600a15c9485",
      "title": "Handpainted Stylized Grass and Rocks"
    },
    "generator": "Sketchfab-16.68.0",
    "version": "2.0"
  },
  "bufferViews": [
    {
      "buffer": 0,
      "byteLength": 32208,
      "name": "floatBufferViews",
      "target": 34963
    },
    {
      "buffer": 0,
      "byteLength": 15824,
      "byteOffset": 32208,
      "byteStride": 8,
      "name": "floatBufferViews",
      "target": 34962
    },
    {
      "buffer": 0,
      "byteLength": 47472,
      "byteOffset": 48032,
      "byteStride": 12,
      "name": "floatBufferViews",
      "target": 34962
    }
  ],
  "buffers": [
    {
      "byteLength": 95504,
      "uri": "scene.bin"
    }
  ],
  "extensionsUsed": [
    "KHR_materials_specular"
  ],
  "images": [
    {
      "uri": "textures/Cube_baseColor.png"
    },
    {
      "uri": "textures/Plane.001_baseColor.png"
    },
    {
      "uri": "textures/Plane_baseColor.png"
    },
    {
      "uri": "textures/Plane.025_baseColor.png"
    },
    {
      "uri": "textures/Plane.002_baseColor.png"
    }
  ],
  "materials": [
    {
      "doubleSided": true,
      "extensions": {
        "KHR_materials_specular": {
          "specularColorFactor": [
            1.0,
            1.0,
            1.0
          ],
          "specularFactor": 0.0
        }
      },
      "name": "Cube",
      "pbrMetallicRoughness": {
        "baseColorTexture": {
          "index": 0
        },
        "metallicFactor": 0.0,
        "roughnessFactor": 0.8040408205773457
      }
    },
    {
      "doubleSided": true,
      "extensions": {
        "KHR_materials_specular": {
          "specularColorFactor": [
            1.0,
            1.0,
            1.0
          ],
          "specularFactor": 0.0
        }
      },
      "name": "Plane.001",
      "pbrMetallicRoughness": {
        "baseColorTexture": {
          "index": 1
        },
        "metallicFactor": 0.0,
        "roughnessFactor": 0.8040408205773457
      }
    },
    {
      "doubleSided": true,
      "extensions": {
        "KHR_materials_specular": {
          "specularColorFactor": [
            1.0,
            1.0,
            1.0
          ],
          "specularFactor": 0.0
        }
      },
      "name": "Plane",
      "pbrMetallicRoughness": {
        "baseColorTexture": {
          "index": 2
        },
        "metallicFactor": 0.0,
        "roughnessFactor": 0.8040408205773457
      }
    },
    {
      "doubleSided": true,
      "extensions": {
        "KHR_materials_specular": {
          "specularColorFactor": [
            1.0,
            1.0,
            1.0
          ],
          "specularFactor": 0.0
        }
      },
      "name": "Plane.025",
      "pbrMetallicRoughness": {
        "baseColorTexture": {
          "index": 3
        },
        "metallicFactor": 0.0,
        "roughnessFactor": 0.8040408205773457
      }
    },
    {
      "doubleSided": true,
      "extensions": {
        "KHR_materials_specular": {
          "specularColorFactor": [
            1.0,
            1.0,
            1.0
          ],
          "specularFactor": 0.0
        }
      },
      "name": "Plane.002",
      "pbrMetallicRoughness": {
        "baseColorTexture": {
          "index": 4
        },
        "metallicFactor": 0.0,
        "roughnessFactor": 0.8040408205773457
      }
    }
  ],
  "meshes": [
    {
      "name": "Grass_00.001_Cube_0",
      "primitives": [
        {
          "attributes": {
            "NORMAL": 1,
            "POSITION": 0,
            "TEXCOORD_0": 2
          },
          "indices": 3,
          "material": 0,
          "mode": 4
        }
      ]
    },
    {
      "name": "Grass_00.002_Cube_0",
      "primitives": [
        {
          "attributes": {
            "NORMAL": 5,
            "POSITION": 4,
            "TEXCOORD_0": 6
          },
          "indices": 7,
          "material": 0,
          "mode": 4
        }
      ]
    },
    {
      "name": "Grass_00.003_Cube_0",
      "primitives": [
        {
          "attributes": {
            "NORMAL": 9,
            "POSITION": 8,
            "TEXCOORD_0": 10
          },
          "indices": 11,
          "material": 0,
          "mode": 4
        }
      ]
    },
    {
      "name": "Grass_00.004_Cube_0",
      "primitives": [
        {
          "attributes": {
            "NORMAL": 13,
            "POSITION": 12,
            "TEXCOORD_0": 14
          },
          "indices": 15,
          "material": 0,
          "mode": 4
        }
      ]
    },
    {
      "name": "Grass_00.005_Cube_0",
      "primitives": [
        {
          "attributes": {
            "NORMAL": 17,
            "POSITION": 16,
            "TEXCOORD_0": 18
          },
          "indices": 19,
          "material": 0,
          "mode": 4
        }
      ]
    },
    {
      "name": "Grass_00.006_Cube_0",
      "primitives": [
        {
          "attributes": {
            "NORMAL": 21,
            "POSITION": 20,
            "TEXCOORD_0": 22
          },
          "indices": 23,
          "material": 0,
          "mode": 4
        }
      ]
    },
    {
      "name": "Plane.026_Plane.001_0",
      "primitives": [
        {
          "attributes": {
            "NORMAL": 25,
            "POSITION": 24,
            "TEXCOORD_0": 26
          },
          "indices": 27,
          "material": 1,
          "mode": 4
        }
      ]
    },
    {
      "name": "Plane.027_Plane_0",
      "primitives": [
        {
          "attributes": {
            "NORMAL": 29,
            "POSITION": 28,
            "TEXCOORD_0": 30
          },
          "indices": 31,
          "material": 2,
          "mode": 4
        }
      ]
    },
    {
      "name": "Plane.028_Plane_0",
      "primitives": [
        {
          "attributes": {
            "NORMAL": 33,
            "POSITION": 32,
            "TEXCOORD_0": 34
          },
          "indices": 35,
          "material": 2,
          "mode": 4
        }
      ]
    },
    {
      "name": "Plane.029_Plane.025_0",
      "primitives": [
        {
          "attributes": {
            "NORMAL": 37,
            "POSITION": 36,
            "TEXCOORD_0": 38
          },
          "indices": 39,
          "material": 3,
          "mode": 4
        }
      ]
    },
    {
      "name": "Plane.030_Plane.001_0",
      "primitives": [
        {
          "attributes": {
            "NORMAL": 41,
            "POSITION": 40,
            "TEXCOORD_0": 42
          },
          "indices": 43,
          "material": 1,
          "mode": 4
        }
      ]
    },
    {
      "name": "Plane.031_Plane.002_0",
      "primitives": [
        {
          "attributes": {
            "NORMAL": 45,
            "POSITION": 44,
            "TEXCOORD_0": 46
          },
          "indices": 47,
          "material": 4,
          "mode": 4
        }
      ]
    },
    {
      "name": "Plane.032_Plane.002_0",
      "primitives": [
        {
          "attributes": {
            "NORMAL": 49,
            "POSITION": 48,
            "TEXCOORD_0": 50
          },
          "indices": 51,
          "material": 4,
          "mode": 4
        }
      ]
    },
    {
      "name": "Plane.033_Plane_0",
      "primitives": [
        {
          "attributes": {
            "NORMAL": 53,
            "POSITION": 52,
            "TEXCOORD_0": 54
          },
          "indices": 55,
          "material": 2,
          "mode": 4
        }
      ]
    },
    {
      "name": "Plane.034_Plane_0",
      "primitives": [
        {
          "attributes": {
            "NORMAL": 57,
            "POSITION": 56,
            "TEXCOORD_0": 58
          },
          "indices": 59,
          "material": 2,
          "mode": 4
        }
      ]
    },
    {
      "name": "Plane.035_Plane.002_0",
      "primitives": [
        {
          "attributes": {
            "NORMAL": 61,
            "POSITION": 60,
            "TEXCOORD_0": 62
          },
          "indices": 63,
          "material": 4,
          "mode": 4
        }
      ]
    },
    {
      "name": "Plane.036_Plane.025_0",
      "primitives": [
        {
          "attributes": {
            "NORMAL": 65,
            "POSITION": 64,
            "TEXCOORD_0": 66
          },
          "indices": 67,
          "material": 3,
          "mode": 4
        }
      ]
    },
    {
      "name": "Plane.037_Plane.025_0",
      "primitives": [
        {
          "attributes": {
            "NORMAL": 69,
            "POSITION": 68,
            "TEXCOORD_0": 70
          },
          "indices": 71,
          "material": 3,
          "mode": 4
        }
      ]
    },
    {
      "name": "Plane.038_Plane.025_0",
      "primitives": [
        {
          "attributes": {
            "NORMAL": 73,
            "POSITION": 72,
            "TEXCOORD_0": 74
          },
          "indices": 75,
          "material": 3,
          "mode": 4
        }
      ]
    },
    {
      "name": "Plane.039_Plane.025_0",
      "primitives": [
        {
          "attributes": {
            "NORMAL": 77,
            "POSITION": 76,
            "TEXCOORD_0": 78
          },
          "indices": 79,
          "material": 3,
          "mode": 4
        }
      ]
    },
    {
      "name": "Plane.040_Plane.001_0",
      "primitives": [
        {
          "attributes": {
            "NORMAL": 81,
            "POSITION": 80,
            "TEXCOORD_0": 82
          },
          "indices": 83,
          "material": 1,
          "mode": 4
        }
      ]
    },
    {
      "name": "Plane.041_Plane_0",
      "primitives": [
        {
          "attributes": {
            "NORMAL": 85,
            "POSITION": 84,
            "TEXCOORD_0": 86
          },
          "indices": 87,
          "material": 2,
          "mode": 4
        }
      ]
    },
    {
      "name": "Plane.042_Plane.002_0",
      "primitives": [
        {
          "attributes": {
            "NORMAL": 89,
            "POSITION": 88,
            "TEXCOORD_0": 90
          },
          "indices": 91,
          "material": 4,
          "mode": 4
        }
      ]
    },
    {
      "name": "Plane.043_Plane.025_0",
      "primitives": [
        {
          "attributes": {
            "NORMAL": 93,
            "POSITION": 92,
            "TEXCOORD_0": 94
          },
          "indices": 95,
          "material": 3,
          "mode": 4
        }
      ]
    },
    {
      "name": "Plane.044_Plane.025_0",
      "primitives": [
        {
          "attributes": {
            "NORMAL": 97,
            "POSITION": 96,
            "TEXCOORD_0": 98
          },
          "indices": 99,
          "material": 3,
          "mode": 4
        }
      ]
    },
    {
      "name": "Plane.045_Plane.025_0",
      "primitives": [
        {
          "attributes": {
            "NORMAL": 101,
            "POSITION": 100,
            "TEXCOORD_0": 102
          },
          "indices": 103,
          "material": 3,
          "mode": 4
        }
      ]
    },
    {
      "name": "Plane.046_Plane.025_0",
      "primitives": [
        {
          "attributes": {
            "NORMAL": 105,
            "POSITION": 104,
            "TEXCOORD_0": 106
          },
          "indices": 107,
          "material": 3,
          "mode": 4
        }
      ]
    },
    {
      "name": "Plane.047_Plane.025_0",
      "primitives": [
        {
          "attributes": {
            "NORMAL": 109,
            "POSITION": 108,
            "TEXCOORD_0": 110
          },
          "indices": 111,
          "material": 3,
          "mode": 4
        }
      ]
    },
    {
      "name": "Plane.048_Plane.025_0",
      "primitives": [
        {
          "attributes": {
            "NORMAL": 113,
            "POSITION": 112,
            "TEXCOORD_0": 114
          },
          "indices": 115,
          "material": 3,
          "mode": 4
        }
      ]
    },
    {
      "name": "Plane.049_Plane.025_0",
      "primitives": [
        {
          "attributes": {
            "NORMAL": 117,
            "POSITION": 116,
            "TEXCOORD_0": 118
          },
          "indices": 119,
          "material": 3,
          "mode": 4
        }
      ]
    },
    {
      "name": "Plane.050_Plane.025_0",
      "primitives": [
        {
          "attributes": {
            "NORMAL": 121,
            "POSITION": 120,
            "TEXCOORD_0": 122
          },
          "indices": 123,
          "material": 3,
          "mode": 4
        }
      ]
    }
  ],
  "nodes": [
    {
      "children": [
        1
      ],
      "matrix": [
        1.0,
        0.0,
        0.0,
        0.0,
        0.0,
        2.220446049250313e-16,
        -1.0,
        0.0,
        0.0,
        1.0,
        2.220446049250313e-16,
        0.0,
        0.0,
        0.0,
        0.0,
        1.0
      ],
      "name": "Sketchfab_model"
    },
    {
      "children": [
        2
      ],
      "matrix": [
        0.009999999776482582,
        0.0,
        0.0,
        0.0,
        0.0,
        0.0,
        0.009999999776482582,
        0.0,
        0.0,
        -0.009999999776482582,
        0.0,
        0.0,
        0.0,
        0.0,
        0.0,
        1.0
      ],
      "name": "b1c3231cc73b4f4e9fa53d6a17c80943.fbx"
    },
    {
      "children": [
        3,
        5,
        7,
        9,
        11,
        13,
        15,
        17,
        19,
        21,
        23,
        25,
        27,
        29,
        31,
        33,
        35,
        37,
        39,
        41,
        43,
        45,
        47,
        49,
        51,
        53,
        55,
        57,
        59,
        61,
        63
      ],
      "name": "RootNode"
    },
    {
      "children": [
        4
      ],
      "matrix": [
        22.616144589477283,
        2.401778814741782,
        -20.841640057547707,
        0.0,
        -19.910804055685528,
        12.113883331508683,
        -20.21005803301568,
        0.0,
        6.610786070847788,
        28.268675613480003,
        10.431309591632994,
        0.0,
        0.0,
        0.0,
        0.0,
        1.0
      ],
      "name": "Grass_00.001"
    },
    {
      "mesh": 0,
      "name": "Grass_00.001_Cube_0"
    },
    {
      "children": [
        6
      ],
      "matrix": [
        -2.9453609896283224,
        9.349076306936833,
        52.07083978823462,
        0.0,
        51.614290709754755,
        11.950754256756788,
        0.7738343582674848,
        0.0,
        -11.607932354828314,
        50.76639332736557,
        -9.771465915336176,
        0.0,
        -0.21259920299053192,
        0.0,
        0.5880411863327026,
        1.0
      ],
      "name": "Grass_00.002"
    },
    {
      "mesh": 1,
      "name": "Grass_00.002_Cube_0"
    },
    {
      "children": [
        8
      ],
      "matrix": [
        19.263813546698284,
        4.850264128847336,
        25.002360381227614,
        0.0,
        25.45957246449654,
        -2.838453733131869,
        -19.065448195419847,
        0.0,
        -0.6734158982870062,
        31.434944254554743,
        -5.579282198929333,
        0.0,
        0.8421874642372131,
        0.11592772603034973,
        -0.15588277578353882,
        1.0
      ],
      "name": "Grass_00.003"
    },
    {
      "mesh": 2,
      "name": "Grass_00.003_Cube_0"
    },
    {
      "children": [
        10
      ],
      "matrix": [
        7.548848511481016,
        1.3791407642081668,
        1.4852483349085182,
        0.0,
        1.1586992780865664,
        1.7629291302467434,
        -7.52613046979766,
        0.0,
        -1.6629517930084523,
        7.488869022982556,
        1.4981781615951586,
        0.0,
        -2.0486838817596436,
        -0.005776813253760338,
        0.05140986293554306,
        1.0
      ],
      "name": "Grass_00.004"
    },
    {
      "mesh": 3,
      "name": "Grass_00.004_Cube_0"
    },
    {
      "children": [
        12
      ],
      "matrix": [
        2.9087916836814798,
        0.7286472629960938,
        -2.8392514179270716,
        0.0,
        -2.9272413903740753,
        0.9314154556155371,
        -2.7599042622730776,
        0.0,
        0.15341209013903323,
        3.956625218875625,
        1.1725724348984627,
        0.0,
        1.2762781381607056,
        0.40956294536590576,
        -1.6190141439437866,
        1.0
      ],
      "name": "Grass_00.005"
    },
    {
      "mesh": 4,
      "name": "Grass_00.005_Cube_0"
    },
    {
      "children": [
        14
      ],
      "matrix": [
        6.596324765060963,
        1.2296084835851502,
        1.8814691474750251,
        0.0,
        1.589650943634936,
        1.571785687450617,
        -6.600445678120533,
        0.0,
        -1.588985021831148,
        6.676893373735309,
        1.20729936896692,
        0.0,
        1.1705771684646606,
        0.40010687708854675,
        -1.6346182823181152,
        1.0
      ],
      "name": "Grass_00.006"
    },
    {
      "mesh": 5,
      "name": "Grass_00.006_Cube_0"
    },
    {
      "children": [
        16
      ],
      "matrix": [
        2.3502258641448863,
        9.211389010662829e-08,
        -2.046790976841145,
        0.0,
        -2.046790976841096,
        -5.879724292365259e-07,
        -2.3502258641448575,
        0.0,
        -1.8398025271526422e-06,
        12.584884643554458,
        -1.5461807486484246e-06,
        0.0,
        -1.7526646852493286,
        0.024292174726724625,
        -0.2077779769897461,
        1.0
      ],
      "name": "Plane.026"
    },
    {
      "mesh": 6,
      "name": "Plane.026_Plane.001_0"
    },
    {
      "children": [
        18
      ],
      "matrix": [
        -10.651783672324294,
        -0.9274581536924691,
        -18.198604842738984,
        0.0,
        -18.225243557190254,
        1.3137634590363663,
        10.600421998364121,
        0.0,
        1.7626917729260745,
        55.66943521622794,
        -3.8688066287142333,
        0.0,
        -2.708181858062744,
        0.0,
        -1.3133344650268555,
        1.0
      ],
      "name": "Plane.027"
    },
    {
      "mesh": 7,
      "name": "Plane.027_Plane_0"
    },
    {
      "children": [
        20
      ],
      "matrix": [
        4.2730049995371004,
        -0.7092904110752583,
        -15.550039785447975,
        0.0,
        -15.523186740335326,
        1.0038752876513521,
        -4.311416214406551,
        0.0,
        2.245497114380313,
        31.25076273829491,
        -0.8084124623675428,
        0.0,
        1.0626220703125,
        0.0,
        -1.1807929277420044,
        1.0
      ],
      "name": "Plane.028"
    },
    {
      "mesh": 8,
      "name": "Plane.028_Plane_0"
    },
    {
      "children": [
        22
      ],
      "matrix": [
        -63.78056339579651,
        -0.7986098094819769,
        21.24524540883883,
        0.0,
        20.742121058594993,
        12.404247958391473,
        62.73640504455203,
        0.0,
        -4.665033924188932,
        66.07158486399773,
        -11.521310836119092,
        0.0,
        -0.1179470419883728,
        0.0,
        -0.544858455657959,
        1.0
      ],
      "name": "Plane.029"
    },
    {
      "mesh": 9,
      "name": "Plane.029_Plane.025_0"
    },
    {
      "children": [
        24
      ],
      "matrix": [
        5.617643755077129,
        0.0,
        2.5906720190436188,
        0.0,
        2.590672019043616,
        -2.704089275923339e-07,
        -5.617643755077123,
        0.0,
        3.0519768379919027e-07,
        16.672494888305646,
        -6.617942559763738e-07,
        0.0,
        -1.1798672676086426,
        0.0,
        -2.112931728363037,
        1.0
      ],
      "name": "Plane.030"
    },
    {
      "mesh": 10,
      "name": "Plane.030_Plane.001_0"
    },
    {
      "children": [
        26
      ],
      "matrix": [
        4.3888819474144105,
        -1.2620655918213106e-16,
        1.1889345705498033,
        0.0,
        1.1889345705497876,
        -7.408118146199282e-07,
        -4.388881947414352,
        0.0,
        4.091406378509553e-07,
        9.604397773742548,
        -1.5103185691611068e-06,
        0.0,
        0.5821595191955566,
        0.0,
        0.026922300457954407,
        1.0
      ],
      "name": "Plane.031"
    },
    {
      "mesh": 11,
      "name": "Plane.031_Plane.002_0"
    },
    {
      "children": [
        28
      ],
      "matrix": [
        0.6593968547875918,
        2.7492862272475185e-07,
        4.909922135087137,
        0.0,
        4.909922135086327,
        -2.8939104774914648e-06,
        -0.6593968547873221,
        0.0,
        5.350356756047226e-06,
        9.360782623289404,
        -1.242699035037377e-06,
        0.0,
        -0.026766769587993622,
        0.0,
        -0.685267448425293,
        1.0
      ],
      "name": "Plane.032"
    },
    {
      "mesh": 12,
      "name": "Plane.032_Plane.002_0"
    },
    {
      "children": [
        30
      ],
      "matrix": [
        -4.361156198547335,
        -0.13715028352929043,
        0.3936658201150881,
        0.0,
        0.40110867085934265,
        -0.26661125292528914,
        4.350725081435279,
        0.0,
        -0.30313623507632925,
        11.79392222928649,
        0.7506755526177349,
        0.0,
        -2.2422571182250977,
        0.0,
        -0.2965083122253418,
        1.0
      ],
      "name": "Plane.033"
    },
    {
      "mesh": 13,
      "name": "Plane.033_Plane_0"
    },
    {
      "children": [
        32
      ],
      "matrix": [
        -3.6679076037341103,
        -0.13719201767077358,
        -2.3943342600944706,
        0.0,
        -2.384055625425519,
        -0.2669207472322344,
        3.6674558345700046,
        0.0,
        -1.1415002192157484,
        19.147653107232387,
        0.6515431852120662,
        0.0,
        -1.0215462446212769,
        0.0,
        -0.5492545962333679,
        1.0
      ],
      "name": "Plane.034"
    },
    {
      "mesh": 14,
      "name": "Plane.034_Plane_0"
    },
    {
      "children": [
        34
      ],
      "matrix": [
        -6.6908997077971035,
        -0.5868649725231451,
        2.1481771050183247,
        0.0,
        2.105735871966622,
        0.4870659974326989,
        6.691771116104986,
        0.0,
        -4.311069114279119,
        42.73168753513415,
        -1.7536731198971731,
        0.0,
        -0.5770965218544006,
        0.07999459654092789,
        -1.906699299812317,
        1.0
      ],
      "name": "Plane.035"
    },
    {
      "mesh": 15,
      "name": "Plane.035_Plane.002_0"
    },
    {
      "children": [
        36
      ],
      "matrix": [
        30.466847483145205,
        -0.04258474786649083,
        -59.93101753111472,
        0.0,
        -58.20927941697598,
        15.978262427596304,
        -29.6029291919919,
        0.0,
        14.26216093554186,
        65.30429423564223,
        7.203984395466859,
        0.0,
        0.09321887046098709,
        0.0,
        0.014315219596028328,
        1.0
      ],
      "name": "Plane.036"
    },
    {
      "mesh": 16,
      "name": "Plane.036_Plane.025_0"
    },
    {
      "children": [
        38
      ],
      "matrix": [
        -32.51496958217944,
        -4.767505014580791,
        72.01738406471749,
        0.0,
        70.98048268514223,
        12.198939264734031,
        32.85438328927286,
        0.0,
        -13.076762413646218,
        78.06989162644535,
        -0.7358213990196714,
        0.0,
        -0.04771013185381889,
        0.0,
        0.06338899582624435,
        1.0
      ],
      "name": "Plane.037"
    },
    {
      "mesh": 17,
      "name": "Plane.037_Plane.025_0"
    },
    {
      "children": [
        40
      ],
      "matrix": [
        -14.271232567556792,
        -0.018483372627907776,
        -10.248811845857276,
        0.0,
        -10.02758059463522,
        3.6562394505979428,
        13.956579286563311,
        0.0,
        2.11804468908078,
        17.18540474731303,
        -2.9803213333848997,
        0.0,
        0.35294678807258606,
        -0.0021456803660839796,
        -0.04050205647945404,
        1.0
      ],
      "name": "Plane.038"
    },
    {
      "mesh": 18,
      "name": "Plane.038_Plane.025_0"
    },
    {
      "children": [
        42
      ],
      "matrix": [
        -22.09923813869355,
        1.4709903866718657,
        -65.53746398712768,
        0.0,
        -63.898809177264184,
        14.95982632081826,
        21.882457364739967,
        0.0,
        14.63769948462676,
        67.52580197094734,
        -3.4202147523720563,
        0.0,
        -0.04771013185381889,
        0.0,
        0.06338899582624435,
        1.0
      ],
      "name": "Plane.039"
    },
    {
      "mesh": 19,
      "name": "Plane.039_Plane.025_0"
    },
    {
      "children": [
        44
      ],
      "matrix": [
        -3.054551965025616,
        -1.4295414979648748e-07,
        -3.1260632197693003,
        0.0,
        -3.126063219769304,
        1.836737983363687e-07,
        3.054551965025609,
        0.0,
        8.479662056332396e-08,
        11.779312133789047,
        -6.215220567913815e-07,
        0.0,
        -0.4975159764289856,
        0.0,
        -0.03268824517726898,
        1.0
      ],
      "name": "Plane.040"
    },
    {
      "mesh": 20,
      "name": "Plane.040_Plane.001_0"
    },
    {
      "children": [
        46
      ],
      "matrix": [
        1.9619462767957698,
        -0.16239890503634316,
        4.799501284461973,
        0.0,
        4.790734553073969,
        -0.31606586708821244,
        -1.9690572020159829,
        0.0,
        1.0942531215882745,
        15.999952571248663,
        0.09407413680534989,
        0.0,
        -2.6157002449035645,
        0.0,
        -0.22908109426498413,
        1.0
      ],
      "name": "Plane.041"
    },
    {
      "mesh": 21,
      "name": "Plane.041_Plane_0"
    },
    {
      "children": [
        48
      ],
      "matrix": [
        4.3888819474144105,
        -1.2620655918213106e-16,
        1.1889345705498033,
        0.0,
        1.1889345705497876,
        -7.408118146199282e-07,
        -4.388881947414352,
        0.0,
        4.091406378509553e-07,
        9.604397773742548,
        -1.5103185691611068e-06,
        0.0,
        -2.3895647525787354,
        -2.3283064365386963e-08,
        -0.04421493411064148,
        1.0
      ],
      "name": "Plane.042"
    },
    {
      "mesh": 22,
      "name": "Plane.042_Plane.002_0"
    },
    {
      "children": [
        50
      ],
      "matrix": [
        -5.429399729359524,
        0.11729960281851638,
        -0.9691125581624898,
        0.0,
        -0.9214079977047818,
        1.1929283682420238,
        5.306527414013262,
        0.0,
        0.3224051532929473,
        5.3846491672347145,
        -1.1545090753137888,
        0.0,
        -2.0494587421417236,
        0.008873538114130497,
        0.04855763539671898,
        1.0
      ],
      "name": "Plane.043"
    },
    {
      "mesh": 23,
      "name": "Plane.043_Plane.025_0"
    },
    {
      "children": [
        52
      ],
      "matrix": [
        -4.2951859196835525,
        -0.3570570633203398,
        3.443138492184,
        0.0,
        3.2425388136020556,
        1.5059492195841337,
        4.201113865997878,
        0.0,
        -1.2118695237904922,
        5.294895305750408,
        -0.9626755223883436,
        0.0,
        -2.3122565746307373,
        0.14167028665542603,
        -0.2680591642856598,
        1.0
      ],
      "name": "Plane.044"
    },
    {
      "mesh": 24,
      "name": "Plane.044_Plane.025_0"
    },
    {
      "children": [
        54
      ],
      "matrix": [
        1.207806090987814,
        -0.07647808711430501,
        -1.9795933026352686,
        0.0,
        -1.9219664373558019,
        0.5168633969996903,
        -1.1926144074500382,
        0.0,
        0.4802935012843962,
        2.260626708514192,
        0.20570538879091735,
        0.0,
        -2.343492269515991,
        0.129459947347641,
        -0.2680591642856598,
        1.0
      ],
      "name": "Plane.045"
    },
    {
      "mesh": 25,
      "name": "Plane.045_Plane.025_0"
    },
    {
      "children": [
        56
      ],
      "matrix": [
        -1.4292736475371104,
        0.07270794037136988,
        3.1054678568781906,
        0.0,
        3.0392138887715654,
        0.7394340304981344,
        1.3814683625045285,
        0.0,
        -0.6421793381415035,
        3.3376608775430396,
        -0.3737035791538859,
        0.0,
        -2.0494587421417236,
        0.0,
        0.04855763539671898,
        1.0
      ],
      "name": "Plane.046"
    },
    {
      "mesh": 26,
      "name": "Plane.046_Plane.025_0"
    },
    {
      "children": [
        58
      ],
      "matrix": [
        -2.0489747349990006,
        0.06197361972368333,
        2.0718024085076485,
        0.0,
        2.0326404963482254,
        0.6302650937589003,
        1.9913912621037402,
        0.0,
        -0.4056810021323906,
        2.844893995472707,
        -0.48631013185939126,
        0.0,
        1.2755032777786255,
        0.4242132902145386,
        -1.6218664646148682,
        1.0
      ],
      "name": "Plane.047"
    },
    {
      "mesh": 27,
      "name": "Plane.047_Plane.025_0"
    },
    {
      "children": [
        60
      ],
      "matrix": [
        0.9227651338891499,
        0.0384141301573078,
        1.552645436572142,
        0.0,
        1.5119881985205426,
        0.39066804041165354,
        -0.9082673559474782,
        0.0,
        -0.35507091296703025,
        1.7633997173973406,
        0.16739661622586205,
        0.0,
        1.2755032777786255,
        0.41533973813056946,
        -1.6218664646148682,
        1.0
      ],
      "name": "Plane.048"
    },
    {
      "mesh": 28,
      "name": "Plane.048_Plane.025_0"
    },
    {
      "children": [
        62
      ],
      "matrix": [
        -4.751688358474867,
        0.10458148010748862,
        -1.2651445930594667,
        0.0,
        -1.2136150585054355,
        1.0635864828326445,
        4.646071307590643,
        0.0,
        0.37237837313225697,
        4.800822675000748,
        -1.0017422881367155,
        0.0,
        1.1698023080825806,
        0.41475725173950195,
        -1.6374704837799072,
        1.0
      ],
      "name": "Plane.049"
    },
    {
      "mesh": 29,
      "name": "Plane.049_Plane.025_0"
    },
    {
      "children": [
        64
      ],
      "matrix": [
        -1.5010034784928865,
        0.06482446629753079,
        2.6527105137939215,
        0.0,
        2.5974047762318584,
        0.6592610165823303,
        1.4535990039533182,
        0.0,
        -0.542736941179588,
        2.9757771638768107,
        -0.3798202622738645,
        0.0,
        1.1698023080825806,
        0.40588369965553284,
        -1.6374704837799072,
        1.0
      ],
      "name": "Plane.050"
    },
    {
      "mesh": 30,
      "name": "Plane.050_Plane.025_0"
    }
  ],
  "samplers": [
    {
      "magFilter": 9729,
      "minFilter": 9987,
      "wrapS": 10497,
      "wrapT": 10497
    }
  ],
  "scene": 0,
  "scenes": [
    {
      "name": "Sketchfab_Scene",
      "nodes": [
        0
      ]
    }
  ],
  "textures": [
    {
      "sampler": 0,
      "source": 0
    },
    {
      "sampler": 0,
      "source": 1
    },
    {
      "sampler": 0,
      "source": 2
    },
    {
      "sampler": 0,
      "source": 3
    },
    {
      "sampler": 0,
      "source": 4
    }
  ]
}
